<svg xmlns="http://www.w3.org/2000/svg" viewBox="0 0 512 228" width="512" height="228" xmlns:c2pa="http://c2pa.org/manifest"><metadata><c2pa:manifest>AAAWgmp1bWIAAAAeanVtZGMycGEAEQAQgAAAqgA4m3EDYzJwYQAAABZcanVtYgAAAEdqdW1kYzJtYQARABCAAACqADibcQN1cm46YzJwYTpkZWI5YzE0ZC00NWFmLTQ4MWUtODI5My1mYTNlNDM0NGQ4NWUAAAADl2p1bWIAAAApanVtZGMyYXMAEQAQgAAAqgA4m3EDYzJwYS5hc3NlcnRpb25zAAAAALxqdW1iAAAARGp1bWRjYm9yABEAEIAAAKoAOJtxE2MycGEuaW5ncmVkaWVudC52MwAAAAAYYzJzaI4qiuoyqLicmX6J5iWV/YUAAABwY2JvcqNpZGM6Zm9ybWF0bWltYWdlL3N2Zyt4bWxqaW5zdGFuY2VJRHgseG1wOmlpZDo4MWNmYzZmMS02NjU1LTQ5YzAtYWIyOS0yN2E0YWQ1NGE0MWFscmVsYXRpb25zaGlwaHBhcmVudE9mAAAB4mp1bWIAAABBanVtZGNib3IAEQAQgAAAqgA4m3ETYzJwYS5hY3Rpb25zLnYyAAAAABhjMnNok0u5lBlj8QcTKbmYcE4Y2gAAAZljYm9yomdhY3Rpb25zgqJmYWN0aW9ua2MycGEub3BlbmVkanBhcmFtZXRlcnOha2luZ3JlZGllbnRzgaJjdXJseC1zZWxmI2p1bWJmPWMycGEuYXNzZXJ0aW9ucy9jMnBhLmluZ3JlZGllbnQudjNkaGFzaFggNVo/hqJeRyVlBo6ktCbPYtWUtlxfwuneOkw4EKNNiYykZmFjdGlvbngdY29tLmFudGhyb3BpYy5jbGF1ZGUucHJvdmlkZWRqcGFyYW1ldGVyc6F4H2NvbS5hbnRocm9waWMub3JpZ2luLWNvbmZpZGVuY2VndW5rbm93bmtkZXNjcmlwdGlvbnhmQ2xhdWRlIHByb3ZpZGVkIHRoaXMgZmlsZSBhdCB0aGUgcmVxdWVzdCBvZiBhIHVzZXIgYW5kIG1heSBoYXZlIGNyZWF0ZWQgb3IgbW9kaWZpZWQgdGhlIGZpbGUgY29udGVudHMubXNvZnR3YXJlQWdlbnShZG5hbWVmQ2xhdWRlcmFsbEFjdGlvbnNJbmNsdWRlZPUAAADIanVtYgAAAEBqdW1kY2JvcgARABCAAACqADibcRNjMnBhLmhhc2guZGF0YQAAAAAYYzJzaJzrtQuHTz+IzyGvuDr/4t8AAACAY2JvcqVjYWxnZnNoYTI1NmNwYWRNAAAAAAAAAAAAAAAAAGRoYXNoWCAZMzkUXuoUfotBiUQQi8h80iucTgcW6Mf8gx3U56/YxmRuYW1lbmp1bWJmIG1hbmlmZXN0amV4Y2x1c2lvbnOBomVzdGFydBiWZmxlbmd0aBkeBAAAAj5qdW1iAAAAJ2p1bWRjMmNsABEAEIAAAKoAOJtxA2MycGEuY2xhaW0udjIAAAACD2Nib3KlY2FsZ2ZzaGEyNTZpc2lnbmF0dXJleE1zZWxmI2p1bWJmPS9jMnBhL3VybjpjMnBhOmRlYjljMTRkLTQ1YWYtNDgxZS04MjkzLWZhM2U0MzQ0ZDg1ZS9jMnBhLnNpZ25hdHVyZWppbnN0YW5jZUlEeCx4bXA6aWlkOmE3ZDc4NTVjLThiYjktNDIwOS05ZWNhLTE1MzE2YjczMGVhM3JjcmVhdGVkX2Fzc2VydGlvbnODomN1cmx4LXNlbGYjanVtYmY9YzJwYS5hc3NlcnRpb25zL2MycGEuaW5ncmVkaWVudC52M2RoYXNoWCA1Wj+Gol5HJWUGjqS0Js9i1ZS2XF/C6d46TDgQo02JjKJjdXJseCpzZWxmI2p1bWJmPWMycGEuYXNzZXJ0aW9ucy9jMnBhLmFjdGlvbnMudjJkaGFzaFggk/DaBEzVm3cmTxWJ0WiiGrDBoWGKoC93I6xV5mWC6UOiY3VybHgpc2VsZiNqdW1iZj1jMnBhLmFzc2VydGlvbnMvYzJwYS5oYXNoLmRhdGFkaGFzaFgg00KOA77q1FvQI+SAoNstfYreT+btCNJ+nWgS9r8HaBZ0Y2xhaW1fZ2VuZXJhdG9yX2luZm+jZG5hbWVvQW50aHJvcGljIEZpbGVzZ3ZlcnNpb25lMS4wLjBrc3BlY1ZlcnNpb25lMi40LjAAABA4anVtYgAAAChqdW1kYzJjcwARABCAAACqADibcQNjMnBhLnNpZ25hdHVyZQAAABAIY2JvctKEWQISogEmGCFZAgowggIGMIIBjaADAgECAhRA5aAK7sI50L64g/oGQgU9Z1UTADAKBggqhkjOPQQDAzBJMRcwFQYDVQQKEw5BbnRocm9waWMsIFBCQzEuMCwGA1UEAxMlQW50aHJvcGljIENvbnRlbnQgQ3JlZGVudGlhbHMgUm9vdCBDQTAeFw0yNjA4MDcxODQzNTZaFw0yODA4MDYxOTQzNTZaMEQxFzAVBgNVBAoTDkFudGhyb3BpYywgUEJDMSkwJwYDVQQDEyBBbnRocm9waWMgQ2xhdWRlIENvbnRlbnQgU2lnbmluZzBZMBMGByqGSM49AgEGCCqGSM49AwEHA0IABJh6CmvLUBgFFNU0vUKlOVtE6djd17L5SuwX0LemFisBM3dkd/3cyjxFA3Qo5S46fX0/ihY0VZ7mfb9KF703t5OjWDBWMA4GA1UdDwEB/wQEAwIHgDAVBgNVHSUEDjAMBgorBgEEAYPoXgIBMAwGA1UdEwEB/wQCMAAwHwYDVR0jBBgwFoAUzlHiBIFOZFsj+OPEz5o+nMHXXMIwCgYIKoZIzj0EAwMDZwAwZAIwMXMdFJ4BetLLVY7ORuE9noqbbAZOZn/aArXyTwFAZfKrPzxF2vPoJNf1+UCdg1XGAjBwX1zd9WGqYkqmL5SFqw1QySjr1zJfpJM9+1rdDwSPLMOPOjKuiXjoU/pUUeG9RwmhY3BhZFkNngAAAAAAAAAAAAAAAAAAAAAAAAAAAAAAAAAAAAAAAAAAAAAAAAAAAAAAAAAAAAAAAAAAAAAAAAAAAAAAAAAAAAAAAAAAAAAAAAAAAAAAAAAAAAAAAAAAAAAAAAAAAAAAAAAAAAAAAAAAAAAAAAAAAAAAAAAAAAAAAAAAAAAAAAAAAAAAAAAAAAAAAAAAAAAAAAAAAAAAAAAAAAAAAAAAAAAAAAAAAAAAAAAAAAAAAAAAAAAAAAAAAAAAAAAAAAAAAAAAAAAAAAAAAAAAAAAAAAAAAAAAAAAAAAAAAAAAAAAAAAAAAAAAAAAAAAAAAAAAAAAAAAAAAAAAAAAAAAAAAAAAAAAAAAAAAAAAAAAAAAAAAAAAAAAAAAAAAAAAAAAAAAAAAAAAAAAAAAAAAAAAAAAAAAAAAAAAAAAAAAAAAAAAAAAAAAAAAAAAAAAAAAAAAAAAAAAAAAAAAAAAAAAAAAAAAAAAAAAAAAAAAAAAAAAAAAAAAAAAAAAAAAAAAAAAAAAAAAAAAAAAAAAAAAAAAAAAAAAAAAAAAAAAAAAAAAAAAAAAAAAAAAAAAAAAAAAAAAAAAAAAAAAAAAAAAAAAAAAAAAAAAAAAAAAAAAAAAAAAAAAAAAAAAAAAAAAAAAAAAAAAAAAAAAAAAAAAAAAAAAAAAAAAAAAAAAAAAAAAAAAAAAAAAAAAAAAAAAAAAAAAAAAAAAAAAAAAAAAAAAAAAAAAAAAAAAAAAAAAAAAAAAAAAAAAAAAAAAAAAAAAAAAAAAAAAAAAAAAAAAAAAAAAAAAAAAAAAAAAAAAAAAAAAAAAAAAAAAAAAAAAAAAAAAAAAAAAAAAAAAAAAAAAAAAAAAAAAAAAAAAAAAAAAAAAAAAAAAAAAAAAAAAAAAAAAAAAAAAAAAAAAAAAAAAAAAAAAAAAAAAAAAAAAAAAAAAAAAAAAAAAAAAAAAAAAAAAAAAAAAAAAAAAAAAAAAAAAAAAAAAAAAAAAAAAAAAAAAAAAAAAAAAAAAAAAAAAAAAAAAAAAAAAAAAAAAAAAAAAAAAAAAAAAAAAAAAAAAAAAAAAAAAAAAAAAAAAAAAAAAAAAAAAAAAAAAAAAAAAAAAAAAAAAAAAAAAAAAAAAAAAAAAAAAAAAAAAAAAAAAAAAAAAAAAAAAAAAAAAAAAAAAAAAAAAAAAAAAAAAAAAAAAAAAAAAAAAAAAAAAAAAAAAAAAAAAAAAAAAAAAAAAAAAAAAAAAAAAAAAAAAAAAAAAAAAAAAAAAAAAAAAAAAAAAAAAAAAAAAAAAAAAAAAAAAAAAAAAAAAAAAAAAAAAAAAAAAAAAAAAAAAAAAAAAAAAAAAAAAAAAAAAAAAAAAAAAAAAAAAAAAAAAAAAAAAAAAAAAAAAAAAAAAAAAAAAAAAAAAAAAAAAAAAAAAAAAAAAAAAAAAAAAAAAAAAAAAAAAAAAAAAAAAAAAAAAAAAAAAAAAAAAAAAAAAAAAAAAAAAAAAAAAAAAAAAAAAAAAAAAAAAAAAAAAAAAAAAAAAAAAAAAAAAAAAAAAAAAAAAAAAAAAAAAAAAAAAAAAAAAAAAAAAAAAAAAAAAAAAAAAAAAAAAAAAAAAAAAAAAAAAAAAAAAAAAAAAAAAAAAAAAAAAAAAAAAAAAAAAAAAAAAAAAAAAAAAAAAAAAAAAAAAAAAAAAAAAAAAAAAAAAAAAAAAAAAAAAAAAAAAAAAAAAAAAAAAAAAAAAAAAAAAAAAAAAAAAAAAAAAAAAAAAAAAAAAAAAAAAAAAAAAAAAAAAAAAAAAAAAAAAAAAAAAAAAAAAAAAAAAAAAAAAAAAAAAAAAAAAAAAAAAAAAAAAAAAAAAAAAAAAAAAAAAAAAAAAAAAAAAAAAAAAAAAAAAAAAAAAAAAAAAAAAAAAAAAAAAAAAAAAAAAAAAAAAAAAAAAAAAAAAAAAAAAAAAAAAAAAAAAAAAAAAAAAAAAAAAAAAAAAAAAAAAAAAAAAAAAAAAAAAAAAAAAAAAAAAAAAAAAAAAAAAAAAAAAAAAAAAAAAAAAAAAAAAAAAAAAAAAAAAAAAAAAAAAAAAAAAAAAAAAAAAAAAAAAAAAAAAAAAAAAAAAAAAAAAAAAAAAAAAAAAAAAAAAAAAAAAAAAAAAAAAAAAAAAAAAAAAAAAAAAAAAAAAAAAAAAAAAAAAAAAAAAAAAAAAAAAAAAAAAAAAAAAAAAAAAAAAAAAAAAAAAAAAAAAAAAAAAAAAAAAAAAAAAAAAAAAAAAAAAAAAAAAAAAAAAAAAAAAAAAAAAAAAAAAAAAAAAAAAAAAAAAAAAAAAAAAAAAAAAAAAAAAAAAAAAAAAAAAAAAAAAAAAAAAAAAAAAAAAAAAAAAAAAAAAAAAAAAAAAAAAAAAAAAAAAAAAAAAAAAAAAAAAAAAAAAAAAAAAAAAAAAAAAAAAAAAAAAAAAAAAAAAAAAAAAAAAAAAAAAAAAAAAAAAAAAAAAAAAAAAAAAAAAAAAAAAAAAAAAAAAAAAAAAAAAAAAAAAAAAAAAAAAAAAAAAAAAAAAAAAAAAAAAAAAAAAAAAAAAAAAAAAAAAAAAAAAAAAAAAAAAAAAAAAAAAAAAAAAAAAAAAAAAAAAAAAAAAAAAAAAAAAAAAAAAAAAAAAAAAAAAAAAAAAAAAAAAAAAAAAAAAAAAAAAAAAAAAAAAAAAAAAAAAAAAAAAAAAAAAAAAAAAAAAAAAAAAAAAAAAAAAAAAAAAAAAAAAAAAAAAAAAAAAAAAAAAAAAAAAAAAAAAAAAAAAAAAAAAAAAAAAAAAAAAAAAAAAAAAAAAAAAAAAAAAAAAAAAAAAAAAAAAAAAAAAAAAAAAAAAAAAAAAAAAAAAAAAAAAAAAAAAAAAAAAAAAAAAAAAAAAAAAAAAAAAAAAAAAAAAAAAAAAAAAAAAAAAAAAAAAAAAAAAAAAAAAAAAAAAAAAAAAAAAAAAAAAAAAAAAAAAAAAAAAAAAAAAAAAAAAAAAAAAAAAAAAAAAAAAAAAAAAAAAAAAAAAAAAAAAAAAAAAAAAAAAAAAAAAAAAAAAAAAAAAAAAAAAAAAAAAAAAAAAAAAAAAAAAAAAAAAAAAAAAAAAAAAAAAAAAAAAAAAAAAAAAAAAAAAAAAAAAAAAAAAAAAAAAAAAAAAAAAAAAAAAAAAAAAAAAAAAAAAAAAAAAAAAAAAAAAAAAAAAAAAAAAAAAAAAAAAAAAAAAAAAAAAAAAAAAAAAAAAAAAAAAAAAAAAAAAAAAAAAAAAAAAAAAAAAAAAAAAAAAAAAAAAAAAAAAAAAAAAAAAAAAAAAAAAAAAAAAAAAAAAAAAAAAAAAAAAAAAAAAAAAAAAAAAAAAAAAAAAAAAAAAAAAAAAAAAAAAAAAAAAAAAAAAAAAAAAAAAAAAAAAAAAAAAAAAAAAAAAAAAAAAAAAAAAAAAAAAAAAAAAAAAAAAAAAAAAAAAAAAAAAAAAAAAAAAAAAAAAAAAAAAAAAAAAAAAAAAAAAAAAAAAAAAAAAAAAAAAAAAAAAAAAAAAAAAAAAAAAAAAAAAAAAAAAAAAAAAAAAAAAAAAAAAAAAAAAAAAAAAAAAAAAAAAAAAAAAAAAAAAAAAAAAAAAAAAAAAAAAAAAAAAAAAAAAAAAAAAAAAAAAAAAAAAAAAAAAAAAAAAAAAAAAAAAAAAAAAAAAAAAAAAAAAAAAAAAAAAAAAAAAAAAAAAAAAAAAAAAAAAAAAAAAAAAAAAAAAAAAAAAAAAAAAAAAAAAAAAAAAAAAAAAAAAAAAAAAAAAAAAAAAAAAAAAAAAAAAAAAAAAAAAAAAAAAAAAAAAAAAAAAAAAAAAAAAAAAAAAAAAAAAAAAAAAAAAAAAAAAAAAAAAAAAAAAAAAAAAAAAAAAAAAAAAAAAAAAAAAAAAAAAAAAAAAAAAAAAAAAAAAAAAAAAAAAAAAAAAAAAAAAAAAAAAAAAAAAAAAAAAAAAAAAAAAAAAAAAAAAAAAAAAAAAAAAAAAAAAAAAAAAAAAAAAAAAAAAAAAAAAAAAAAAAAAAAAAAAAAAAAAAAAAAAAAAAAAAAAAAAAAAAAAAAAAAAAAAAAAAAAAAAAAAAAAAAAAAAAAAAAAAAAAAAAAAAAAAAAAAAAAAAAAAAAAAAAAAAAAAAAAAAAAAAAAAAAAAAAAAAAAAAAAAAAAAAAAAAAAAAAAAAAAAAAAAAAAAAAAAAAAAAAAAAAAAAAAAAAAAAAAAAAAAAAAAAAAAAAAAAAAAAAAAAAAAAAAAAAAAAAAAAAAAAAAAAAAAAAAAAAAAAAAAAAAAAAAAAAAAAAAAAAAAAAAAAAAAAAAAAAAAAAAAAAAAAAAAAAAAAAAAAAAAAAAAAAAAAAAAAAAAAAAAAAAAAAAAAAAAAAAAAAAAAAAAAAAAAAAAAAAAAAAAAAAAAAAAAAAAAAAAAAAAAAAAAAAAAAAAAAAAAAAAAAAAAAAAAAAAAAAAAAAAAAAAAAAAAAAAAAAAAAAAAAAAAAAAAAAAAAAAAAAAAAAAAAAAAAAAAAAAAAAAAAAAAAAAAAAAAAAAAAAAAAAAAAAAAAAAAAAAAAAAAAAAAAAAAAAAAAAAAAAAAAAAAAAAAAAAAAAAAAAAAAAAAAAAAAAAAAAAAAAAAAAAAAAAAAAAAAAAAAAAAAAAAAAAAAAAAAAAAAAAAAAAAPZYQNXV3vrUzncZIGajQmtaiKl9364xhEHvW/2chWIgSkvZHP8Es+mC9UWWqo12t60MbUOxjkJ0kYDkxJrW4IA5rXI=</c2pa:manifest></metadata><g id="deco_ijokaku" transform="translate(2 2)"><g transform="translate(8 103) scale(0.1)"><rect x="0" y="-440" width="800" height="440" fill="#efe6cf"/><rect x="700" y="-440" width="100" height="440" fill="#d9ceb2"/><rect x="-20" y="-40" width="840" height="40" fill="#b8ae98"/><rect x="70" y="-360" width="90" height="150" rx="44" ry="44" fill="#c62828"/><rect x="84" y="-346" width="62" height="126" rx="30" ry="30" fill="#8fd0e8"/><rect x="112" y="-346" width="6" height="126" fill="#c62828"/><rect x="250" y="-360" width="90" height="150" rx="44" ry="44" fill="#c62828"/><rect x="264" y="-346" width="62" height="126" rx="30" ry="30" fill="#8fd0e8"/><rect x="292" y="-346" width="6" height="126" fill="#c62828"/><rect x="430" y="-360" width="90" height="150" rx="44" ry="44" fill="#c62828"/><rect x="444" y="-346" width="62" height="126" rx="30" ry="30" fill="#8fd0e8"/><rect x="472" y="-346" width="6" height="126" fill="#c62828"/><rect x="610" y="-360" width="90" height="150" rx="44" ry="44" fill="#c62828"/><rect x="624" y="-346" width="62" height="126" rx="30" ry="30" fill="#8fd0e8"/><rect x="652" y="-346" width="6" height="126" fill="#c62828"/><path d="M-80 -440 Q400 -500 880 -440 L760 -560 L40 -560 Z" fill="#2f8a6a"/><path d="M-80 -440 Q400 -490 880 -440 L870 -426 Q400 -476 -70 -426 Z" fill="#1f6b4c"/><rect x="100" y="-760" width="600" height="200" fill="#efe6cf"/><rect x="620" y="-760" width="80" height="200" fill="#d9ceb2"/><rect x="170" y="-720" width="70" height="110" rx="30" ry="30" fill="#c62828"/><rect x="182" y="-708" width="46" height="90" rx="20" ry="20" fill="#8fd0e8"/><rect x="330" y="-720" width="70" height="110" rx="30" ry="30" fill="#c62828"/><rect x="342" y="-708" width="46" height="90" rx="20" ry="20" fill="#8fd0e8"/><rect x="490" y="-720" width="70" height="110" rx="30" ry="30" fill="#c62828"/><rect x="502" y="-708" width="46" height="90" rx="20" ry="20" fill="#8fd0e8"/><rect x="80" y="-580" width="640" height="20" fill="#c62828"/><path d="M20 -760 Q400 -800 780 -760 L660 -860 L140 -860 Z" fill="#2f8a6a"/><rect x="240" y="-980" width="320" height="120" fill="#efe6cf"/><rect x="300" y="-950" width="60" height="70" rx="24" ry="24" fill="#8fd0e8"/><rect x="430" y="-950" width="60" height="70" rx="24" ry="24" fill="#8fd0e8"/><path d="M180 -980 Q400 -1010 620 -980 L400 -1030 Z" fill="#2f8a6a"/><circle cx="400" cy="-1030" r="14" fill="#ffd54f"/></g></g>
<g id="deco_ropewayStation" transform="translate(102 2)"><g transform="translate(5 95) scale(0.1)"><rect x="0" y="-640" width="960" height="640" fill="#eef2f5"/><rect x="880" y="-640" width="80" height="640" fill="#d7dee4"/><rect x="40" y="-560" width="880" height="220" fill="#9fd3ef"/><rect x="40" y="-560" width="12" height="220" fill="#ffffff"/><rect x="260" y="-560" width="12" height="220" fill="#ffffff"/><rect x="480" y="-560" width="12" height="220" fill="#ffffff"/><rect x="700" y="-560" width="12" height="220" fill="#ffffff"/><path d="M70 -550 L130 -550 L70 -440 Z" fill="#ffffff" opacity="0.5"/><path d="M290 -550 L350 -550 L290 -440 Z" fill="#ffffff" opacity="0.5"/><path d="M510 -550 L570 -550 L510 -440 Z" fill="#ffffff" opacity="0.5"/><path d="M730 -550 L790 -550 L730 -440 Z" fill="#ffffff" opacity="0.5"/><circle cx="480" cy="-440" r="70" fill="none" stroke="#5b6470" stroke-width="14" opacity="0.8"/><circle cx="480" cy="-440" r="14" fill="#5b6470" opacity="0.8"/><path d="M-50 -640 L1010 -640 L960 -720 L0 -720 Z" fill="#3d7ea6"/><rect x="-50" y="-650" width="1060" height="16" fill="#2a5f80"/><rect x="360" y="-300" width="240" height="300" rx="10" ry="10" fill="#5b6470"/><rect x="380" y="-280" width="90" height="280" fill="#8fb7cf"/><rect x="490" y="-280" width="90" height="280" fill="#8fb7cf"/><rect x="0" y="-40" width="960" height="40" fill="#c9d2da"/><rect x="100" y="-870" width="760" height="150" rx="16" ry="16" fill="#1f4f7a"/><rect x="114" y="-856" width="732" height="122" rx="10" ry="10" fill="#ffffff"/><rect x="200" y="-730" width="16" height="10" fill="#1f4f7a"/><rect x="744" y="-730" width="16" height="10" fill="#1f4f7a"/></g></g>
<g id="deco_zooGate" transform="translate(212 2)"><g transform="translate(8 83) scale(0.1)"><rect x="0" y="-560" width="110" height="560" fill="#c9794a"/><rect x="80" y="-560" width="30" height="560" fill="#a95f36"/><rect x="0" y="-520" width="110" height="5" fill="#e8b38a" opacity="0.6"/><rect x="0" y="-444" width="110" height="5" fill="#e8b38a" opacity="0.6"/><rect x="0" y="-368" width="110" height="5" fill="#e8b38a" opacity="0.6"/><rect x="0" y="-292" width="110" height="5" fill="#e8b38a" opacity="0.6"/><rect x="0" y="-216" width="110" height="5" fill="#e8b38a" opacity="0.6"/><rect x="0" y="-140" width="110" height="5" fill="#e8b38a" opacity="0.6"/><rect x="0" y="-64" width="110" height="5" fill="#e8b38a" opacity="0.6"/><rect x="-12" y="-586" width="134" height="30" fill="#3f8a43"/><rect x="-12" y="-586" width="134" height="9" fill="#6fbf5a"/><rect x="-6" y="-30" width="122" height="30" fill="#8e5534"/><rect x="1010" y="-560" width="110" height="560" fill="#c9794a"/><rect x="1090" y="-560" width="30" height="560" fill="#a95f36"/><rect x="1010" y="-520" width="110" height="5" fill="#e8b38a" opacity="0.6"/><rect x="1010" y="-444" width="110" height="5" fill="#e8b38a" opacity="0.6"/><rect x="1010" y="-368" width="110" height="5" fill="#e8b38a" opacity="0.6"/><rect x="1010" y="-292" width="110" height="5" fill="#e8b38a" opacity="0.6"/><rect x="1010" y="-216" width="110" height="5" fill="#e8b38a" opacity="0.6"/><rect x="1010" y="-140" width="110" height="5" fill="#e8b38a" opacity="0.6"/><rect x="1010" y="-64" width="110" height="5" fill="#e8b38a" opacity="0.6"/><rect x="998" y="-586" width="134" height="30" fill="#3f8a43"/><rect x="998" y="-586" width="134" height="9" fill="#6fbf5a"/><rect x="1004" y="-30" width="122" height="30" fill="#8e5534"/><path d="M-40 -520 Q560 -640 1160 -520 L1160 -470 Q560 -590 -40 -470 Z" fill="#3f8a43"/><rect x="-40" y="-710" width="1200" height="210" rx="40" ry="40" fill="#3f8a43"/><rect x="-24" y="-694" width="1168" height="178" rx="30" ry="30" fill="#ffffff"/><rect x="-24" y="-694" width="1168" height="40" rx="20" ry="20" fill="#e9f7e2"/><g transform="translate(-20 -730)"><circle cx="62" cy="0" r="30" fill="#d9822b"/><circle cx="53.69" cy="31" r="30" fill="#d9822b"/><circle cx="31" cy="53.69" r="30" fill="#d9822b"/><circle cx="0" cy="62" r="30" fill="#d9822b"/><circle cx="-31" cy="53.69" r="30" fill="#d9822b"/><circle cx="-53.69" cy="31" r="30" fill="#d9822b"/><circle cx="-62" cy="0" r="30" fill="#d9822b"/><circle cx="-53.69" cy="-31" r="30" fill="#d9822b"/><circle cx="-31" cy="-53.69" r="30" fill="#d9822b"/><circle cx="0" cy="-62" r="30" fill="#d9822b"/><circle cx="31" cy="-53.69" r="30" fill="#d9822b"/><circle cx="53.69" cy="-31" r="30" fill="#d9822b"/><circle cx="0" cy="0" r="58" fill="#f2b04a"/><ellipse cx="0" cy="20" rx="30" ry="22" fill="#fde3b0"/><circle cx="-20" cy="-8" r="8" fill="#2a2230"/><circle cx="-17.2" cy="-10.8" r="2.8" fill="#ffffff"/><circle cx="20" cy="-8" r="8" fill="#2a2230"/><circle cx="22.8" cy="-10.8" r="2.8" fill="#ffffff"/><ellipse cx="0" cy="10" rx="10" ry="7" fill="#6b3a1c"/><path d="M-10 30 Q0 38 10 30" fill="none" stroke="#6b3a1c" stroke-width="4" stroke-linecap="round" stroke-linejoin="round"/></g><g transform="translate(1140 -730)"><circle cx="-44" cy="-46" r="24" fill="#2a2a30"/><circle cx="44" cy="-46" r="24" fill="#2a2a30"/><circle cx="0" cy="0" r="60" fill="#ffffff"/><ellipse cx="-22" cy="-4" rx="16" ry="20" fill="#2a2a30" transform="rotate(30 -22 -4)"/><ellipse cx="22" cy="-4" rx="16" ry="20" fill="#2a2a30" transform="rotate(-30 22 -4)"/><circle cx="-20" cy="-6" r="5" fill="#ffffff"/><circle cx="24" cy="-6" r="5" fill="#ffffff"/><ellipse cx="0" cy="18" rx="10" ry="7" fill="#2a2a30"/><ellipse cx="-34" cy="20" rx="10" ry="6" fill="#ffb0c0" opacity="0.7"/><ellipse cx="34" cy="20" rx="10" ry="6" fill="#ffb0c0" opacity="0.7"/></g></g></g>
<g id="deco_hut" transform="translate(344 2)"><g transform="translate(6 69) scale(0.1)"><rect x="0" y="-400" width="960" height="400" fill="#d9b27c"/><rect x="0" y="-400" width="6" height="400" fill="#b5874d"/><rect x="80" y="-400" width="6" height="400" fill="#b5874d"/><rect x="160" y="-400" width="6" height="400" fill="#b5874d"/><rect x="240" y="-400" width="6" height="400" fill="#b5874d"/><rect x="320" y="-400" width="6" height="400" fill="#b5874d"/><rect x="400" y="-400" width="6" height="400" fill="#b5874d"/><rect x="480" y="-400" width="6" height="400" fill="#b5874d"/><rect x="560" y="-400" width="6" height="400" fill="#b5874d"/><rect x="640" y="-400" width="6" height="400" fill="#b5874d"/><rect x="720" y="-400" width="6" height="400" fill="#b5874d"/><rect x="800" y="-400" width="6" height="400" fill="#b5874d"/><rect x="880" y="-400" width="6" height="400" fill="#b5874d"/><rect x="0" y="-400" width="960" height="20" fill="#b5874d"/><rect x="420" y="-250" width="480" height="120" fill="#8a5e36"/><rect x="410" y="-140" width="500" height="20" fill="#6b4a2e"/><rect x="440" y="-240" width="440" height="90" fill="#2f2a28"/><ellipse cx="500" cy="-200" rx="36" ry="22" fill="#ff5a5f"/><ellipse cx="500" cy="-200" rx="16" ry="8" fill="#2f2a28"/><ellipse cx="600" cy="-210" rx="36" ry="22" fill="#ffb703"/><ellipse cx="600" cy="-210" rx="16" ry="8" fill="#2f2a28"/><ellipse cx="700" cy="-200" rx="36" ry="22" fill="#2ec4b6"/><ellipse cx="700" cy="-200" rx="16" ry="8" fill="#2f2a28"/><ellipse cx="800" cy="-208" rx="36" ry="22" fill="#3a86ff"/><ellipse cx="800" cy="-208" rx="16" ry="8" fill="#2f2a28"/><rect x="100" y="-260" width="200" height="260" fill="#6b4a2e"/><rect x="116" y="-244" width="168" height="120" fill="#8fd0e8"/><path d="M-60 -470 L1020 -470 L1000 -380 L-40 -380 Z" fill="#2a9d8f"/><path d="M-40 -470 L20 -470 L30 -380 L-30 -380 Z" fill="#ffffff"/><path d="M80 -470 L140 -470 L150 -380 L90 -380 Z" fill="#ffffff"/><path d="M200 -470 L260 -470 L270 -380 L210 -380 Z" fill="#ffffff"/><path d="M320 -470 L380 -470 L390 -380 L330 -380 Z" fill="#ffffff"/><path d="M440 -470 L500 -470 L510 -380 L450 -380 Z" fill="#ffffff"/><path d="M560 -470 L620 -470 L630 -380 L570 -380 Z" fill="#ffffff"/><path d="M680 -470 L740 -470 L750 -380 L690 -380 Z" fill="#ffffff"/><path d="M800 -470 L860 -470 L870 -380 L810 -380 Z" fill="#ffffff"/><path d="M920 -470 L980 -470 L990 -380 L930 -380 Z" fill="#ffffff"/><path d="M-40 -380 q60 34 120 0 Z" fill="#ffffff"/><path d="M80 -380 q60 34 120 0 Z" fill="#2a9d8f"/><path d="M200 -380 q60 34 120 0 Z" fill="#ffffff"/><path d="M320 -380 q60 34 120 0 Z" fill="#2a9d8f"/><path d="M440 -380 q60 34 120 0 Z" fill="#ffffff"/><path d="M560 -380 q60 34 120 0 Z" fill="#2a9d8f"/><path d="M680 -380 q60 34 120 0 Z" fill="#ffffff"/><path d="M800 -380 q60 34 120 0 Z" fill="#2a9d8f"/><path d="M920 -380 q60 34 120 0 Z" fill="#ffffff"/><rect x="260" y="-630" width="440" height="150" rx="24" ry="24" fill="#ffffff"/><rect x="260" y="-630" width="440" height="150" rx="24" ry="24" fill="none" stroke="#1d6f86" stroke-width="10"/><rect x="470" y="-480" width="20" height="10" fill="#1d6f86"/><rect x="880" y="-560" width="8" height="180" fill="#8a8f99"/><rect x="888" y="-560" width="90" height="110" fill="#ffffff"/><path d="M888 -500 q20 -24 45 0 t45 0 L978 -450 L888 -450 Z" fill="#3a86ff"/></g></g>
<g id="deco_stall" transform="translate(2 110)"><g transform="translate(5 59) scale(0.1)"><rect x="0" y="-300" width="640" height="300" fill="#8d2a1e"/><rect x="0" y="-300" width="640" height="20" fill="#6b1d14"/><rect x="40" y="-260" width="560" height="150" fill="#f0dfbd"/><rect x="80" y="-226" width="220" height="70" rx="10" ry="10" fill="#c8a26a"/><rect x="80" y="-206" width="220" height="8" fill="#a8844e"/><ellipse cx="120" cy="-230" rx="30" ry="22" fill="#fffaf0"/><ellipse cx="112" cy="-238" rx="10" ry="6" fill="#ffffff"/><ellipse cx="190" cy="-230" rx="30" ry="22" fill="#fffaf0"/><ellipse cx="182" cy="-238" rx="10" ry="6" fill="#ffffff"/><ellipse cx="260" cy="-230" rx="30" ry="22" fill="#fffaf0"/><ellipse cx="252" cy="-238" rx="10" ry="6" fill="#ffffff"/><rect x="340" y="-226" width="220" height="70" rx="10" ry="10" fill="#c8a26a"/><rect x="340" y="-206" width="220" height="8" fill="#a8844e"/><ellipse cx="380" cy="-230" rx="30" ry="22" fill="#fffaf0"/><ellipse cx="372" cy="-238" rx="10" ry="6" fill="#ffffff"/><ellipse cx="450" cy="-230" rx="30" ry="22" fill="#fffaf0"/><ellipse cx="442" cy="-238" rx="10" ry="6" fill="#ffffff"/><ellipse cx="520" cy="-230" rx="30" ry="22" fill="#fffaf0"/><ellipse cx="512" cy="-238" rx="10" ry="6" fill="#ffffff"/><rect x="0" y="-110" width="640" height="110" fill="#a8322a"/><rect x="0" y="-110" width="640" height="12" fill="#c9473d"/><path d="M-50 -470 L690 -470 L660 -340 L-20 -340 Z" fill="#c62828"/><rect x="-50" y="-470" width="740" height="16" fill="#ef5350"/><path d="M-20 -340 q50 30 100 0 Z" fill="#c62828"/><path d="M80 -340 q50 30 100 0 Z" fill="#c62828"/><path d="M180 -340 q50 30 100 0 Z" fill="#c62828"/><path d="M280 -340 q50 30 100 0 Z" fill="#c62828"/><path d="M380 -340 q50 30 100 0 Z" fill="#c62828"/><path d="M480 -340 q50 30 100 0 Z" fill="#c62828"/><path d="M580 -340 q50 30 100 0 Z" fill="#c62828"/><rect x="-4" y="-340" width="8" height="240" fill="#6b1d14"/><rect x="636" y="-340" width="8" height="240" fill="#6b1d14"/><path d="M160 -280 q-24 -40 0 -70 q24 -30 0 -60" fill="none" stroke="#ffffff" stroke-width="5" stroke-linecap="round" stroke-linejoin="round" opacity="0.7"/><path d="M420 -280 q-24 -40 0 -70 q24 -30 0 -60" fill="none" stroke="#ffffff" stroke-width="5" stroke-linecap="round" stroke-linejoin="round" opacity="0.7"/></g></g>
<g id="deco_elephant" transform="translate(80 110)"><g transform="translate(2 53) scale(0.1)"><rect x="40" y="-150" width="70" height="150" rx="26" ry="26" fill="#a3acb7"/><rect x="46" y="-18" width="58" height="12" fill="#e6e1d6" opacity="0.7"/><rect x="110" y="-150" width="70" height="150" rx="26" ry="26" fill="#8b95a1"/><rect x="116" y="-18" width="58" height="12" fill="#e6e1d6" opacity="0.7"/><rect x="300" y="-150" width="70" height="150" rx="26" ry="26" fill="#a3acb7"/><rect x="306" y="-18" width="58" height="12" fill="#e6e1d6" opacity="0.7"/><rect x="370" y="-150" width="70" height="150" rx="26" ry="26" fill="#8b95a1"/><rect x="376" y="-18" width="58" height="12" fill="#e6e1d6" opacity="0.7"/><path d="M10 -250 Q-20 -210 -10 -170" fill="none" stroke="#8b95a1" stroke-width="10" stroke-linecap="round" stroke-linejoin="round"/><ellipse cx="220" cy="-250" rx="220" ry="140" fill="#9aa4b0"/><ellipse cx="210" cy="-268" rx="200" ry="118" fill="#a9b2bd"/><ellipse cx="150" cy="-320" rx="90" ry="30" fill="#c4ccd5" opacity="0.8"/><circle cx="470" cy="-300" r="120" fill="#9aa4b0"/><circle cx="462" cy="-312" r="108" fill="#adb6c1"/><path d="M400 -380 C300 -420 280 -240 360 -200 C400 -190 420 -240 420 -300 Z" fill="#8b95a1"/><path d="M396 -360 C320 -390 310 -260 364 -228 C390 -222 404 -260 404 -300 Z" fill="#e8b7c0" opacity="0.6"/><path d="M540 -260 C600 -280 620 -360 600 -480" fill="none" stroke="#9aa4b0" stroke-width="58" stroke-linecap="round" stroke-linejoin="round"/><path d="M548 -262 C604 -284 620 -360 604 -470" fill="none" stroke="#adb6c1" stroke-width="40" stroke-linecap="round" stroke-linejoin="round"/><path d="M572 -300 l24 -6" fill="none" stroke="#8b95a1" stroke-width="4" stroke-linecap="round" stroke-linejoin="round"/><path d="M578 -336 l24 -6" fill="none" stroke="#8b95a1" stroke-width="4" stroke-linecap="round" stroke-linejoin="round"/><path d="M584 -372 l24 -6" fill="none" stroke="#8b95a1" stroke-width="4" stroke-linecap="round" stroke-linejoin="round"/><path d="M590 -408 l24 -6" fill="none" stroke="#8b95a1" stroke-width="4" stroke-linecap="round" stroke-linejoin="round"/><path d="M596 -444 l24 -6" fill="none" stroke="#8b95a1" stroke-width="4" stroke-linecap="round" stroke-linejoin="round"/><ellipse cx="600" cy="-486" rx="30" ry="14" fill="#8b95a1"/><circle cx="500" cy="-340" r="14" fill="#2a2230"/><circle cx="504.9" cy="-344.9" r="4.9" fill="#ffffff"/><path d="M520 -250 Q560 -240 574 -270" fill="none" stroke="#fbf7ee" stroke-width="16" stroke-linecap="round" stroke-linejoin="round"/><ellipse cx="470" cy="-270" rx="26" ry="14" fill="#f4a8b8" opacity="0.6"/></g></g>
<g id="deco_pine" transform="translate(152 110)"><g transform="translate(14 47) scale(0.1)"><path d="M-20 0 C20 -120 -40 -200 20 -330 L44 -326 C0 -200 60 -120 24 0 Z" fill="#6b4a2e"/><path d="M-4 -60 C10 -120 -20 -200 20 -300" fill="none" stroke="#8a6644" stroke-width="6" stroke-linecap="round" stroke-linejoin="round" opacity="0.7"/><ellipse cx="-130" cy="-198" rx="84" ry="44" fill="#1f5a31"/><ellipse cx="-130" cy="-210" rx="79.8" ry="38" fill="#2f7a45"/><ellipse cx="-146.8" cy="-224" rx="50.4" ry="16" fill="#4f9a5c" opacity="0.9"/><path d="M-180.4 -230 l-6 -14 M-180.4 -230 l6 -14" fill="none" stroke="#6fbf6a" stroke-width="3" stroke-linecap="round" stroke-linejoin="round"/><path d="M-146.8 -230 l-6 -14 M-146.8 -230 l6 -14" fill="none" stroke="#6fbf6a" stroke-width="3" stroke-linecap="round" stroke-linejoin="round"/><path d="M-113.2 -230 l-6 -14 M-113.2 -230 l6 -14" fill="none" stroke="#6fbf6a" stroke-width="3" stroke-linecap="round" stroke-linejoin="round"/><path d="M-79.6 -230 l-6 -14 M-79.6 -230 l6 -14" fill="none" stroke="#6fbf6a" stroke-width="3" stroke-linecap="round" stroke-linejoin="round"/><ellipse cx="130" cy="-228" rx="92" ry="44" fill="#1f5a31"/><ellipse cx="130" cy="-240" rx="87.4" ry="38" fill="#2f7a45"/><ellipse cx="111.6" cy="-254" rx="55.2" ry="16" fill="#4f9a5c" opacity="0.9"/><path d="M74.80000000000001 -260 l-6 -14 M74.80000000000001 -260 l6 -14" fill="none" stroke="#6fbf6a" stroke-width="3" stroke-linecap="round" stroke-linejoin="round"/><path d="M111.6 -260 l-6 -14 M111.6 -260 l6 -14" fill="none" stroke="#6fbf6a" stroke-width="3" stroke-linecap="round" stroke-linejoin="round"/><path d="M148.4 -260 l-6 -14 M148.4 -260 l6 -14" fill="none" stroke="#6fbf6a" stroke-width="3" stroke-linecap="round" stroke-linejoin="round"/><path d="M185.2 -260 l-6 -14 M185.2 -260 l6 -14" fill="none" stroke="#6fbf6a" stroke-width="3" stroke-linecap="round" stroke-linejoin="round"/><ellipse cx="-110" cy="-288" rx="120" ry="44" fill="#1f5a31"/><ellipse cx="-110" cy="-300" rx="114" ry="38" fill="#2f7a45"/><ellipse cx="-134" cy="-314" rx="72" ry="16" fill="#4f9a5c" opacity="0.9"/><path d="M-182 -320 l-6 -14 M-182 -320 l6 -14" fill="none" stroke="#6fbf6a" stroke-width="3" stroke-linecap="round" stroke-linejoin="round"/><path d="M-134 -320 l-6 -14 M-134 -320 l6 -14" fill="none" stroke="#6fbf6a" stroke-width="3" stroke-linecap="round" stroke-linejoin="round"/><path d="M-86 -320 l-6 -14 M-86 -320 l6 -14" fill="none" stroke="#6fbf6a" stroke-width="3" stroke-linecap="round" stroke-linejoin="round"/><path d="M-38 -320 l-6 -14 M-38 -320 l6 -14" fill="none" stroke="#6fbf6a" stroke-width="3" stroke-linecap="round" stroke-linejoin="round"/><ellipse cx="90" cy="-338" rx="112" ry="44" fill="#1f5a31"/><ellipse cx="90" cy="-350" rx="106.4" ry="38" fill="#2f7a45"/><ellipse cx="67.6" cy="-364" rx="67.2" ry="16" fill="#4f9a5c" opacity="0.9"/><path d="M22.799999999999997 -370 l-6 -14 M22.799999999999997 -370 l6 -14" fill="none" stroke="#6fbf6a" stroke-width="3" stroke-linecap="round" stroke-linejoin="round"/><path d="M67.6 -370 l-6 -14 M67.6 -370 l6 -14" fill="none" stroke="#6fbf6a" stroke-width="3" stroke-linecap="round" stroke-linejoin="round"/><path d="M112.4 -370 l-6 -14 M112.4 -370 l6 -14" fill="none" stroke="#6fbf6a" stroke-width="3" stroke-linecap="round" stroke-linejoin="round"/><path d="M157.2 -370 l-6 -14 M157.2 -370 l6 -14" fill="none" stroke="#6fbf6a" stroke-width="3" stroke-linecap="round" stroke-linejoin="round"/><ellipse cx="-40" cy="-368" rx="96" ry="44" fill="#1f5a31"/><ellipse cx="-40" cy="-380" rx="91.2" ry="38" fill="#2f7a45"/><ellipse cx="-59.2" cy="-394" rx="57.6" ry="16" fill="#4f9a5c" opacity="0.9"/><path d="M-97.6 -400 l-6 -14 M-97.6 -400 l6 -14" fill="none" stroke="#6fbf6a" stroke-width="3" stroke-linecap="round" stroke-linejoin="round"/><path d="M-59.2 -400 l-6 -14 M-59.2 -400 l6 -14" fill="none" stroke="#6fbf6a" stroke-width="3" stroke-linecap="round" stroke-linejoin="round"/><path d="M-20.799999999999997 -400 l-6 -14 M-20.799999999999997 -400 l6 -14" fill="none" stroke="#6fbf6a" stroke-width="3" stroke-linecap="round" stroke-linejoin="round"/><path d="M17.599999999999994 -400 l-6 -14 M17.599999999999994 -400 l6 -14" fill="none" stroke="#6fbf6a" stroke-width="3" stroke-linecap="round" stroke-linejoin="round"/><ellipse cx="10" cy="-438" rx="96" ry="44" fill="#1f5a31"/><ellipse cx="10" cy="-450" rx="91.2" ry="38" fill="#2f7a45"/><ellipse cx="-9.2" cy="-464" rx="57.6" ry="16" fill="#4f9a5c" opacity="0.9"/><path d="M-47.599999999999994 -470 l-6 -14 M-47.599999999999994 -470 l6 -14" fill="none" stroke="#6fbf6a" stroke-width="3" stroke-linecap="round" stroke-linejoin="round"/><path d="M-9.200000000000003 -470 l-6 -14 M-9.200000000000003 -470 l6 -14" fill="none" stroke="#6fbf6a" stroke-width="3" stroke-linecap="round" stroke-linejoin="round"/><path d="M29.200000000000003 -470 l-6 -14 M29.200000000000003 -470 l6 -14" fill="none" stroke="#6fbf6a" stroke-width="3" stroke-linecap="round" stroke-linejoin="round"/><path d="M67.6 -470 l-6 -14 M67.6 -470 l6 -14" fill="none" stroke="#6fbf6a" stroke-width="3" stroke-linecap="round" stroke-linejoin="round"/></g></g>
<g id="deco_sandcastle" transform="translate(186 110)"><g transform="translate(3 45) scale(0.1)"><path d="M-10 0 L10 -150 L290 -150 L310 0 Z" fill="#e0bd78"/><rect x="10" y="-150" width="280" height="20" fill="#ecd097"/><rect x="30" y="-250" width="90" height="104" fill="#e8c887"/><rect x="104" y="-250" width="16" height="104" fill="#d4ae68"/><rect x="34" y="-270" width="18" height="22" fill="#e8c887"/><rect x="64" y="-270" width="18" height="22" fill="#e8c887"/><rect x="94" y="-270" width="18" height="22" fill="#e8c887"/><rect x="30" y="-250" width="90" height="12" fill="#f4dca8"/><rect x="180" y="-250" width="90" height="104" fill="#e8c887"/><rect x="254" y="-250" width="16" height="104" fill="#d4ae68"/><rect x="184" y="-270" width="18" height="22" fill="#e8c887"/><rect x="214" y="-270" width="18" height="22" fill="#e8c887"/><rect x="244" y="-270" width="18" height="22" fill="#e8c887"/><rect x="180" y="-250" width="90" height="12" fill="#f4dca8"/><rect x="100" y="-330" width="100" height="184" fill="#e8c887"/><rect x="184" y="-330" width="16" height="184" fill="#d4ae68"/><rect x="104" y="-350" width="21.33" height="22" fill="#e8c887"/><rect x="137.33" y="-350" width="21.33" height="22" fill="#e8c887"/><rect x="170.67" y="-350" width="21.33" height="22" fill="#e8c887"/><rect x="100" y="-330" width="100" height="12" fill="#f4dca8"/><rect x="120" y="-90" width="60" height="90" rx="30" ry="30" fill="#b58c4c"/><rect x="148" y="-440" width="6" height="120" fill="#6b4a2e"/><path d="M154 -440 L220 -414 L154 -390 Z" fill="#e63946"/><circle cx="40" cy="-40" r="6" fill="#ffffff" opacity="0.8"/><circle cx="240" cy="-60" r="6" fill="#ffffff" opacity="0.8"/><circle cx="90" cy="-120" r="6" fill="#ffffff" opacity="0.8"/></g></g>
<g id="deco_monument" transform="translate(224 110)"><g transform="translate(12 43) scale(0.1)"><rect x="-60" y="-40" width="120" height="40" rx="8" ry="8" fill="#5d5f70"/><path d="M-24 -40 L-14 -250 L14 -250 L24 -40 Z" fill="#8a8ca0"/><path d="M-24 -40 L-14 -250 L-4 -250 L-6 -40 Z" fill="#b0b2c4"/><polygon points="0,-420 23.51,-362.36 85.6,-357.81 38.04,-317.64 52.9,-257.19 0,-290 -52.9,-257.19 -38.04,-317.64 -85.6,-357.81 -23.51,-362.36" fill="#ffd54f"/><polygon points="-6,-384 6.93,-353.8 39.65,-350.83 14.92,-329.2 22.21,-297.17 -6,-314 -34.21,-297.17 -26.92,-329.2 -51.65,-350.83 -18.93,-353.8" fill="#fff6c2"/></g></g>
<g id="deco_gateRoof" transform="translate(252 110)"><g transform="translate(12 4) scale(0.1)"><path d="M-110 60 Q-60 20 0 10 L1280 10 Q1340 20 1390 60 L1330 110 L-50 110 Z" fill="#1f6b4c"/><path d="M-100 54 Q-56 22 0 16 L1280 16 Q1336 22 1380 54 L1320 80 L-40 80 Z" fill="#2e8a64"/><rect x="10" y="20" width="10" height="80" fill="#1f6b4c" opacity="0.6"/><rect x="90" y="20" width="10" height="80" fill="#1f6b4c" opacity="0.6"/><rect x="170" y="20" width="10" height="80" fill="#1f6b4c" opacity="0.6"/><rect x="250" y="20" width="10" height="80" fill="#1f6b4c" opacity="0.6"/><rect x="330" y="20" width="10" height="80" fill="#1f6b4c" opacity="0.6"/><rect x="410" y="20" width="10" height="80" fill="#1f6b4c" opacity="0.6"/><rect x="490" y="20" width="10" height="80" fill="#1f6b4c" opacity="0.6"/><rect x="570" y="20" width="10" height="80" fill="#1f6b4c" opacity="0.6"/><rect x="650" y="20" width="10" height="80" fill="#1f6b4c" opacity="0.6"/><rect x="730" y="20" width="10" height="80" fill="#1f6b4c" opacity="0.6"/><rect x="810" y="20" width="10" height="80" fill="#1f6b4c" opacity="0.6"/><rect x="890" y="20" width="10" height="80" fill="#1f6b4c" opacity="0.6"/><rect x="970" y="20" width="10" height="80" fill="#1f6b4c" opacity="0.6"/><rect x="1050" y="20" width="10" height="80" fill="#1f6b4c" opacity="0.6"/><rect x="1130" y="20" width="10" height="80" fill="#1f6b4c" opacity="0.6"/><rect x="1210" y="20" width="10" height="80" fill="#1f6b4c" opacity="0.6"/><rect x="-40" y="0" width="1360" height="28" fill="#3aa878"/><rect x="-40" y="0" width="1360" height="8" fill="#7fd6ae"/><circle cx="-100" cy="44" r="24" fill="#ffd54f"/><circle cx="1380" cy="44" r="24" fill="#ffd54f"/><rect x="-20" y="110" width="1320" height="40" fill="#8e1b1b"/><rect x="-20" y="110" width="1320" height="10" fill="#ffd54f"/><rect x="-20" y="140" width="1320" height="10" fill="#ffd54f"/><rect x="380" y="150" width="520" height="150" rx="16" ry="16" fill="#8e1b1b"/><rect x="396" y="164" width="488" height="122" rx="10" ry="10" fill="#ffd54f"/><rect x="40" y="250" width="1200" height="50" fill="#b71c1c"/><rect x="40" y="250" width="1200" height="10" fill="#ef5350"/><path d="M80 300 l20 40 l20 -40 Z" fill="#ffd54f"/><path d="M160 300 l20 40 l20 -40 Z" fill="#ffd54f"/><path d="M1120 300 l20 40 l20 -40 Z" fill="#ffd54f"/><path d="M1200 300 l20 40 l20 -40 Z" fill="#ffd54f"/></g></g>
<g id="deco_flamingo" transform="translate(408 110)"><g transform="translate(8 35) scale(0.1)"><path d="M0 0 L0 -140 M0 -100 L-20 -120 L0 -140" fill="none" stroke="#e87a9a" stroke-width="5" stroke-linecap="round" stroke-linejoin="round"/><ellipse cx="4" cy="-170" rx="64" ry="38" fill="#f48fb1" transform="rotate(-12 4 -170)"/><ellipse cx="-10" cy="-176" rx="44" ry="24" fill="#f7a8c4" transform="rotate(-12 -10 -176)"/><path d="M-40 -160 Q-70 -150 -64 -130 Q-40 -150 -20 -150 Z" fill="#e0708f"/><path d="M50 -180 Q90 -240 50 -290 Q30 -320 60 -330" fill="none" stroke="#f48fb1" stroke-width="16" stroke-linecap="round" stroke-linejoin="round"/><circle cx="64" cy="-326" r="22" fill="#f48fb1"/><circle cx="70" cy="-330" r="5" fill="#2a2230"/><circle cx="71.75" cy="-331.75" r="1.75" fill="#ffffff"/><path d="M80 -326 Q110 -320 104 -296 Q96 -306 82 -312 Z" fill="#2a2230"/><path d="M80 -326 Q100 -324 100 -312 L86 -314 Z" fill="#fff2e0"/></g></g>
<g id="deco_shinNose" transform="translate(2 174)"><g transform="translate(0 29) scale(0.1)"><path d="M0 -270 L320 -270 C520 -266 720 -150 800 -40 L800 -20 L0 -20 Z" fill="#f6f8fa"/><path d="M0 -270 L320 -270 C440 -268 540 -230 620 -180 L0 -180 Z" fill="#ffffff" opacity="0.6"/><path d="M0 -100 L700 -100 C720 -90 740 -76 760 -60 L0 -60 Z" fill="#d9dee5"/><path d="M0 -100 L690 -100 L704 -80 L0 -80 Z" fill="#1f4fb4"/><rect x="0" y="-128" width="560" height="7" fill="#1f4fb4"/><rect x="40" y="-214" width="70" height="50" rx="10" ry="10" fill="#2c3a52"/><rect x="160" y="-214" width="70" height="50" rx="10" ry="10" fill="#2c3a52"/><path d="M380 -234 C460 -232 540 -200 580 -170 L420 -170 Z" fill="#2c3a52"/><path d="M400 -226 L450 -226 L420 -186 L400 -186 Z" fill="#ffffff" opacity="0.35"/><ellipse cx="720" cy="-64" rx="20" ry="8" fill="#fff6c0"/><rect x="0" y="-20" width="800" height="20" fill="#5d6470"/></g></g>
<g id="deco_shinCar" transform="translate(90 174)"><g transform="translate(0 29) scale(0.1)"><rect x="0" y="-270" width="660" height="250" fill="#f6f8fa"/><rect x="0" y="-270" width="660" height="30" fill="#ffffff"/><rect x="0" y="-60" width="660" height="40" fill="#d9dee5"/><rect x="0" y="-100" width="660" height="22" fill="#1f4fb4"/><rect x="0" y="-128" width="660" height="7" fill="#1f4fb4"/><rect x="40" y="-214" width="70" height="50" rx="10" ry="10" fill="#2c3a52"/><rect x="160" y="-214" width="70" height="50" rx="10" ry="10" fill="#2c3a52"/><rect x="280" y="-214" width="70" height="50" rx="10" ry="10" fill="#2c3a52"/><rect x="400" y="-214" width="70" height="50" rx="10" ry="10" fill="#2c3a52"/><rect x="520" y="-214" width="70" height="50" rx="10" ry="10" fill="#2c3a52"/><path d="M48 -208 L72 -208 L48 -176 Z" fill="#ffffff" opacity="0.35"/><path d="M168 -208 L192 -208 L168 -176 Z" fill="#ffffff" opacity="0.35"/><path d="M288 -208 L312 -208 L288 -176 Z" fill="#ffffff" opacity="0.35"/><path d="M408 -208 L432 -208 L408 -176 Z" fill="#ffffff" opacity="0.35"/><path d="M528 -208 L552 -208 L528 -176 Z" fill="#ffffff" opacity="0.35"/><rect x="652" y="-270" width="8" height="250" fill="#b8c0ca"/><rect x="0" y="-20" width="660" height="20" fill="#5d6470"/></g></g>
<g id="deco_sakura" transform="translate(160 174)"><g transform="translate(15 31) scale(0.1)"><path d="M-14 0 C-10 -60 -20 -100 -40 -140 M-6 -60 C10 -110 30 -130 50 -150" fill="none" stroke="#7a5236" stroke-width="22" stroke-linecap="round" stroke-linejoin="round"/><path d="M-12 0 L-6 -120 L10 -120 L12 0 Z" fill="#7a5236"/><circle cx="-20.91" cy="-259.18" r="34.73" fill="#f9c6d9"/><circle cx="1.3" cy="-198.95" r="36.19" fill="#f4a8c6"/><circle cx="-16.92" cy="-226.91" r="47.49" fill="#fbd9e6"/><circle cx="58.34" cy="-242.83" r="44.08" fill="#f9c6d9"/><circle cx="-14.4" cy="-189.76" r="38.06" fill="#f4a8c6"/><circle cx="32.63" cy="-154.08" r="45.45" fill="#fbd9e6"/><circle cx="25.29" cy="-138.25" r="46.6" fill="#f9c6d9"/><circle cx="-15.47" cy="-233.55" r="36.81" fill="#f4a8c6"/><circle cx="-57.02" cy="-258.53" r="36.33" fill="#fbd9e6"/><circle cx="-7.15" cy="-224.03" r="47.44" fill="#f9c6d9"/><circle cx="-17.77" cy="-158.9" r="41.69" fill="#f4a8c6"/><circle cx="-107.58" cy="-195.39" r="42.28" fill="#fbd9e6"/><circle cx="104.76" cy="-198.33" r="41.87" fill="#f9c6d9"/><circle cx="-12.84" cy="-252.74" r="48.43" fill="#f4a8c6"/><circle cx="25.37" cy="-195.1" r="40.95" fill="#fbd9e6"/><circle cx="49.87" cy="-137.03" r="45.48" fill="#f9c6d9"/><circle cx="-75.47" cy="-245.21" r="48.22" fill="#f4a8c6"/><circle cx="12.9" cy="-261.89" r="40.92" fill="#fbd9e6"/><circle cx="-78.32" cy="-146.76" r="39.71" fill="#f9c6d9"/><circle cx="1.92" cy="-217.8" r="44.19" fill="#f4a8c6"/><circle cx="68.34" cy="-251.31" r="39.75" fill="#fbd9e6"/><circle cx="-78.45" cy="-225.68" r="45.69" fill="#f9c6d9"/><circle cx="42.17" cy="-196.69" r="34.47" fill="#f4a8c6"/><circle cx="-2.24" cy="-234.25" r="40.72" fill="#fbd9e6"/><circle cx="-42.25" cy="-186.55" r="34.01" fill="#f9c6d9"/><circle cx="-79.97" cy="-184.77" r="48.9" fill="#f4a8c6"/><circle cx="-29.08" cy="-242.15" r="4.21" fill="#ffffff" opacity="0.8"/><circle cx="-7.18" cy="-176.06" r="6.74" fill="#ffffff" opacity="0.8"/><circle cx="-72.97" cy="-239.79" r="7.1" fill="#ffffff" opacity="0.8"/><circle cx="37.9" cy="-235.68" r="6.41" fill="#ffffff" opacity="0.8"/><circle cx="80.8" cy="-207.68" r="6.38" fill="#ffffff" opacity="0.8"/><circle cx="-56.9" cy="-244.7" r="4.13" fill="#ffffff" opacity="0.8"/><circle cx="-24.75" cy="-172.74" r="6.22" fill="#ffffff" opacity="0.8"/><circle cx="89.73" cy="-218.61" r="4.77" fill="#ffffff" opacity="0.8"/><circle cx="-60.73" cy="-198.22" r="7.67" fill="#ffffff" opacity="0.8"/><circle cx="-15.77" cy="-230.8" r="7.06" fill="#ffffff" opacity="0.8"/><circle cx="-31.9" cy="-217.99" r="7.38" fill="#ffffff" opacity="0.8"/><circle cx="71.31" cy="-247.54" r="7.66" fill="#ffffff" opacity="0.8"/><circle cx="38.79" cy="-227.09" r="6.84" fill="#ffffff" opacity="0.8"/><circle cx="-8.6" cy="-232.83" r="4.39" fill="#ffffff" opacity="0.8"/><circle cx="64.55" cy="-190.74" r="4.41" fill="#ffffff" opacity="0.8"/><circle cx="12.67" cy="-203.3" r="4.74" fill="#ffffff" opacity="0.8"/><circle cx="60" cy="-150" r="26" fill="#e98fb2" opacity="0.5"/><circle cx="-70" cy="-160" r="26" fill="#e98fb2" opacity="0.5"/><circle cx="0" cy="-140" r="26" fill="#e98fb2" opacity="0.5"/></g></g>
<g id="bg_hankyu" transform="translate(194 174)"><g transform="translate(0 21) scale(0.1)"><rect x="0" y="-200" width="690" height="190" rx="24" ry="24" fill="#6e1826"/><rect x="0" y="-200" width="690" height="40" rx="20" ry="20" fill="#efe5d2"/><rect x="0" y="-168" width="690" height="12" fill="#efe5d2"/><rect x="34" y="-140" width="86" height="58" rx="8" ry="8" fill="#d9eef8"/><path d="M40 -134 L70 -134 L40 -96 Z" fill="#ffffff" opacity="0.6"/><rect x="162" y="-140" width="86" height="58" rx="8" ry="8" fill="#d9eef8"/><path d="M168 -134 L198 -134 L168 -96 Z" fill="#ffffff" opacity="0.6"/><rect x="290" y="-140" width="86" height="58" rx="8" ry="8" fill="#d9eef8"/><path d="M296 -134 L326 -134 L296 -96 Z" fill="#ffffff" opacity="0.6"/><rect x="418" y="-140" width="86" height="58" rx="8" ry="8" fill="#d9eef8"/><path d="M424 -134 L454 -134 L424 -96 Z" fill="#ffffff" opacity="0.6"/><rect x="546" y="-140" width="86" height="58" rx="8" ry="8" fill="#d9eef8"/><path d="M552 -134 L582 -134 L552 -96 Z" fill="#ffffff" opacity="0.6"/><rect x="250" y="-146" width="22" height="120" rx="4" ry="4" fill="#5a1320"/><rect x="506" y="-146" width="22" height="120" rx="4" ry="4" fill="#5a1320"/><rect x="0" y="-60" width="690" height="8" fill="#8c2433"/><rect x="0" y="-12" width="690" height="12" fill="#3a3a40"/><path d="M330 -200 L350 -236 L370 -200 M340 -236 L360 -236" fill="none" stroke="#3a3a40" stroke-width="5" stroke-linecap="round" stroke-linejoin="round"/><rect x="684" y="-190" width="6" height="170" fill="#5a1320"/></g></g>
<g id="deco_parasol0" transform="translate(268 174)"><g transform="translate(7 12) scale(0.1)"><path d="M-50 70 Q160 -150 370 70 Z" fill="#bf4447" transform="translate(0 8)"/><path d="M160 -70 L-50 70 Q-15 50 20 70 Z" fill="#ff5a5f"/><path d="M160 -70 L20 70 Q55 50 90 70 Z" fill="#ffffff"/><path d="M160 -70 L90 70 Q125 50 160 70 Z" fill="#ff5a5f"/><path d="M160 -70 L160 70 Q195 50 230 70 Z" fill="#ffffff"/><path d="M160 -70 L230 70 Q265 50 300 70 Z" fill="#ff5a5f"/><path d="M160 -70 L300 70 Q335 50 370 70 Z" fill="#ffffff"/><path d="M-50 70 Q160 -150 370 70" fill="none" stroke="#ffffff" stroke-width="4" stroke-linecap="round" stroke-linejoin="round" opacity="0.5"/><circle cx="160" cy="-76" r="14" fill="#ffffff"/><circle cx="160" cy="-76" r="7" fill="#ff5a5f"/></g></g>
<g id="deco_parasol1" transform="translate(318 174)"><g transform="translate(7 12) scale(0.1)"><path d="M-50 70 Q160 -150 370 70 Z" fill="#239389" transform="translate(0 8)"/><path d="M160 -70 L-50 70 Q-15 50 20 70 Z" fill="#2ec4b6"/><path d="M160 -70 L20 70 Q55 50 90 70 Z" fill="#ffffff"/><path d="M160 -70 L90 70 Q125 50 160 70 Z" fill="#2ec4b6"/><path d="M160 -70 L160 70 Q195 50 230 70 Z" fill="#ffffff"/><path d="M160 -70 L230 70 Q265 50 300 70 Z" fill="#2ec4b6"/><path d="M160 -70 L300 70 Q335 50 370 70 Z" fill="#ffffff"/><path d="M-50 70 Q160 -150 370 70" fill="none" stroke="#ffffff" stroke-width="4" stroke-linecap="round" stroke-linejoin="round" opacity="0.5"/><circle cx="160" cy="-76" r="14" fill="#ffffff"/><circle cx="160" cy="-76" r="7" fill="#2ec4b6"/></g></g>
<g id="deco_parasol2" transform="translate(368 174)"><g transform="translate(7 12) scale(0.1)"><path d="M-50 70 Q160 -150 370 70 Z" fill="#bf8902" transform="translate(0 8)"/><path d="M160 -70 L-50 70 Q-15 50 20 70 Z" fill="#ffb703"/><path d="M160 -70 L20 70 Q55 50 90 70 Z" fill="#ffffff"/><path d="M160 -70 L90 70 Q125 50 160 70 Z" fill="#ffb703"/><path d="M160 -70 L160 70 Q195 50 230 70 Z" fill="#ffffff"/><path d="M160 -70 L230 70 Q265 50 300 70 Z" fill="#ffb703"/><path d="M160 -70 L300 70 Q335 50 370 70 Z" fill="#ffffff"/><path d="M-50 70 Q160 -150 370 70" fill="none" stroke="#ffffff" stroke-width="4" stroke-linecap="round" stroke-linejoin="round" opacity="0.5"/><circle cx="160" cy="-76" r="14" fill="#ffffff"/><circle cx="160" cy="-76" r="7" fill="#ffb703"/></g></g>
<g id="deco_parasol3" transform="translate(418 174)"><g transform="translate(7 12) scale(0.1)"><path d="M-50 70 Q160 -150 370 70 Z" fill="#2c65bf" transform="translate(0 8)"/><path d="M160 -70 L-50 70 Q-15 50 20 70 Z" fill="#3a86ff"/><path d="M160 -70 L20 70 Q55 50 90 70 Z" fill="#ffe066"/><path d="M160 -70 L90 70 Q125 50 160 70 Z" fill="#3a86ff"/><path d="M160 -70 L160 70 Q195 50 230 70 Z" fill="#ffe066"/><path d="M160 -70 L230 70 Q265 50 300 70 Z" fill="#3a86ff"/><path d="M160 -70 L300 70 Q335 50 370 70 Z" fill="#ffe066"/><path d="M-50 70 Q160 -150 370 70" fill="none" stroke="#ffffff" stroke-width="4" stroke-linecap="round" stroke-linejoin="round" opacity="0.5"/><circle cx="160" cy="-76" r="14" fill="#ffffff"/><circle cx="160" cy="-76" r="7" fill="#3a86ff"/></g></g>
<g id="deco_sheep" transform="translate(468 174)"><g transform="translate(10 17) scale(0.1)"><rect x="-50" y="-60" width="16" height="60" fill="#3b3b3b"/><rect x="30" y="-60" width="16" height="60" fill="#3b3b3b"/><circle cx="-50" cy="-90" r="44" fill="#d9d3c4"/><circle cx="0" cy="-110" r="48" fill="#d9d3c4"/><circle cx="46" cy="-90" r="42" fill="#d9d3c4"/><circle cx="-20" cy="-70" r="42" fill="#d9d3c4"/><circle cx="26" cy="-68" r="42" fill="#d9d3c4"/><circle cx="-60" cy="-64" r="32" fill="#d9d3c4"/><circle cx="-50" cy="-94" r="40" fill="#f7f3e8"/><circle cx="0" cy="-114" r="44" fill="#f7f3e8"/><circle cx="46" cy="-94" r="38" fill="#f7f3e8"/><circle cx="-20" cy="-74" r="38" fill="#f7f3e8"/><circle cx="26" cy="-72" r="38" fill="#f7f3e8"/><circle cx="-60" cy="-68" r="28" fill="#f7f3e8"/><ellipse cx="90" cy="-100" rx="30" ry="36" fill="#3b3b3b" transform="rotate(12 90 -100)"/><ellipse cx="70" cy="-120" rx="16" ry="8" fill="#3b3b3b" transform="rotate(-30 70 -120)"/><circle cx="98" cy="-106" r="6" fill="#ffffff"/><circle cx="100" cy="-106" r="3" fill="#2a2230"/><circle cx="-20" cy="-130" r="12" fill="#ffffff"/><circle cx="30" cy="-140" r="12" fill="#ffffff"/><circle cx="-60" cy="-110" r="12" fill="#ffffff"/></g></g>
<g id="deco_towerTop" transform="translate(2 210)"><g transform="translate(5 15) scale(0.1)"><rect x="-40" y="-60" width="400" height="60" fill="#e8f0ed"/><rect x="-40" y="-60" width="400" height="14" fill="#ffffff"/><rect x="-40" y="-10" width="400" height="10" fill="#b9ccc6"/><rect x="150" y="-110" width="20" height="50" fill="#b9ccc6"/><circle cx="160" cy="-118" r="22" fill="#e0443a"/><circle cx="160" cy="-118" r="40" fill="#ff6a5a" opacity="0.3"/></g></g>
<g id="deco_lantern" transform="translate(52 210)"><g transform="translate(4.5 1) scale(0.1)"><rect x="-2" y="0" width="4" height="10" fill="#3b2a1a"/><rect x="-22" y="8" width="44" height="12" rx="4" ry="4" fill="#2b2b2b"/><ellipse cx="0" cy="58" rx="40" ry="44" fill="#c62828"/><ellipse cx="-2" cy="56" rx="34" ry="38" fill="#ff5a4a"/><ellipse cx="-14" cy="46" rx="8" ry="16" fill="#ffb09a" opacity="0.7"/><path d="M-34 36 Q0 42 34 36" fill="none" stroke="#a8261f" stroke-width="2.5" stroke-linecap="round" stroke-linejoin="round" opacity="0.6"/><path d="M-34 58 Q0 64 34 58" fill="none" stroke="#a8261f" stroke-width="2.5" stroke-linecap="round" stroke-linejoin="round" opacity="0.6"/><path d="M-34 80 Q0 86 34 80" fill="none" stroke="#a8261f" stroke-width="2.5" stroke-linecap="round" stroke-linejoin="round" opacity="0.6"/><rect x="-22" y="96" width="44" height="12" rx="4" ry="4" fill="#2b2b2b"/><rect x="-3" y="108" width="6" height="20" fill="#ffd54f"/></g></g></svg>