<svg xmlns="http://www.w3.org/2000/svg" viewBox="0 0 512 71" width="512" height="71" xmlns:c2pa="http://c2pa.org/manifest"><metadata><c2pa:manifest>AAAWgmp1bWIAAAAeanVtZGMycGEAEQAQgAAAqgA4m3EDYzJwYQAAABZcanVtYgAAAEdqdW1kYzJtYQARABCAAACqADibcQN1cm46YzJwYTo2YzBhMDcwMC1kOTY3LTQxZmMtYWM2ZS1mNjliMDk4ZDYzZTQAAAADl2p1bWIAAAApanVtZGMyYXMAEQAQgAAAqgA4m3EDYzJwYS5hc3NlcnRpb25zAAAAALxqdW1iAAAARGp1bWRjYm9yABEAEIAAAKoAOJtxE2MycGEuaW5ncmVkaWVudC52MwAAAAAYYzJzaKHy6qXqkWxDiZNLK06EFVAAAABwY2JvcqNpZGM6Zm9ybWF0bWltYWdlL3N2Zyt4bWxqaW5zdGFuY2VJRHgseG1wOmlpZDo0ZGFiNzViMy05YWY1LTQ3Y2QtYTM4Ni04M2QwZDE0NDliODZscmVsYXRpb25zaGlwaHBhcmVudE9mAAAB4mp1bWIAAABBanVtZGNib3IAEQAQgAAAqgA4m3ETYzJwYS5hY3Rpb25zLnYyAAAAABhjMnNotGTkNoiqrILJAh7d+7yQowAAAZljYm9yomdhY3Rpb25zgqJmYWN0aW9ua2MycGEub3BlbmVkanBhcmFtZXRlcnOha2luZ3JlZGllbnRzgaJjdXJseC1zZWxmI2p1bWJmPWMycGEuYXNzZXJ0aW9ucy9jMnBhLmluZ3JlZGllbnQudjNkaGFzaFgg5DGFs3F6IE7hWAVBD3q9umZ6puKZv2Nrxdvizbxg+PqkZmFjdGlvbngdY29tLmFudGhyb3BpYy5jbGF1ZGUucHJvdmlkZWRqcGFyYW1ldGVyc6F4H2NvbS5hbnRocm9waWMub3JpZ2luLWNvbmZpZGVuY2VndW5rbm93bmtkZXNjcmlwdGlvbnhmQ2xhdWRlIHByb3ZpZGVkIHRoaXMgZmlsZSBhdCB0aGUgcmVxdWVzdCBvZiBhIHVzZXIgYW5kIG1heSBoYXZlIGNyZWF0ZWQgb3IgbW9kaWZpZWQgdGhlIGZpbGUgY29udGVudHMubXNvZnR3YXJlQWdlbnShZG5hbWVmQ2xhdWRlcmFsbEFjdGlvbnNJbmNsdWRlZPUAAADIanVtYgAAAEBqdW1kY2JvcgARABCAAACqADibcRNjMnBhLmhhc2guZGF0YQAAAAAYYzJzaD6EDtTV73vX27cHEiT4pU8AAACAY2JvcqVjYWxnZnNoYTI1NmNwYWRNAAAAAAAAAAAAAAAAAGRoYXNoWCAC8TF0yKQp+enXJSAuJfzKdGYZkGUvd3XmyeMQ3WNclGRuYW1lbmp1bWJmIG1hbmlmZXN0amV4Y2x1c2lvbnOBomVzdGFydBiUZmxlbmd0aBkeBAAAAj5qdW1iAAAAJ2p1bWRjMmNsABEAEIAAAKoAOJtxA2MycGEuY2xhaW0udjIAAAACD2Nib3KlY2FsZ2ZzaGEyNTZpc2lnbmF0dXJleE1zZWxmI2p1bWJmPS9jMnBhL3VybjpjMnBhOjZjMGEwNzAwLWQ5NjctNDFmYy1hYzZlLWY2OWIwOThkNjNlNC9jMnBhLnNpZ25hdHVyZWppbnN0YW5jZUlEeCx4bXA6aWlkOjE3ZTM5NWIzLWQ5YjItNGE1Mi05NjNlLTRhYWY4NDE2M2FlZXJjcmVhdGVkX2Fzc2VydGlvbnODomN1cmx4LXNlbGYjanVtYmY9YzJwYS5hc3NlcnRpb25zL2MycGEuaW5ncmVkaWVudC52M2RoYXNoWCDkMYWzcXogTuFYBUEPer26Znqm4pm/Y2vF2+LNvGD4+qJjdXJseCpzZWxmI2p1bWJmPWMycGEuYXNzZXJ0aW9ucy9jMnBhLmFjdGlvbnMudjJkaGFzaFggF2Lf6VQRK6VC2t7q+eba5O+rgD7nKWQ0A2S2ib+FeHiiY3VybHgpc2VsZiNqdW1iZj1jMnBhLmFzc2VydGlvbnMvYzJwYS5oYXNoLmRhdGFkaGFzaFgge+tDI7Y6LM37dXl4dreIRhiGkCR81NtyWOKT0PzTg+R0Y2xhaW1fZ2VuZXJhdG9yX2luZm+jZG5hbWVvQW50aHJvcGljIEZpbGVzZ3ZlcnNpb25lMS4wLjBrc3BlY1ZlcnNpb25lMi40LjAAABA4anVtYgAAAChqdW1kYzJjcwARABCAAACqADibcQNjMnBhLnNpZ25hdHVyZQAAABAIY2JvctKEWQISogEmGCFZAgowggIGMIIBjaADAgECAhRA5aAK7sI50L64g/oGQgU9Z1UTADAKBggqhkjOPQQDAzBJMRcwFQYDVQQKEw5BbnRocm9waWMsIFBCQzEuMCwGA1UEAxMlQW50aHJvcGljIENvbnRlbnQgQ3JlZGVudGlhbHMgUm9vdCBDQTAeFw0yNjA4MDcxODQzNTZaFw0yODA4MDYxOTQzNTZaMEQxFzAVBgNVBAoTDkFudGhyb3BpYywgUEJDMSkwJwYDVQQDEyBBbnRocm9waWMgQ2xhdWRlIENvbnRlbnQgU2lnbmluZzBZMBMGByqGSM49AgEGCCqGSM49AwEHA0IABJh6CmvLUBgFFNU0vUKlOVtE6djd17L5SuwX0LemFisBM3dkd/3cyjxFA3Qo5S46fX0/ihY0VZ7mfb9KF703t5OjWDBWMA4GA1UdDwEB/wQEAwIHgDAVBgNVHSUEDjAMBgorBgEEAYPoXgIBMAwGA1UdEwEB/wQCMAAwHwYDVR0jBBgwFoAUzlHiBIFOZFsj+OPEz5o+nMHXXMIwCgYIKoZIzj0EAwMDZwAwZAIwMXMdFJ4BetLLVY7ORuE9noqbbAZOZn/aArXyTwFAZfKrPzxF2vPoJNf1+UCdg1XGAjBwX1zd9WGqYkqmL5SFqw1QySjr1zJfpJM9+1rdDwSPLMOPOjKuiXjoU/pUUeG9RwmhY3BhZFkNngAAAAAAAAAAAAAAAAAAAAAAAAAAAAAAAAAAAAAAAAAAAAAAAAAAAAAAAAAAAAAAAAAAAAAAAAAAAAAAAAAAAAAAAAAAAAAAAAAAAAAAAAAAAAAAAAAAAAAAAAAAAAAAAAAAAAAAAAAAAAAAAAAAAAAAAAAAAAAAAAAAAAAAAAAAAAAAAAAAAAAAAAAAAAAAAAAAAAAAAAAAAAAAAAAAAAAAAAAAAAAAAAAAAAAAAAAAAAAAAAAAAAAAAAAAAAAAAAAAAAAAAAAAAAAAAAAAAAAAAAAAAAAAAAAAAAAAAAAAAAAAAAAAAAAAAAAAAAAAAAAAAAAAAAAAAAAAAAAAAAAAAAAAAAAAAAAAAAAAAAAAAAAAAAAAAAAAAAAAAAAAAAAAAAAAAAAAAAAAAAAAAAAAAAAAAAAAAAAAAAAAAAAAAAAAAAAAAAAAAAAAAAAAAAAAAAAAAAAAAAAAAAAAAAAAAAAAAAAAAAAAAAAAAAAAAAAAAAAAAAAAAAAAAAAAAAAAAAAAAAAAAAAAAAAAAAAAAAAAAAAAAAAAAAAAAAAAAAAAAAAAAAAAAAAAAAAAAAAAAAAAAAAAAAAAAAAAAAAAAAAAAAAAAAAAAAAAAAAAAAAAAAAAAAAAAAAAAAAAAAAAAAAAAAAAAAAAAAAAAAAAAAAAAAAAAAAAAAAAAAAAAAAAAAAAAAAAAAAAAAAAAAAAAAAAAAAAAAAAAAAAAAAAAAAAAAAAAAAAAAAAAAAAAAAAAAAAAAAAAAAAAAAAAAAAAAAAAAAAAAAAAAAAAAAAAAAAAAAAAAAAAAAAAAAAAAAAAAAAAAAAAAAAAAAAAAAAAAAAAAAAAAAAAAAAAAAAAAAAAAAAAAAAAAAAAAAAAAAAAAAAAAAAAAAAAAAAAAAAAAAAAAAAAAAAAAAAAAAAAAAAAAAAAAAAAAAAAAAAAAAAAAAAAAAAAAAAAAAAAAAAAAAAAAAAAAAAAAAAAAAAAAAAAAAAAAAAAAAAAAAAAAAAAAAAAAAAAAAAAAAAAAAAAAAAAAAAAAAAAAAAAAAAAAAAAAAAAAAAAAAAAAAAAAAAAAAAAAAAAAAAAAAAAAAAAAAAAAAAAAAAAAAAAAAAAAAAAAAAAAAAAAAAAAAAAAAAAAAAAAAAAAAAAAAAAAAAAAAAAAAAAAAAAAAAAAAAAAAAAAAAAAAAAAAAAAAAAAAAAAAAAAAAAAAAAAAAAAAAAAAAAAAAAAAAAAAAAAAAAAAAAAAAAAAAAAAAAAAAAAAAAAAAAAAAAAAAAAAAAAAAAAAAAAAAAAAAAAAAAAAAAAAAAAAAAAAAAAAAAAAAAAAAAAAAAAAAAAAAAAAAAAAAAAAAAAAAAAAAAAAAAAAAAAAAAAAAAAAAAAAAAAAAAAAAAAAAAAAAAAAAAAAAAAAAAAAAAAAAAAAAAAAAAAAAAAAAAAAAAAAAAAAAAAAAAAAAAAAAAAAAAAAAAAAAAAAAAAAAAAAAAAAAAAAAAAAAAAAAAAAAAAAAAAAAAAAAAAAAAAAAAAAAAAAAAAAAAAAAAAAAAAAAAAAAAAAAAAAAAAAAAAAAAAAAAAAAAAAAAAAAAAAAAAAAAAAAAAAAAAAAAAAAAAAAAAAAAAAAAAAAAAAAAAAAAAAAAAAAAAAAAAAAAAAAAAAAAAAAAAAAAAAAAAAAAAAAAAAAAAAAAAAAAAAAAAAAAAAAAAAAAAAAAAAAAAAAAAAAAAAAAAAAAAAAAAAAAAAAAAAAAAAAAAAAAAAAAAAAAAAAAAAAAAAAAAAAAAAAAAAAAAAAAAAAAAAAAAAAAAAAAAAAAAAAAAAAAAAAAAAAAAAAAAAAAAAAAAAAAAAAAAAAAAAAAAAAAAAAAAAAAAAAAAAAAAAAAAAAAAAAAAAAAAAAAAAAAAAAAAAAAAAAAAAAAAAAAAAAAAAAAAAAAAAAAAAAAAAAAAAAAAAAAAAAAAAAAAAAAAAAAAAAAAAAAAAAAAAAAAAAAAAAAAAAAAAAAAAAAAAAAAAAAAAAAAAAAAAAAAAAAAAAAAAAAAAAAAAAAAAAAAAAAAAAAAAAAAAAAAAAAAAAAAAAAAAAAAAAAAAAAAAAAAAAAAAAAAAAAAAAAAAAAAAAAAAAAAAAAAAAAAAAAAAAAAAAAAAAAAAAAAAAAAAAAAAAAAAAAAAAAAAAAAAAAAAAAAAAAAAAAAAAAAAAAAAAAAAAAAAAAAAAAAAAAAAAAAAAAAAAAAAAAAAAAAAAAAAAAAAAAAAAAAAAAAAAAAAAAAAAAAAAAAAAAAAAAAAAAAAAAAAAAAAAAAAAAAAAAAAAAAAAAAAAAAAAAAAAAAAAAAAAAAAAAAAAAAAAAAAAAAAAAAAAAAAAAAAAAAAAAAAAAAAAAAAAAAAAAAAAAAAAAAAAAAAAAAAAAAAAAAAAAAAAAAAAAAAAAAAAAAAAAAAAAAAAAAAAAAAAAAAAAAAAAAAAAAAAAAAAAAAAAAAAAAAAAAAAAAAAAAAAAAAAAAAAAAAAAAAAAAAAAAAAAAAAAAAAAAAAAAAAAAAAAAAAAAAAAAAAAAAAAAAAAAAAAAAAAAAAAAAAAAAAAAAAAAAAAAAAAAAAAAAAAAAAAAAAAAAAAAAAAAAAAAAAAAAAAAAAAAAAAAAAAAAAAAAAAAAAAAAAAAAAAAAAAAAAAAAAAAAAAAAAAAAAAAAAAAAAAAAAAAAAAAAAAAAAAAAAAAAAAAAAAAAAAAAAAAAAAAAAAAAAAAAAAAAAAAAAAAAAAAAAAAAAAAAAAAAAAAAAAAAAAAAAAAAAAAAAAAAAAAAAAAAAAAAAAAAAAAAAAAAAAAAAAAAAAAAAAAAAAAAAAAAAAAAAAAAAAAAAAAAAAAAAAAAAAAAAAAAAAAAAAAAAAAAAAAAAAAAAAAAAAAAAAAAAAAAAAAAAAAAAAAAAAAAAAAAAAAAAAAAAAAAAAAAAAAAAAAAAAAAAAAAAAAAAAAAAAAAAAAAAAAAAAAAAAAAAAAAAAAAAAAAAAAAAAAAAAAAAAAAAAAAAAAAAAAAAAAAAAAAAAAAAAAAAAAAAAAAAAAAAAAAAAAAAAAAAAAAAAAAAAAAAAAAAAAAAAAAAAAAAAAAAAAAAAAAAAAAAAAAAAAAAAAAAAAAAAAAAAAAAAAAAAAAAAAAAAAAAAAAAAAAAAAAAAAAAAAAAAAAAAAAAAAAAAAAAAAAAAAAAAAAAAAAAAAAAAAAAAAAAAAAAAAAAAAAAAAAAAAAAAAAAAAAAAAAAAAAAAAAAAAAAAAAAAAAAAAAAAAAAAAAAAAAAAAAAAAAAAAAAAAAAAAAAAAAAAAAAAAAAAAAAAAAAAAAAAAAAAAAAAAAAAAAAAAAAAAAAAAAAAAAAAAAAAAAAAAAAAAAAAAAAAAAAAAAAAAAAAAAAAAAAAAAAAAAAAAAAAAAAAAAAAAAAAAAAAAAAAAAAAAAAAAAAAAAAAAAAAAAAAAAAAAAAAAAAAAAAAAAAAAAAAAAAAAAAAAAAAAAAAAAAAAAAAAAAAAAAAAAAAAAAAAAAAAAAAAAAAAAAAAAAAAAAAAAAAAAAAAAAAAAAAAAAAAAAAAAAAAAAAAAAAAAAAAAAAAAAAAAAAAAAAAAAAAAAAAAAAAAAAAAAAAAAAAAAAAAAAAAAAAAAAAAAAAAAAAAAAAAAAAAAAAAAAAAAAAAAAAAAAAAAAAAAAAAAAAAAAAAAAAAAAAAAAAAAAAAAAAAAAAAAAAAAAAAAAAAAAAAAAAAAAAAAAAAAAAAAAAAAAAAAAAAAAAAAAAAAAAAAAAAAAAAAAAAAAAAAAAAAAAAAAAAAAAAAAAAAAAAAAAAAAAAAAAAAAAAAAAAAAAAAAAAAAAAAAAAAAAAAAAAAAAAAAAAAAAAAAAAAAAAAAAAAAAAAAAAAAAAAAAAAAAAAAAAAAAAAAAAAAAAAAAAAAAAAAAAAAAAAAAAAAAAAAAAAAAAAAAAAAAAAAAAAAAAAAAAAAAAAAAAAAAAAAAAAAAAAAAAAAAAAAAAAAAAAAAAAAAAAAAAAAAAAAAAAAAAAAAAAAAAAAAAAAAAAAAAAAAAAAAAAAAAAAAAAAAAAAAAAAAAAAAAAAAAAAAAAAAAAAAAAAAAAAAAAAAAAAAAAAAAAAAAAAAAAAAAAAAAAAAAAAAAAAAAAAAAAAAAAAAAAAAAAAAAAAAAAAAAAAAAAAAAAAAAAAAAAAAAAAAAAAAAAAAAAAAAAAAAAAAAAAAAAAAAAAAAAAAAAAAAAAAAAAAAAAAAAAAAAAAAAAAAAAAAAAAAAAAAAAAAAAAAAAAAAAAAAAAAAAAAAAAAAAAAAAAAAAAAAAAAAAAAAAAAAAAAAAAAAAAAAAAAAAAAAAAAAAAAAAAAAAAAAAAAAAAAAAAAAAAAAAAAAAAAAAAAAAAAAAAAAAAAAAAAAAAAAAAAAAAAAAAAAAAAAAAAAAAAAAAAAAAAAAAAAAAAAAAAAAAAAAAAAAAAAAAAAAAAAAAAAAAAAAAAAAAAAAAAAAAAAAAAAAAAAAAAAAAAAAAAAAAAAAAAAAAAAAAAAAAAAAAAAAAAAAAAAAAAAAAAAAAAAAAAAAAAAAAAAAAAAAAAAAAAAAAAAAAAAAAAAAAAAAAAAAAAAAAAAAAAAAAAAAAAAAAAAAAAAAAAAAAAAAAAAAAAAAPZYQM7Nsr675y+LcKB/6qdtpAlROlcHc9fDm2xkq2dEoJhjkg2h4JR9ZyW3ijrsMR8N4YntFbUgRBVUScB0YD6H5jI=</c2pa:manifest></metadata><defs><linearGradient id="items_0" x1="0" y1="0" x2="1" y2="1"><stop offset="0" stop-color="#ff5a7a"/><stop offset="0.25" stop-color="#ffb23a"/><stop offset="0.5" stop-color="#ffe45a"/><stop offset="0.75" stop-color="#5ee0a0"/><stop offset="1" stop-color="#4aa8ff"/></linearGradient></defs><g id="cp_off" transform="translate(2 2)"><g transform="translate(3 0.5) scale(0.1)"><rect x="-8" y="0" width="16" height="470" fill="#6c7686"/><rect x="-8" y="0" width="6" height="470" fill="#9aa4b2"/><circle cx="0" cy="0" r="18" fill="#b9c0ca"/><path d="M8 24 Q60 30 118 56 Q60 82 8 94 Z" fill="#c3cad3"/><path d="M8 24 Q60 26 112 54 Q60 74 8 84 Z" fill="#e9edf2"/><rect x="-34" y="440" width="68" height="40" rx="8" ry="8" fill="#5b6472"/></g></g>
<g id="cp_on0" transform="translate(20 2)"><g transform="translate(3 0.5) scale(0.1)"><rect x="-8" y="0" width="16" height="470" fill="#6c7686"/><rect x="-8" y="0" width="6" height="470" fill="#9aa4b2"/><circle cx="0" cy="0" r="18" fill="#ffd23a"/><path d="M8 24 Q60 36 118 56 Q60 88 8 94 Z" fill="#2a9a44"/><path d="M8 24 Q60 32 112 54 Q60 80 8 84 Z" fill="#3fbf5a"/><g transform="translate(52 56)"><polygon points="0,-18 4.7,-6.47 17.12,-5.56 7.61,2.47 10.58,14.56 0,8 -10.58,14.56 -7.61,2.47 -17.12,-5.56 -4.7,-6.47" fill="#ffffff"/></g><rect x="-34" y="440" width="68" height="40" rx="8" ry="8" fill="#5b6472"/></g></g>
<g id="cp_on1" transform="translate(38 2)"><g transform="translate(3 0.5) scale(0.1)"><rect x="-8" y="0" width="16" height="470" fill="#6c7686"/><rect x="-8" y="0" width="6" height="470" fill="#9aa4b2"/><circle cx="0" cy="0" r="18" fill="#ffd23a"/><path d="M8 24 Q60 24 118 56 Q60 76 8 94 Z" fill="#2a9a44"/><path d="M8 24 Q60 20 112 54 Q60 68 8 84 Z" fill="#3fbf5a"/><g transform="translate(52 56)"><polygon points="0,-18 4.7,-6.47 17.12,-5.56 7.61,2.47 10.58,14.56 0,8 -10.58,14.56 -7.61,2.47 -17.12,-5.56 -4.7,-6.47" fill="#ffffff"/></g><rect x="-34" y="440" width="68" height="40" rx="8" ry="8" fill="#5b6472"/></g></g>
<g id="medal_0" transform="translate(56 2)"><g transform="translate(11 11) scale(0.1)"><ellipse cx="0" cy="4" rx="96" ry="96" fill="#b86f00"/><ellipse cx="0" cy="0" rx="94" ry="94" fill="#ffc21a"/><ellipse cx="0" cy="0" rx="76" ry="76" fill="#ffe07a"/><ellipse cx="0" cy="0" rx="66" ry="66" fill="#fff6d0"/><g transform="translate(0 4) scale(1 1)"><polygon points="0,-52 12.93,-17.8 49.45,-16.07 20.92,6.8 30.56,42.07 0,22 -30.56,42.07 -20.92,6.8 -49.45,-16.07 -12.93,-17.8" fill="#2fb6e0"/></g><g transform="translate(-6 -2) scale(1 1)"><polygon points="0,-22 5.29,-7.28 20.92,-6.8 8.56,2.78 12.93,17.8 0,9 -12.93,17.8 -8.56,2.78 -20.92,-6.8 -5.29,-7.28" fill="#bff0ff"/></g><ellipse cx="-46" cy="-48" rx="18" ry="10" fill="#ffffff" opacity="0.8" transform="rotate(-40 -46 -48)"/></g></g>
<g id="medal_1" transform="translate(82 2)"><g transform="translate(11 11) scale(0.1)"><ellipse cx="0" cy="4" rx="67.2" ry="96" fill="#b86f00"/><ellipse cx="0" cy="0" rx="65.8" ry="94" fill="#ffc21a"/><ellipse cx="0" cy="0" rx="53.2" ry="76" fill="#ffe07a"/><ellipse cx="0" cy="0" rx="46.2" ry="66" fill="#fff6d0"/><g transform="translate(0 4) scale(0.7 1)"><polygon points="0,-52 12.93,-17.8 49.45,-16.07 20.92,6.8 30.56,42.07 0,22 -30.56,42.07 -20.92,6.8 -49.45,-16.07 -12.93,-17.8" fill="#2fb6e0"/></g><g transform="translate(-4.2 -2) scale(0.7 1)"><polygon points="0,-22 5.29,-7.28 20.92,-6.8 8.56,2.78 12.93,17.8 0,9 -12.93,17.8 -8.56,2.78 -20.92,-6.8 -5.29,-7.28" fill="#bff0ff"/></g><ellipse cx="-32.2" cy="-48" rx="12.6" ry="10" fill="#ffffff" opacity="0.8" transform="rotate(-40 -32.2 -48)"/></g></g>
<g id="medal_2" transform="translate(108 2)"><g transform="translate(11 11) scale(0.1)"><ellipse cx="0" cy="4" rx="38.4" ry="96" fill="#b86f00"/><ellipse cx="0" cy="0" rx="37.6" ry="94" fill="#ffc21a"/><ellipse cx="0" cy="0" rx="30.4" ry="76" fill="#ffe07a"/><ellipse cx="0" cy="0" rx="26.4" ry="66" fill="#fff6d0"/><g transform="translate(0 4) scale(0.4 1)"><polygon points="0,-52 12.93,-17.8 49.45,-16.07 20.92,6.8 30.56,42.07 0,22 -30.56,42.07 -20.92,6.8 -49.45,-16.07 -12.93,-17.8" fill="#2fb6e0"/></g><g transform="translate(-2.4 -2) scale(0.4 1)"><polygon points="0,-22 5.29,-7.28 20.92,-6.8 8.56,2.78 12.93,17.8 0,9 -12.93,17.8 -8.56,2.78 -20.92,-6.8 -5.29,-7.28" fill="#bff0ff"/></g><ellipse cx="-18.4" cy="-48" rx="7.2" ry="10" fill="#ffffff" opacity="0.8" transform="rotate(-40 -18.4 -48)"/></g></g>
<g id="medal_3" transform="translate(134 2)"><g transform="translate(11 11) scale(0.1)"><ellipse cx="0" cy="4" rx="67.2" ry="96" fill="#b86f00"/><ellipse cx="0" cy="0" rx="65.8" ry="94" fill="#ffc21a"/><ellipse cx="0" cy="0" rx="53.2" ry="76" fill="#ffe07a"/><ellipse cx="0" cy="0" rx="46.2" ry="66" fill="#fff6d0"/><g transform="translate(0 4) scale(0.7 1)"><polygon points="0,-52 12.93,-17.8 49.45,-16.07 20.92,6.8 30.56,42.07 0,22 -30.56,42.07 -20.92,6.8 -49.45,-16.07 -12.93,-17.8" fill="#2fb6e0"/></g><g transform="translate(-4.2 -2) scale(0.7 1)"><polygon points="0,-22 5.29,-7.28 20.92,-6.8 8.56,2.78 12.93,17.8 0,9 -12.93,17.8 -8.56,2.78 -20.92,-6.8 -5.29,-7.28" fill="#bff0ff"/></g><ellipse cx="-32.2" cy="-48" rx="12.6" ry="10" fill="#ffffff" opacity="0.8" transform="rotate(-40 -32.2 -48)"/></g></g>
<g id="medal_empty" transform="translate(160 2)"><g transform="translate(11 11) scale(0.1)"><circle cx="0" cy="0" r="90" fill="#000000" opacity="0.3"/><circle cx="0" cy="0" r="90" fill="none" stroke="#ffffff" stroke-width="12" opacity="0.85"/><g transform="translate(0 4)"><polygon points="0,-46 11.76,-16.18 43.75,-14.21 19.02,6.18 27.04,37.21 0,20 -27.04,37.21 -19.02,6.18 -43.75,-14.21 -11.76,-16.18" fill="#ffffff" opacity="0.35"/></g></g></g>
<g id="apple" transform="translate(186 2)"><g transform="translate(10 11) scale(0.1)"><circle cx="0" cy="10" r="86" fill="#ffe680" opacity="0.35"/><path d="M0 -44 C-30 -64 -72 -48 -70 -4 C-68 44 -34 72 -12 64 C-4 60 4 60 12 64 C34 72 68 44 70 -4 C72 -48 30 -64 0 -44 Z" fill="#d99100"/><path d="M0 -40 C-28 -58 -64 -44 -62 -6 C-60 38 -30 62 -10 56 C-4 52 4 52 10 56 C30 62 60 38 62 -6 C64 -44 28 -58 0 -40 Z" fill="#ffcc2e"/><ellipse cx="-30" cy="-18" rx="12" ry="22" fill="#fff6c9" opacity="0.9" transform="rotate(20 -30 -18)"/><ellipse cx="32" cy="30" rx="18" ry="12" fill="#f0a400" opacity="0.5"/><path d="M0 -44 Q2 -64 10 -76" fill="none" stroke="#6b3a1c" stroke-width="8" stroke-linecap="round"/><path d="M8 -62 C22 -86 52 -80 56 -66 C40 -56 22 -56 8 -62 Z" fill="#4cb870"/><path d="M12 -63 C28 -74 44 -72 52 -67" fill="none" stroke="#8ee0a6" stroke-width="3" stroke-linecap="round"/></g></g>
<g id="star" transform="translate(210 2)"><g transform="translate(9 9) scale(0.1)"><polygon points="0,-84 23.51,-32.36 79.89,-25.96 38.04,12.36 49.37,67.96 0,40 -49.37,67.96 -38.04,12.36 -79.89,-25.96 -23.51,-32.36" fill="#ffffff"/><polygon points="0,-74 19.98,-27.51 70.38,-22.87 32.34,10.51 43.5,59.87 0,34 -43.5,59.87 -32.34,10.51 -70.38,-22.87 -19.98,-27.51" fill="url(#items_0)"/><g transform="translate(-8 -10)"><polygon points="0,-28 7.05,-9.71 26.63,-8.65 11.41,3.71 16.46,22.65 0,12 -16.46,22.65 -11.41,3.71 -26.63,-8.65 -7.05,-9.71" fill="#ffffff" opacity="0.85"/></g><circle cx="-16" cy="12" r="7" fill="#2a1a3a"/><circle cx="16" cy="12" r="7" fill="#2a1a3a"/></g></g>
<g id="heart" transform="translate(232 2)"><g transform="translate(9 8) scale(0.1)"><path d="M0 62 C-60 20 -86 -10 -76 -40 C-66 -70 -26 -76 0 -44 C26 -76 66 -70 76 -40 C86 -10 60 20 0 62 Z" fill="#e8336e"/><path d="M0 52 C-54 16 -76 -10 -68 -36 C-60 -60 -26 -64 0 -34 C26 -64 60 -60 68 -36 C76 -10 54 16 0 52 Z" fill="#ff5a8e"/><ellipse cx="-38" cy="-34" rx="16" ry="10" fill="#ffffff" opacity="0.8" transform="rotate(-35 -38 -34)"/></g></g>
<g id="q_0" transform="translate(254 2)"><g transform="translate(0 0) scale(0.1)"><rect x="0" y="0" width="160" height="160" rx="22" ry="22" fill="#b86b00"/><rect x="6" y="6" width="148" height="146" rx="18" ry="18" fill="#f7b21c"/><path d="M12 12 L148 12 L136 26 L26 26 L26 132 L12 146 Z" fill="#ffd65a"/><rect x="26" y="26" width="108" height="106" rx="8" ry="8" fill="#ffc22e"/><circle cx="20" cy="20" r="6" fill="#b86b00"/><circle cx="140" cy="20" r="6" fill="#b86b00"/><circle cx="20" cy="138" r="6" fill="#b86b00"/><circle cx="140" cy="138" r="6" fill="#b86b00"/><g transform="translate(86 90) scale(1.15)"><path d="M-22 -30 C-22 -52 -8 -62 4 -62 C22 -62 34 -50 34 -34 C34 -18 22 -12 14 -6 C8 -2 8 2 8 8 L-8 8 C-8 -2 -6 -8 4 -16 C12 -22 16 -26 16 -34 C16 -42 10 -46 4 -46 C-4 -46 -8 -40 -8 -30 Z M-9 18 L9 18 L9 34 L-9 34 Z" fill="#9a4e00"/></g><g transform="translate(80 84) scale(1.15)"><path d="M-22 -30 C-22 -52 -8 -62 4 -62 C22 -62 34 -50 34 -34 C34 -18 22 -12 14 -6 C8 -2 8 2 8 8 L-8 8 C-8 -2 -6 -8 4 -16 C12 -22 16 -26 16 -34 C16 -42 10 -46 4 -46 C-4 -46 -8 -40 -8 -30 Z M-9 18 L9 18 L9 34 L-9 34 Z" fill="#ffffff"/></g></g></g>
<g id="q_1" transform="translate(274 2)"><g transform="translate(0 0) scale(0.1)"><rect x="0" y="0" width="160" height="160" rx="22" ry="22" fill="#b86b00"/><rect x="6" y="6" width="148" height="146" rx="18" ry="18" fill="#f7b21c"/><path d="M12 12 L148 12 L136 26 L26 26 L26 132 L12 146 Z" fill="#ffde7b"/><rect x="26" y="26" width="108" height="106" rx="8" ry="8" fill="#ffcb4d"/><circle cx="20" cy="20" r="6" fill="#b86b00"/><circle cx="140" cy="20" r="6" fill="#b86b00"/><circle cx="20" cy="138" r="6" fill="#b86b00"/><circle cx="140" cy="138" r="6" fill="#b86b00"/><g transform="translate(86 90) scale(1.15)"><path d="M-22 -30 C-22 -52 -8 -62 4 -62 C22 -62 34 -50 34 -34 C34 -18 22 -12 14 -6 C8 -2 8 2 8 8 L-8 8 C-8 -2 -6 -8 4 -16 C12 -22 16 -26 16 -34 C16 -42 10 -46 4 -46 C-4 -46 -8 -40 -8 -30 Z M-9 18 L9 18 L9 34 L-9 34 Z" fill="#9a4e00"/></g><g transform="translate(80 84) scale(1.15)"><path d="M-22 -30 C-22 -52 -8 -62 4 -62 C22 -62 34 -50 34 -34 C34 -18 22 -12 14 -6 C8 -2 8 2 8 8 L-8 8 C-8 -2 -6 -8 4 -16 C12 -22 16 -26 16 -34 C16 -42 10 -46 4 -46 C-4 -46 -8 -40 -8 -30 Z M-9 18 L9 18 L9 34 L-9 34 Z" fill="#ffffff"/></g><path d="M36 36 L60 36 L36 60 Z" fill="#ffffff" opacity="0.18"/></g></g>
<g id="q_2" transform="translate(294 2)"><g transform="translate(0 0) scale(0.1)"><rect x="0" y="0" width="160" height="160" rx="22" ry="22" fill="#b86b00"/><rect x="6" y="6" width="148" height="146" rx="18" ry="18" fill="#f7b21c"/><path d="M12 12 L148 12 L136 26 L26 26 L26 132 L12 146 Z" fill="#ffe69c"/><rect x="26" y="26" width="108" height="106" rx="8" ry="8" fill="#ffd46d"/><circle cx="20" cy="20" r="6" fill="#b86b00"/><circle cx="140" cy="20" r="6" fill="#b86b00"/><circle cx="20" cy="138" r="6" fill="#b86b00"/><circle cx="140" cy="138" r="6" fill="#b86b00"/><g transform="translate(86 90) scale(1.15)"><path d="M-22 -30 C-22 -52 -8 -62 4 -62 C22 -62 34 -50 34 -34 C34 -18 22 -12 14 -6 C8 -2 8 2 8 8 L-8 8 C-8 -2 -6 -8 4 -16 C12 -22 16 -26 16 -34 C16 -42 10 -46 4 -46 C-4 -46 -8 -40 -8 -30 Z M-9 18 L9 18 L9 34 L-9 34 Z" fill="#9a4e00"/></g><g transform="translate(80 84) scale(1.15)"><path d="M-22 -30 C-22 -52 -8 -62 4 -62 C22 -62 34 -50 34 -34 C34 -18 22 -12 14 -6 C8 -2 8 2 8 8 L-8 8 C-8 -2 -6 -8 4 -16 C12 -22 16 -26 16 -34 C16 -42 10 -46 4 -46 C-4 -46 -8 -40 -8 -30 Z M-9 18 L9 18 L9 34 L-9 34 Z" fill="#ffffff"/></g><path d="M36 36 L60 36 L36 60 Z" fill="#ffffff" opacity="0.35"/></g></g>
<g id="used" transform="translate(314 2)"><g transform="translate(0 0) scale(0.1)"><rect x="0" y="0" width="160" height="160" rx="22" ry="22" fill="#5e3a22"/><rect x="6" y="6" width="148" height="146" rx="18" ry="18" fill="#9a6a45"/><path d="M12 12 L148 12 L136 26 L26 26 L26 132 L12 146 Z" fill="#b98a62"/><rect x="26" y="26" width="108" height="106" rx="8" ry="8" fill="#8c5e3c"/><circle cx="20" cy="20" r="6" fill="#5e3a22"/><circle cx="140" cy="20" r="6" fill="#5e3a22"/><circle cx="20" cy="138" r="6" fill="#5e3a22"/><circle cx="140" cy="138" r="6" fill="#5e3a22"/></g></g>
<g id="brick" transform="translate(334 2)"><g transform="translate(0 0) scale(0.1)"><rect x="0" y="0" width="160" height="160" fill="#f2caa4"/><rect x="3" y="3" width="74" height="34" rx="6" ry="6" fill="#d0603c"/><rect x="3" y="3" width="74" height="9" rx="4" ry="4" fill="#ee8a62"/><rect x="6" y="28" width="68" height="8" fill="#9a3c22" opacity="0.6"/><rect x="83" y="3" width="74" height="34" rx="6" ry="6" fill="#d0603c"/><rect x="83" y="3" width="74" height="9" rx="4" ry="4" fill="#ee8a62"/><rect x="86" y="28" width="68" height="8" fill="#9a3c22" opacity="0.6"/><rect x="0" y="43" width="37" height="34" rx="6" ry="6" fill="#d0603c"/><rect x="0" y="43" width="37" height="9" rx="4" ry="4" fill="#ee8a62"/><rect x="3" y="68" width="31" height="8" fill="#9a3c22" opacity="0.6"/><rect x="43" y="43" width="74" height="34" rx="6" ry="6" fill="#d0603c"/><rect x="43" y="43" width="74" height="9" rx="4" ry="4" fill="#ee8a62"/><rect x="46" y="68" width="68" height="8" fill="#9a3c22" opacity="0.6"/><rect x="123" y="43" width="37" height="34" rx="6" ry="6" fill="#d0603c"/><rect x="123" y="43" width="37" height="9" rx="4" ry="4" fill="#ee8a62"/><rect x="126" y="68" width="31" height="8" fill="#9a3c22" opacity="0.6"/><rect x="3" y="83" width="74" height="34" rx="6" ry="6" fill="#d0603c"/><rect x="3" y="83" width="74" height="9" rx="4" ry="4" fill="#ee8a62"/><rect x="6" y="108" width="68" height="8" fill="#9a3c22" opacity="0.6"/><rect x="83" y="83" width="74" height="34" rx="6" ry="6" fill="#d0603c"/><rect x="83" y="83" width="74" height="9" rx="4" ry="4" fill="#ee8a62"/><rect x="86" y="108" width="68" height="8" fill="#9a3c22" opacity="0.6"/><rect x="0" y="123" width="37" height="34" rx="6" ry="6" fill="#d0603c"/><rect x="0" y="123" width="37" height="9" rx="4" ry="4" fill="#ee8a62"/><rect x="3" y="148" width="31" height="8" fill="#9a3c22" opacity="0.6"/><rect x="43" y="123" width="74" height="34" rx="6" ry="6" fill="#d0603c"/><rect x="43" y="123" width="74" height="9" rx="4" ry="4" fill="#ee8a62"/><rect x="46" y="148" width="68" height="8" fill="#9a3c22" opacity="0.6"/><rect x="123" y="123" width="37" height="34" rx="6" ry="6" fill="#d0603c"/><rect x="123" y="123" width="37" height="9" rx="4" ry="4" fill="#ee8a62"/><rect x="126" y="148" width="31" height="8" fill="#9a3c22" opacity="0.6"/><rect x="0" y="0" width="160" height="4" fill="#fff1e0" opacity="0.8"/></g></g>
<g id="coin_0" transform="translate(354 2)"><g transform="translate(7 8) scale(0.1)"><ellipse cx="0" cy="0" rx="66" ry="70" fill="#d98f00"/><ellipse cx="0" cy="-2" rx="60" ry="66" fill="#ffd23f"/><ellipse cx="0" cy="-2" rx="44" ry="50" fill="#f5b400"/><ellipse cx="0" cy="-4" rx="40" ry="46" fill="#ffdc5c"/><rect x="-7" y="-30" width="14" height="56" rx="6" ry="6" fill="#e39e00"/><ellipse cx="-28" cy="-30" rx="12" ry="18" fill="#fff4b8" opacity="0.85" transform="rotate(20 -28 -30)"/></g></g>
<g id="coin_1" transform="translate(372 2)"><g transform="translate(7 8) scale(0.1)"><ellipse cx="0" cy="0" rx="55.2" ry="70" fill="#d98f00"/><ellipse cx="0" cy="-2" rx="49.2" ry="66" fill="#ffd23f"/><ellipse cx="0" cy="-2" rx="36.08" ry="50" fill="#f5b400"/><ellipse cx="0" cy="-4" rx="32.8" ry="46" fill="#ffdc5c"/><rect x="-5.74" y="-30" width="11.48" height="56" rx="4.92" ry="4.92" fill="#e39e00"/><ellipse cx="-22.96" cy="-30" rx="9.84" ry="18" fill="#fff4b8" opacity="0.85" transform="rotate(20 -22.96 -30)"/></g></g>
<g id="coin_2" transform="translate(390 2)"><g transform="translate(7 8) scale(0.1)"><ellipse cx="0" cy="0" rx="33" ry="70" fill="#d98f00"/><ellipse cx="0" cy="-2" rx="27" ry="66" fill="#ffd23f"/><ellipse cx="0" cy="-2" rx="19.8" ry="50" fill="#f5b400"/><ellipse cx="0" cy="-4" rx="18" ry="46" fill="#ffdc5c"/><rect x="-3.15" y="-30" width="6.3" height="56" rx="2.7" ry="2.7" fill="#e39e00"/><ellipse cx="-12.6" cy="-30" rx="5.4" ry="18" fill="#fff4b8" opacity="0.85" transform="rotate(20 -12.6 -30)"/></g></g>
<g id="coin_3" transform="translate(408 2)"><g transform="translate(7 8) scale(0.1)"><ellipse cx="0" cy="0" rx="13.2" ry="70" fill="#d98f00"/><ellipse cx="0" cy="-2" rx="7.2" ry="66" fill="#ffd23f"/><rect x="-3" y="-64" width="6" height="124" fill="#fff0a0" opacity="0.6"/></g></g>
<g id="coin_4" transform="translate(426 2)"><g transform="translate(7 8) scale(0.1)"><ellipse cx="0" cy="0" rx="33" ry="70" fill="#d98f00"/><ellipse cx="0" cy="-2" rx="27" ry="66" fill="#ffd23f"/><ellipse cx="0" cy="-2" rx="19.8" ry="50" fill="#f5b400"/><ellipse cx="0" cy="-4" rx="18" ry="46" fill="#ffdc5c"/><rect x="-3.15" y="-30" width="6.3" height="56" rx="2.7" ry="2.7" fill="#e39e00"/><ellipse cx="-12.6" cy="-30" rx="5.4" ry="18" fill="#fff4b8" opacity="0.85" transform="rotate(20 -12.6 -30)"/></g></g>
<g id="coin_5" transform="translate(444 2)"><g transform="translate(7 8) scale(0.1)"><ellipse cx="0" cy="0" rx="55.2" ry="70" fill="#d98f00"/><ellipse cx="0" cy="-2" rx="49.2" ry="66" fill="#ffd23f"/><ellipse cx="0" cy="-2" rx="36.08" ry="50" fill="#f5b400"/><ellipse cx="0" cy="-4" rx="32.8" ry="46" fill="#ffdc5c"/><rect x="-5.74" y="-30" width="11.48" height="56" rx="4.92" ry="4.92" fill="#e39e00"/><ellipse cx="-22.96" cy="-30" rx="9.84" ry="18" fill="#fff4b8" opacity="0.85" transform="rotate(20 -22.96 -30)"/></g></g>
<g id="goalflag_0" transform="translate(462 2)"><g transform="translate(17 0.5) scale(0.1)"><path d="M0 0 Q-80 46 -168 70 Q-80 114 0 140 Z" fill="#d63a5c"/><path d="M0 0 Q-80 40 -160 66 Q-80 104 0 126 Z" fill="#ff5a7e"/><g transform="translate(-62 66)"><polygon points="0,-30 7.64,-10.52 28.53,-9.27 12.36,4.02 17.63,24.27 0,13 -17.63,24.27 -12.36,4.02 -28.53,-9.27 -7.64,-10.52" fill="#ffffff"/></g></g></g>
<g id="goalflag_1" transform="translate(484 2)"><g transform="translate(17 0.5) scale(0.1)"><path d="M0 0 Q-80 26 -168 70 Q-80 94 0 140 Z" fill="#d63a5c"/><path d="M0 0 Q-80 20 -160 66 Q-80 84 0 126 Z" fill="#ff5a7e"/><g transform="translate(-62 66)"><polygon points="0,-30 7.64,-10.52 28.53,-9.27 12.36,4.02 17.63,24.27 0,13 -17.63,24.27 -12.36,4.02 -28.53,-9.27 -7.64,-10.52" fill="#ffffff"/></g></g></g>
<g id="nikuman" transform="translate(2 55)"><g transform="translate(9 8) scale(0.1)"><ellipse cx="0" cy="28" rx="76" ry="22" fill="#c9b089"/><path d="M-76 26 C-78 -30 -40 -52 0 -52 C40 -52 78 -30 76 26 Q0 42 -76 26 Z" fill="#f6ead3"/><path d="M-60 10 C-58 -26 -30 -42 0 -44 C-26 -34 -44 -14 -46 16 Z" fill="#ffffff" opacity="0.8"/><path d="M0 -44 Q-18 -30 -30 -18" fill="none" stroke="#d8c2a0" stroke-width="4" stroke-linecap="round"/><path d="M0 -44 Q-8.4 -30 -14 -18" fill="none" stroke="#d8c2a0" stroke-width="4" stroke-linecap="round"/><path d="M0 -44 Q0 -30 0 -18" fill="none" stroke="#d8c2a0" stroke-width="4" stroke-linecap="round"/><path d="M0 -44 Q8.4 -30 14 -18" fill="none" stroke="#d8c2a0" stroke-width="4" stroke-linecap="round"/><path d="M0 -44 Q18 -30 30 -18" fill="none" stroke="#d8c2a0" stroke-width="4" stroke-linecap="round"/><circle cx="0" cy="-46" r="8" fill="#e8d6b6"/></g></g>
<g id="goalball" transform="translate(24 55)"><g transform="translate(4.5 4.5) scale(0.1)"><circle cx="0" cy="0" r="38" fill="#e8a400"/><circle cx="0" cy="-3" r="34" fill="#ffd23a"/><circle cx="-12" cy="-14" r="10" fill="#fff4b8"/></g></g></svg>