<svg xmlns="http://www.w3.org/2000/svg" viewBox="0 0 1400 150" width="1400" height="150" xmlns:c2pa="http://c2pa.org/manifest"><metadata><c2pa:manifest>AAAWgmp1bWIAAAAeanVtZGMycGEAEQAQgAAAqgA4m3EDYzJwYQAAABZcanVtYgAAAEdqdW1kYzJtYQARABCAAACqADibcQN1cm46YzJwYTo5OTVlNGRhMy05ZmQxLTQ3ZTMtYWM0OS01MTM1ZmEzOTdkMzMAAAADl2p1bWIAAAApanVtZGMyYXMAEQAQgAAAqgA4m3EDYzJwYS5hc3NlcnRpb25zAAAAALxqdW1iAAAARGp1bWRjYm9yABEAEIAAAKoAOJtxE2MycGEuaW5ncmVkaWVudC52MwAAAAAYYzJzaLul95myvakyYWPv5An2KqwAAABwY2JvcqNpZGM6Zm9ybWF0bWltYWdlL3N2Zyt4bWxqaW5zdGFuY2VJRHgseG1wOmlpZDowYmZhZGE5Yi1hN2NkLTQ4NmYtYTUxYi1hZDBkZWNjMzFjOGNscmVsYXRpb25zaGlwaHBhcmVudE9mAAAB4mp1bWIAAABBanVtZGNib3IAEQAQgAAAqgA4m3ETYzJwYS5hY3Rpb25zLnYyAAAAABhjMnNoQOvnvw93XUZyYf9xo8IZYwAAAZljYm9yomdhY3Rpb25zgqJmYWN0aW9ua2MycGEub3BlbmVkanBhcmFtZXRlcnOha2luZ3JlZGllbnRzgaJjdXJseC1zZWxmI2p1bWJmPWMycGEuYXNzZXJ0aW9ucy9jMnBhLmluZ3JlZGllbnQudjNkaGFzaFggQWKXVvyRn+uDOoU6tY/wC4z51ZxHtpexkFzYww0YXz2kZmFjdGlvbngdY29tLmFudGhyb3BpYy5jbGF1ZGUucHJvdmlkZWRqcGFyYW1ldGVyc6F4H2NvbS5hbnRocm9waWMub3JpZ2luLWNvbmZpZGVuY2VndW5rbm93bmtkZXNjcmlwdGlvbnhmQ2xhdWRlIHByb3ZpZGVkIHRoaXMgZmlsZSBhdCB0aGUgcmVxdWVzdCBvZiBhIHVzZXIgYW5kIG1heSBoYXZlIGNyZWF0ZWQgb3IgbW9kaWZpZWQgdGhlIGZpbGUgY29udGVudHMubXNvZnR3YXJlQWdlbnShZG5hbWVmQ2xhdWRlcmFsbEFjdGlvbnNJbmNsdWRlZPUAAADIanVtYgAAAEBqdW1kY2JvcgARABCAAACqADibcRNjMnBhLmhhc2guZGF0YQAAAAAYYzJzaBX6Ntyjr8VCK6XDFRewK2MAAACAY2JvcqVjYWxnZnNoYTI1NmNwYWRNAAAAAAAAAAAAAAAAAGRoYXNoWCAqAgwr+oNrSlLDSz+PFeGWKrheEuzr/VKDmvOFpTBmymRuYW1lbmp1bWJmIG1hbmlmZXN0amV4Y2x1c2lvbnOBomVzdGFydBiYZmxlbmd0aBkeBAAAAj5qdW1iAAAAJ2p1bWRjMmNsABEAEIAAAKoAOJtxA2MycGEuY2xhaW0udjIAAAACD2Nib3KlY2FsZ2ZzaGEyNTZpc2lnbmF0dXJleE1zZWxmI2p1bWJmPS9jMnBhL3VybjpjMnBhOjk5NWU0ZGEzLTlmZDEtNDdlMy1hYzQ5LTUxMzVmYTM5N2QzMy9jMnBhLnNpZ25hdHVyZWppbnN0YW5jZUlEeCx4bXA6aWlkOmFkYTU0ZGVmLTVhNTAtNDJiNC04NmJiLTcyNThiYmJiZTBiNHJjcmVhdGVkX2Fzc2VydGlvbnODomN1cmx4LXNlbGYjanVtYmY9YzJwYS5hc3NlcnRpb25zL2MycGEuaW5ncmVkaWVudC52M2RoYXNoWCBBYpdW/JGf64M6hTq1j/ALjPnVnEe2l7GQXNjDDRhfPaJjdXJseCpzZWxmI2p1bWJmPWMycGEuYXNzZXJ0aW9ucy9jMnBhLmFjdGlvbnMudjJkaGFzaFggcWonSfwpDUuxR0XGGVUAn1bQZGT/zS1V2Mb4RbnVrBqiY3VybHgpc2VsZiNqdW1iZj1jMnBhLmFzc2VydGlvbnMvYzJwYS5oYXNoLmRhdGFkaGFzaFggmSaBSVp4KHqnEmM4najDg3d4yq78i4ER2ri7G1l6bkR0Y2xhaW1fZ2VuZXJhdG9yX2luZm+jZG5hbWVvQW50aHJvcGljIEZpbGVzZ3ZlcnNpb25lMS4wLjBrc3BlY1ZlcnNpb25lMi40LjAAABA4anVtYgAAAChqdW1kYzJjcwARABCAAACqADibcQNjMnBhLnNpZ25hdHVyZQAAABAIY2JvctKEWQISogEmGCFZAgowggIGMIIBjaADAgECAhRA5aAK7sI50L64g/oGQgU9Z1UTADAKBggqhkjOPQQDAzBJMRcwFQYDVQQKEw5BbnRocm9waWMsIFBCQzEuMCwGA1UEAxMlQW50aHJvcGljIENvbnRlbnQgQ3JlZGVudGlhbHMgUm9vdCBDQTAeFw0yNjA4MDcxODQzNTZaFw0yODA4MDYxOTQzNTZaMEQxFzAVBgNVBAoTDkFudGhyb3BpYywgUEJDMSkwJwYDVQQDEyBBbnRocm9waWMgQ2xhdWRlIENvbnRlbnQgU2lnbmluZzBZMBMGByqGSM49AgEGCCqGSM49AwEHA0IABJh6CmvLUBgFFNU0vUKlOVtE6djd17L5SuwX0LemFisBM3dkd/3cyjxFA3Qo5S46fX0/ihY0VZ7mfb9KF703t5OjWDBWMA4GA1UdDwEB/wQEAwIHgDAVBgNVHSUEDjAMBgorBgEEAYPoXgIBMAwGA1UdEwEB/wQCMAAwHwYDVR0jBBgwFoAUzlHiBIFOZFsj+OPEz5o+nMHXXMIwCgYIKoZIzj0EAwMDZwAwZAIwMXMdFJ4BetLLVY7ORuE9noqbbAZOZn/aArXyTwFAZfKrPzxF2vPoJNf1+UCdg1XGAjBwX1zd9WGqYkqmL5SFqw1QySjr1zJfpJM9+1rdDwSPLMOPOjKuiXjoU/pUUeG9RwmhY3BhZFkNngAAAAAAAAAAAAAAAAAAAAAAAAAAAAAAAAAAAAAAAAAAAAAAAAAAAAAAAAAAAAAAAAAAAAAAAAAAAAAAAAAAAAAAAAAAAAAAAAAAAAAAAAAAAAAAAAAAAAAAAAAAAAAAAAAAAAAAAAAAAAAAAAAAAAAAAAAAAAAAAAAAAAAAAAAAAAAAAAAAAAAAAAAAAAAAAAAAAAAAAAAAAAAAAAAAAAAAAAAAAAAAAAAAAAAAAAAAAAAAAAAAAAAAAAAAAAAAAAAAAAAAAAAAAAAAAAAAAAAAAAAAAAAAAAAAAAAAAAAAAAAAAAAAAAAAAAAAAAAAAAAAAAAAAAAAAAAAAAAAAAAAAAAAAAAAAAAAAAAAAAAAAAAAAAAAAAAAAAAAAAAAAAAAAAAAAAAAAAAAAAAAAAAAAAAAAAAAAAAAAAAAAAAAAAAAAAAAAAAAAAAAAAAAAAAAAAAAAAAAAAAAAAAAAAAAAAAAAAAAAAAAAAAAAAAAAAAAAAAAAAAAAAAAAAAAAAAAAAAAAAAAAAAAAAAAAAAAAAAAAAAAAAAAAAAAAAAAAAAAAAAAAAAAAAAAAAAAAAAAAAAAAAAAAAAAAAAAAAAAAAAAAAAAAAAAAAAAAAAAAAAAAAAAAAAAAAAAAAAAAAAAAAAAAAAAAAAAAAAAAAAAAAAAAAAAAAAAAAAAAAAAAAAAAAAAAAAAAAAAAAAAAAAAAAAAAAAAAAAAAAAAAAAAAAAAAAAAAAAAAAAAAAAAAAAAAAAAAAAAAAAAAAAAAAAAAAAAAAAAAAAAAAAAAAAAAAAAAAAAAAAAAAAAAAAAAAAAAAAAAAAAAAAAAAAAAAAAAAAAAAAAAAAAAAAAAAAAAAAAAAAAAAAAAAAAAAAAAAAAAAAAAAAAAAAAAAAAAAAAAAAAAAAAAAAAAAAAAAAAAAAAAAAAAAAAAAAAAAAAAAAAAAAAAAAAAAAAAAAAAAAAAAAAAAAAAAAAAAAAAAAAAAAAAAAAAAAAAAAAAAAAAAAAAAAAAAAAAAAAAAAAAAAAAAAAAAAAAAAAAAAAAAAAAAAAAAAAAAAAAAAAAAAAAAAAAAAAAAAAAAAAAAAAAAAAAAAAAAAAAAAAAAAAAAAAAAAAAAAAAAAAAAAAAAAAAAAAAAAAAAAAAAAAAAAAAAAAAAAAAAAAAAAAAAAAAAAAAAAAAAAAAAAAAAAAAAAAAAAAAAAAAAAAAAAAAAAAAAAAAAAAAAAAAAAAAAAAAAAAAAAAAAAAAAAAAAAAAAAAAAAAAAAAAAAAAAAAAAAAAAAAAAAAAAAAAAAAAAAAAAAAAAAAAAAAAAAAAAAAAAAAAAAAAAAAAAAAAAAAAAAAAAAAAAAAAAAAAAAAAAAAAAAAAAAAAAAAAAAAAAAAAAAAAAAAAAAAAAAAAAAAAAAAAAAAAAAAAAAAAAAAAAAAAAAAAAAAAAAAAAAAAAAAAAAAAAAAAAAAAAAAAAAAAAAAAAAAAAAAAAAAAAAAAAAAAAAAAAAAAAAAAAAAAAAAAAAAAAAAAAAAAAAAAAAAAAAAAAAAAAAAAAAAAAAAAAAAAAAAAAAAAAAAAAAAAAAAAAAAAAAAAAAAAAAAAAAAAAAAAAAAAAAAAAAAAAAAAAAAAAAAAAAAAAAAAAAAAAAAAAAAAAAAAAAAAAAAAAAAAAAAAAAAAAAAAAAAAAAAAAAAAAAAAAAAAAAAAAAAAAAAAAAAAAAAAAAAAAAAAAAAAAAAAAAAAAAAAAAAAAAAAAAAAAAAAAAAAAAAAAAAAAAAAAAAAAAAAAAAAAAAAAAAAAAAAAAAAAAAAAAAAAAAAAAAAAAAAAAAAAAAAAAAAAAAAAAAAAAAAAAAAAAAAAAAAAAAAAAAAAAAAAAAAAAAAAAAAAAAAAAAAAAAAAAAAAAAAAAAAAAAAAAAAAAAAAAAAAAAAAAAAAAAAAAAAAAAAAAAAAAAAAAAAAAAAAAAAAAAAAAAAAAAAAAAAAAAAAAAAAAAAAAAAAAAAAAAAAAAAAAAAAAAAAAAAAAAAAAAAAAAAAAAAAAAAAAAAAAAAAAAAAAAAAAAAAAAAAAAAAAAAAAAAAAAAAAAAAAAAAAAAAAAAAAAAAAAAAAAAAAAAAAAAAAAAAAAAAAAAAAAAAAAAAAAAAAAAAAAAAAAAAAAAAAAAAAAAAAAAAAAAAAAAAAAAAAAAAAAAAAAAAAAAAAAAAAAAAAAAAAAAAAAAAAAAAAAAAAAAAAAAAAAAAAAAAAAAAAAAAAAAAAAAAAAAAAAAAAAAAAAAAAAAAAAAAAAAAAAAAAAAAAAAAAAAAAAAAAAAAAAAAAAAAAAAAAAAAAAAAAAAAAAAAAAAAAAAAAAAAAAAAAAAAAAAAAAAAAAAAAAAAAAAAAAAAAAAAAAAAAAAAAAAAAAAAAAAAAAAAAAAAAAAAAAAAAAAAAAAAAAAAAAAAAAAAAAAAAAAAAAAAAAAAAAAAAAAAAAAAAAAAAAAAAAAAAAAAAAAAAAAAAAAAAAAAAAAAAAAAAAAAAAAAAAAAAAAAAAAAAAAAAAAAAAAAAAAAAAAAAAAAAAAAAAAAAAAAAAAAAAAAAAAAAAAAAAAAAAAAAAAAAAAAAAAAAAAAAAAAAAAAAAAAAAAAAAAAAAAAAAAAAAAAAAAAAAAAAAAAAAAAAAAAAAAAAAAAAAAAAAAAAAAAAAAAAAAAAAAAAAAAAAAAAAAAAAAAAAAAAAAAAAAAAAAAAAAAAAAAAAAAAAAAAAAAAAAAAAAAAAAAAAAAAAAAAAAAAAAAAAAAAAAAAAAAAAAAAAAAAAAAAAAAAAAAAAAAAAAAAAAAAAAAAAAAAAAAAAAAAAAAAAAAAAAAAAAAAAAAAAAAAAAAAAAAAAAAAAAAAAAAAAAAAAAAAAAAAAAAAAAAAAAAAAAAAAAAAAAAAAAAAAAAAAAAAAAAAAAAAAAAAAAAAAAAAAAAAAAAAAAAAAAAAAAAAAAAAAAAAAAAAAAAAAAAAAAAAAAAAAAAAAAAAAAAAAAAAAAAAAAAAAAAAAAAAAAAAAAAAAAAAAAAAAAAAAAAAAAAAAAAAAAAAAAAAAAAAAAAAAAAAAAAAAAAAAAAAAAAAAAAAAAAAAAAAAAAAAAAAAAAAAAAAAAAAAAAAAAAAAAAAAAAAAAAAAAAAAAAAAAAAAAAAAAAAAAAAAAAAAAAAAAAAAAAAAAAAAAAAAAAAAAAAAAAAAAAAAAAAAAAAAAAAAAAAAAAAAAAAAAAAAAAAAAAAAAAAAAAAAAAAAAAAAAAAAAAAAAAAAAAAAAAAAAAAAAAAAAAAAAAAAAAAAAAAAAAAAAAAAAAAAAAAAAAAAAAAAAAAAAAAAAAAAAAAAAAAAAAAAAAAAAAAAAAAAAAAAAAAAAAAAAAAAAAAAAAAAAAAAAAAAAAAAAAAAAAAAAAAAAAAAAAAAAAAAAAAAAAAAAAAAAAAAAAAAAAAAAAAAAAAAAAAAAAAAAAAAAAAAAAAAAAAAAAAAAAAAAAAAAAAAAAAAAAAAAAAAAAAAAAAAAAAAAAAAAAAAAAAAAAAAAAAAAAAAAAAAAAAAAAAAAAAAAAAAAAAAAAAAAAAAAAAAAAAAAAAAAAAAAAAAAAAAAAAAAAAAAAAAAAAAAAAAAAAAAAAAAAAAAAAAAAAAAAAAAAAAAAAAAAAAAAAAAAAAAAAAAAAAAAAAAAAAAAAAAAAAAAAAAAAAAAAAAAAAAAAAAAAAAAAAAAAAAAAAAAAAAAAAAAAAAAAAAAAAAAAAAAAAAAAAAAAAAAAAAAAAAAAAAAAAAAAAAAAAAAAAAAAAAAAAAAAAAAAAAAAAAAAAAAAAAAAAAAAAAAAAAAAAAAAAAAAAAAAAAAAAAAAAAAAAAAAAAAAAAAAAAAAAAAAAAAAAAAAAAAAAAAAAAAAAAAAAAAAAAAAAAAAAAAAAAAAAAAAAAAAAAAAAAAAAAAAAAAAAAAAAAAAAAAAAAAAAAAAAAAAAAAAAAAAAAAAAAAAAAAAAAAAAAAAAAAAAAAAAAAAAAAAAAAAAAAAAAAAAAAAAAAAAAAAAAAAAAAAAAAAAAAAAAAAAAAAAAAAAAAAAAAAAAAAAAAAAAAAAAAAAAAAAAAAAAAAAAAAAAAAAAAAAAAAAAAAAAAAAAAAAAAAAAAAAAAAAAAAAAAAAAAAAAAAAAAAAAAAAAAAAAAAAAAAAAAAAAAAAAAAAAAAAAAAAAAAAAAAAAAAAAAAAAAAAAAAAAAAAAAAAAAAAAAAAAAAAAAAAAAAAAAAAAAAAAAAAAAAAAAAAAAAAAAAAAAAAAAAAAAAAAAAAAAAAAAAAAAAAAAAAAAAAAAAAAAAAAAAAAAAAAAAAAAAAAAAAAAAAAAAAAAAAAAAAAAAAAAAAAAAAAAAAAAAAAAAAAAAAAAAAAAAAAAAAAAAAAAAAAAAAAAAAAAAAAAAAAAAAAAAAAAAAAAAAAAAAAAAAAAAAAAAAAAAAAAAAAAAAAAAAAAAAAAAAAAAAAAAAAAAAAAAAAAAAAAAAAAAAAAAAAAAAAAAAAAAAAAAAAAAAAAAAAAAAAAAAAAAAAAAAAAAAAAAAAAAAAAAAAAAAAAAAAAAAAAAAAAAAAAAAAAAAAAAAAAAAAAAAAAAAAAAAAAAAAAAAAAAAAAAAAAAAAAAAAAAAAAAAAAAAAAAAAAAAAPZYQMP/IrlM6rNVe07cRIn8t7dDY1xwv5dxXLwr4I/e+HHM1fwWXggVBF7DUaDGI95UN/5uZOcqmLYcKb6ksFVZGbg=</c2pa:manifest></metadata><rect x="170" y="118" width="130" height="2.4" rx="1.2" ry="1.2" fill="#f59a96" opacity="0.5"/><rect x="196" y="120.6" width="65" height="1.4" rx="0.7" ry="0.7" fill="#f59a96" opacity="0.3"/><rect x="360" y="128" width="90" height="2.4" rx="1.2" ry="1.2" fill="#ffb49a" opacity="0.55"/><rect x="378" y="130.6" width="45" height="1.4" rx="0.7" ry="0.7" fill="#ffb49a" opacity="0.33"/><rect x="520" y="108" width="120" height="2.4" rx="1.2" ry="1.2" fill="#e88a98" opacity="0.45"/><rect x="544" y="110.6" width="60" height="1.4" rx="0.7" ry="0.7" fill="#e88a98" opacity="0.27"/><rect x="700" y="124" width="150" height="2.4" rx="1.2" ry="1.2" fill="#f59a96" opacity="0.45"/><rect x="730" y="126.6" width="75" height="1.4" rx="0.7" ry="0.7" fill="#f59a96" opacity="0.27"/><rect x="60" y="100" width="80" height="2.4" rx="1.2" ry="1.2" fill="#9a70b0" opacity="0.4"/><rect x="76" y="102.6" width="40" height="1.4" rx="0.7" ry="0.7" fill="#9a70b0" opacity="0.24"/><rect x="900" y="112" width="140" height="2.4" rx="1.2" ry="1.2" fill="#e88a98" opacity="0.45"/><rect x="928" y="114.6" width="70" height="1.4" rx="0.7" ry="0.7" fill="#e88a98" opacity="0.27"/><rect x="1150" y="128" width="110" height="2.4" rx="1.2" ry="1.2" fill="#ffb49a" opacity="0.5"/><rect x="1172" y="130.6" width="55" height="1.4" rx="0.7" ry="0.7" fill="#ffb49a" opacity="0.3"/><circle cx="100" cy="60.5" r="11" fill="#f09a98"/><circle cx="111" cy="52.5" r="14" fill="#f09a98"/><circle cx="126" cy="49.5" r="16" fill="#f09a98"/><circle cx="140" cy="56.5" r="12" fill="#f09a98"/><circle cx="150" cy="62.5" r="8" fill="#f09a98"/><circle cx="90" cy="63.5" r="7" fill="#f09a98"/><ellipse cx="120" cy="65.5" rx="38" ry="7" fill="#f09a98"/><circle cx="100" cy="58" r="11" fill="#6e5296"/><circle cx="111" cy="50" r="14" fill="#6e5296"/><circle cx="126" cy="47" r="16" fill="#6e5296"/><circle cx="140" cy="54" r="12" fill="#6e5296"/><circle cx="150" cy="60" r="8" fill="#6e5296"/><circle cx="90" cy="61" r="7" fill="#6e5296"/><ellipse cx="120" cy="63" rx="38" ry="7" fill="#6e5296"/><circle cx="118" cy="44" r="7" fill="#8a6cae" opacity="0.7"/><circle cx="130" cy="45" r="5" fill="#8a6cae" opacity="0.6"/><circle cx="287.6" cy="38.79" r="6.82" fill="#e5808f"/><circle cx="294.42" cy="33.83" r="8.68" fill="#e5808f"/><circle cx="303.72" cy="31.97" r="9.92" fill="#e5808f"/><circle cx="312.4" cy="36.31" r="7.44" fill="#e5808f"/><circle cx="318.6" cy="40.03" r="4.96" fill="#e5808f"/><circle cx="281.4" cy="40.65" r="4.34" fill="#e5808f"/><ellipse cx="300" cy="41.89" rx="23.56" ry="4.34" fill="#e5808f"/><circle cx="287.6" cy="37.24" r="6.82" fill="#5e4888"/><circle cx="294.42" cy="32.28" r="8.68" fill="#5e4888"/><circle cx="303.72" cy="30.42" r="9.92" fill="#5e4888"/><circle cx="312.4" cy="34.76" r="7.44" fill="#5e4888"/><circle cx="318.6" cy="38.48" r="4.96" fill="#5e4888"/><circle cx="281.4" cy="39.1" r="4.34" fill="#5e4888"/><ellipse cx="300" cy="40.34" rx="23.56" ry="4.34" fill="#5e4888"/><circle cx="298.76" cy="28.56" r="4.34" fill="#7c62a4" opacity="0.7"/><circle cx="306.2" cy="29.18" r="3.1" fill="#7c62a4" opacity="0.6"/><circle cx="456" cy="81.15" r="7.7" fill="#ffb09a"/><circle cx="463.7" cy="75.55" r="9.8" fill="#ffb09a"/><circle cx="474.2" cy="73.45" r="11.2" fill="#ffb09a"/><circle cx="484" cy="78.35" r="8.4" fill="#ffb09a"/><circle cx="491" cy="82.55" r="5.6" fill="#ffb09a"/><circle cx="449" cy="83.25" r="4.9" fill="#ffb09a"/><ellipse cx="470" cy="84.65" rx="26.6" ry="4.9" fill="#ffb09a"/><circle cx="456" cy="79.4" r="7.7" fill="#7d5a9c"/><circle cx="463.7" cy="73.8" r="9.8" fill="#7d5a9c"/><circle cx="474.2" cy="71.7" r="11.2" fill="#7d5a9c"/><circle cx="484" cy="76.6" r="8.4" fill="#7d5a9c"/><circle cx="491" cy="80.8" r="5.6" fill="#7d5a9c"/><circle cx="449" cy="81.5" r="4.9" fill="#7d5a9c"/><ellipse cx="470" cy="82.9" rx="26.6" ry="4.9" fill="#7d5a9c"/><circle cx="468.6" cy="69.6" r="4.9" fill="#9a78b4" opacity="0.7"/><circle cx="477" cy="70.3" r="3.5" fill="#9a78b4" opacity="0.6"/><circle cx="623" cy="47.83" r="9.35" fill="#f09a98"/><circle cx="632.35" cy="41.03" r="11.9" fill="#f09a98"/><circle cx="645.1" cy="38.48" r="13.6" fill="#f09a98"/><circle cx="657" cy="44.43" r="10.2" fill="#f09a98"/><circle cx="665.5" cy="49.53" r="6.8" fill="#f09a98"/><circle cx="614.5" cy="50.38" r="5.95" fill="#f09a98"/><ellipse cx="640" cy="52.08" rx="32.3" ry="5.95" fill="#f09a98"/><circle cx="623" cy="45.7" r="9.35" fill="#6e5296"/><circle cx="632.35" cy="38.9" r="11.9" fill="#6e5296"/><circle cx="645.1" cy="36.35" r="13.6" fill="#6e5296"/><circle cx="657" cy="42.3" r="10.2" fill="#6e5296"/><circle cx="665.5" cy="47.4" r="6.8" fill="#6e5296"/><circle cx="614.5" cy="48.25" r="5.95" fill="#6e5296"/><ellipse cx="640" cy="49.95" rx="32.3" ry="5.95" fill="#6e5296"/><circle cx="638.3" cy="33.8" r="5.95" fill="#8a6cae" opacity="0.7"/><circle cx="648.5" cy="34.65" r="4.25" fill="#8a6cae" opacity="0.6"/><circle cx="846" cy="67.15" r="7.7" fill="#e5808f"/><circle cx="853.7" cy="61.55" r="9.8" fill="#e5808f"/><circle cx="864.2" cy="59.45" r="11.2" fill="#e5808f"/><circle cx="874" cy="64.35" r="8.4" fill="#e5808f"/><circle cx="881" cy="68.55" r="5.6" fill="#e5808f"/><circle cx="839" cy="69.25" r="4.9" fill="#e5808f"/><ellipse cx="860" cy="70.65" rx="26.6" ry="4.9" fill="#e5808f"/><circle cx="846" cy="65.4" r="7.7" fill="#5e4888"/><circle cx="853.7" cy="59.8" r="9.8" fill="#5e4888"/><circle cx="864.2" cy="57.7" r="11.2" fill="#5e4888"/><circle cx="874" cy="62.6" r="8.4" fill="#5e4888"/><circle cx="881" cy="66.8" r="5.6" fill="#5e4888"/><circle cx="839" cy="67.5" r="4.9" fill="#5e4888"/><ellipse cx="860" cy="68.9" rx="26.6" ry="4.9" fill="#5e4888"/><circle cx="858.6" cy="55.6" r="4.9" fill="#7c62a4" opacity="0.7"/><circle cx="867" cy="56.3" r="3.5" fill="#7c62a4" opacity="0.6"/><circle cx="1021" cy="44.28" r="10.45" fill="#f09a98"/><circle cx="1031.45" cy="36.67" r="13.3" fill="#f09a98"/><circle cx="1045.7" cy="33.83" r="15.2" fill="#f09a98"/><circle cx="1059" cy="40.48" r="11.4" fill="#f09a98"/><circle cx="1068.5" cy="46.18" r="7.6" fill="#f09a98"/><circle cx="1011.5" cy="47.13" r="6.65" fill="#f09a98"/><ellipse cx="1040" cy="49.03" rx="36.1" ry="6.65" fill="#f09a98"/><circle cx="1021" cy="41.9" r="10.45" fill="#6e5296"/><circle cx="1031.45" cy="34.3" r="13.3" fill="#6e5296"/><circle cx="1045.7" cy="31.45" r="15.2" fill="#6e5296"/><circle cx="1059" cy="38.1" r="11.4" fill="#6e5296"/><circle cx="1068.5" cy="43.8" r="7.6" fill="#6e5296"/><circle cx="1011.5" cy="44.75" r="6.65" fill="#6e5296"/><ellipse cx="1040" cy="46.65" rx="36.1" ry="6.65" fill="#6e5296"/><circle cx="1038.1" cy="28.6" r="6.65" fill="#8a6cae" opacity="0.7"/><circle cx="1049.5" cy="29.55" r="4.75" fill="#8a6cae" opacity="0.6"/><circle cx="1236" cy="73.15" r="7.7" fill="#ffb09a"/><circle cx="1243.7" cy="67.55" r="9.8" fill="#ffb09a"/><circle cx="1254.2" cy="65.45" r="11.2" fill="#ffb09a"/><circle cx="1264" cy="70.35" r="8.4" fill="#ffb09a"/><circle cx="1271" cy="74.55" r="5.6" fill="#ffb09a"/><circle cx="1229" cy="75.25" r="4.9" fill="#ffb09a"/><ellipse cx="1250" cy="76.65" rx="26.6" ry="4.9" fill="#ffb09a"/><circle cx="1236" cy="71.4" r="7.7" fill="#7d5a9c"/><circle cx="1243.7" cy="65.8" r="9.8" fill="#7d5a9c"/><circle cx="1254.2" cy="63.7" r="11.2" fill="#7d5a9c"/><circle cx="1264" cy="68.6" r="8.4" fill="#7d5a9c"/><circle cx="1271" cy="72.8" r="5.6" fill="#7d5a9c"/><circle cx="1229" cy="73.5" r="4.9" fill="#7d5a9c"/><ellipse cx="1250" cy="74.9" rx="26.6" ry="4.9" fill="#7d5a9c"/><circle cx="1248.6" cy="61.6" r="4.9" fill="#9a78b4" opacity="0.7"/><circle cx="1257" cy="62.3" r="3.5" fill="#9a78b4" opacity="0.6"/></svg>