<svg xmlns="http://www.w3.org/2000/svg" viewBox="0 0 1300 104" width="1300" height="104"><defs><clipPath id="bgmeriken4_0"><path d="M257.28 156.66 Q273.8 148.4 287.96 131.88 Q302.12 146.04 321 148.4 Q339.88 141.32 375.28 105.92 Q368.2 136.6 377.64 156.66 Z"/></clipPath></defs><g transform="translate(0 -76)"><path d="M8 171 L8 159 L52 159 Q66 159 70 171 Z" fill="#ece2ee"/><rect x="12" y="153" width="34" height="6" fill="#ece2ee"/><rect x="18" y="148" width="20" height="5" fill="#ece2ee"/><rect x="12" y="153" width="34" height="0.9" fill="#ffcba6" opacity="0.7"/><rect x="11" y="162" width="3" height="2" fill="#ffd98a" opacity="0.9"/><rect x="16.2" y="162" width="3" height="2" fill="#ffd98a" opacity="0.9"/><rect x="21.4" y="162" width="3" height="2" fill="#ffd98a" opacity="0.9"/><rect x="26.6" y="162" width="3" height="2" fill="#ffd98a" opacity="0.9"/><rect x="31.8" y="162" width="3" height="2" fill="#ffd98a" opacity="0.9"/><rect x="37" y="162" width="3" height="2" fill="#ffd98a" opacity="0.9"/><rect x="42.2" y="162" width="3" height="2" fill="#ffd98a" opacity="0.9"/><rect x="47.4" y="162" width="3" height="2" fill="#ffd98a" opacity="0.9"/><rect x="52.6" y="162" width="3" height="2" fill="#ffd98a" opacity="0.9"/><rect x="14" y="155" width="3" height="2" fill="#ffd98a" opacity="0.9"/><rect x="19.2" y="155" width="3" height="2" fill="#9d8fbf" opacity="0.9"/><rect x="24.4" y="155" width="3" height="2" fill="#ffd98a" opacity="0.9"/><rect x="29.6" y="155" width="3" height="2" fill="#9d8fbf" opacity="0.9"/><rect x="34.8" y="155" width="3" height="2" fill="#ffd98a" opacity="0.9"/><rect x="40" y="155" width="3" height="2" fill="#9d8fbf" opacity="0.9"/><rect x="8" y="159" width="3" height="12" fill="#bfb0cf"/><rect x="124" y="95" width="22" height="76" fill="#eee6f2"/><rect x="124" y="95" width="6" height="76" fill="#c4b6d8"/><rect x="144.8" y="95" width="1.2" height="76" fill="#ffc8a4" opacity="0.8"/><rect x="126.5" y="100" width="2" height="1.8" fill="#ffdc94" opacity="0.9"/><rect x="130.3" y="100" width="2" height="1.8" fill="#a898c4" opacity="0.9"/><rect x="134.1" y="100" width="2" height="1.8" fill="#ffdc94" opacity="0.9"/><rect x="137.9" y="100" width="2" height="1.8" fill="#a898c4" opacity="0.9"/><rect x="141.7" y="100" width="2" height="1.8" fill="#a898c4" opacity="0.9"/><rect x="126.5" y="103.2" width="2" height="1.8" fill="#ffdc94" opacity="0.9"/><rect x="130.3" y="103.2" width="2" height="1.8" fill="#a898c4" opacity="0.9"/><rect x="134.1" y="103.2" width="2" height="1.8" fill="#a898c4" opacity="0.9"/><rect x="137.9" y="103.2" width="2" height="1.8" fill="#ffdc94" opacity="0.9"/><rect x="141.7" y="103.2" width="2" height="1.8" fill="#a898c4" opacity="0.9"/><rect x="126.5" y="106.4" width="2" height="1.8" fill="#a898c4" opacity="0.9"/><rect x="130.3" y="106.4" width="2" height="1.8" fill="#ffdc94" opacity="0.9"/><rect x="134.1" y="106.4" width="2" height="1.8" fill="#a898c4" opacity="0.9"/><rect x="137.9" y="106.4" width="2" height="1.8" fill="#ffdc94" opacity="0.9"/><rect x="141.7" y="106.4" width="2" height="1.8" fill="#a898c4" opacity="0.9"/><rect x="126.5" y="109.6" width="2" height="1.8" fill="#a898c4" opacity="0.9"/><rect x="130.3" y="109.6" width="2" height="1.8" fill="#ffdc94" opacity="0.9"/><rect x="134.1" y="109.6" width="2" height="1.8" fill="#a898c4" opacity="0.9"/><rect x="137.9" y="109.6" width="2" height="1.8" fill="#a898c4" opacity="0.9"/><rect x="141.7" y="109.6" width="2" height="1.8" fill="#ffdc94" opacity="0.9"/><rect x="126.5" y="112.8" width="2" height="1.8" fill="#a898c4" opacity="0.9"/><rect x="130.3" y="112.8" width="2" height="1.8" fill="#a898c4" opacity="0.9"/><rect x="134.1" y="112.8" width="2" height="1.8" fill="#ffdc94" opacity="0.9"/><rect x="137.9" y="112.8" width="2" height="1.8" fill="#a898c4" opacity="0.9"/><rect x="141.7" y="112.8" width="2" height="1.8" fill="#ffdc94" opacity="0.9"/><rect x="126.5" y="116" width="2" height="1.8" fill="#a898c4" opacity="0.9"/><rect x="130.3" y="116" width="2" height="1.8" fill="#ffdc94" opacity="0.9"/><rect x="134.1" y="116" width="2" height="1.8" fill="#a898c4" opacity="0.9"/><rect x="137.9" y="116" width="2" height="1.8" fill="#ffdc94" opacity="0.9"/><rect x="141.7" y="116" width="2" height="1.8" fill="#a898c4" opacity="0.9"/><rect x="126.5" y="119.2" width="2" height="1.8" fill="#a898c4" opacity="0.9"/><rect x="130.3" y="119.2" width="2" height="1.8" fill="#ffdc94" opacity="0.9"/><rect x="134.1" y="119.2" width="2" height="1.8" fill="#a898c4" opacity="0.9"/><rect x="137.9" y="119.2" width="2" height="1.8" fill="#a898c4" opacity="0.9"/><rect x="141.7" y="119.2" width="2" height="1.8" fill="#ffdc94" opacity="0.9"/><rect x="126.5" y="122.4" width="2" height="1.8" fill="#a898c4" opacity="0.9"/><rect x="130.3" y="122.4" width="2" height="1.8" fill="#a898c4" opacity="0.9"/><rect x="134.1" y="122.4" width="2" height="1.8" fill="#ffdc94" opacity="0.9"/><rect x="137.9" y="122.4" width="2" height="1.8" fill="#a898c4" opacity="0.9"/><rect x="141.7" y="122.4" width="2" height="1.8" fill="#ffdc94" opacity="0.9"/><rect x="126.5" y="125.6" width="2" height="1.8" fill="#ffdc94" opacity="0.9"/><rect x="130.3" y="125.6" width="2" height="1.8" fill="#a898c4" opacity="0.9"/><rect x="134.1" y="125.6" width="2" height="1.8" fill="#ffdc94" opacity="0.9"/><rect x="137.9" y="125.6" width="2" height="1.8" fill="#a898c4" opacity="0.9"/><rect x="141.7" y="125.6" width="2" height="1.8" fill="#a898c4" opacity="0.9"/><rect x="126.5" y="128.8" width="2" height="1.8" fill="#ffdc94" opacity="0.9"/><rect x="130.3" y="128.8" width="2" height="1.8" fill="#a898c4" opacity="0.9"/><rect x="134.1" y="128.8" width="2" height="1.8" fill="#a898c4" opacity="0.9"/><rect x="137.9" y="128.8" width="2" height="1.8" fill="#ffdc94" opacity="0.9"/><rect x="141.7" y="128.8" width="2" height="1.8" fill="#a898c4" opacity="0.9"/><rect x="126.5" y="132" width="2" height="1.8" fill="#a898c4" opacity="0.9"/><rect x="130.3" y="132" width="2" height="1.8" fill="#a898c4" opacity="0.9"/><rect x="134.1" y="132" width="2" height="1.8" fill="#ffdc94" opacity="0.9"/><rect x="137.9" y="132" width="2" height="1.8" fill="#a898c4" opacity="0.9"/><rect x="141.7" y="132" width="2" height="1.8" fill="#ffdc94" opacity="0.9"/><rect x="126.5" y="135.2" width="2" height="1.8" fill="#ffdc94" opacity="0.9"/><rect x="130.3" y="135.2" width="2" height="1.8" fill="#a898c4" opacity="0.9"/><rect x="134.1" y="135.2" width="2" height="1.8" fill="#ffdc94" opacity="0.9"/><rect x="137.9" y="135.2" width="2" height="1.8" fill="#a898c4" opacity="0.9"/><rect x="141.7" y="135.2" width="2" height="1.8" fill="#a898c4" opacity="0.9"/><rect x="126.5" y="138.4" width="2" height="1.8" fill="#ffdc94" opacity="0.9"/><rect x="130.3" y="138.4" width="2" height="1.8" fill="#a898c4" opacity="0.9"/><rect x="134.1" y="138.4" width="2" height="1.8" fill="#a898c4" opacity="0.9"/><rect x="137.9" y="138.4" width="2" height="1.8" fill="#ffdc94" opacity="0.9"/><rect x="141.7" y="138.4" width="2" height="1.8" fill="#a898c4" opacity="0.9"/><rect x="126.5" y="141.6" width="2" height="1.8" fill="#a898c4" opacity="0.9"/><rect x="130.3" y="141.6" width="2" height="1.8" fill="#ffdc94" opacity="0.9"/><rect x="134.1" y="141.6" width="2" height="1.8" fill="#a898c4" opacity="0.9"/><rect x="137.9" y="141.6" width="2" height="1.8" fill="#ffdc94" opacity="0.9"/><rect x="141.7" y="141.6" width="2" height="1.8" fill="#a898c4" opacity="0.9"/><rect x="126.5" y="144.8" width="2" height="1.8" fill="#a898c4" opacity="0.9"/><rect x="130.3" y="144.8" width="2" height="1.8" fill="#ffdc94" opacity="0.9"/><rect x="134.1" y="144.8" width="2" height="1.8" fill="#a898c4" opacity="0.9"/><rect x="137.9" y="144.8" width="2" height="1.8" fill="#a898c4" opacity="0.9"/><rect x="141.7" y="144.8" width="2" height="1.8" fill="#ffdc94" opacity="0.9"/><rect x="126.5" y="148" width="2" height="1.8" fill="#a898c4" opacity="0.9"/><rect x="130.3" y="148" width="2" height="1.8" fill="#a898c4" opacity="0.9"/><rect x="134.1" y="148" width="2" height="1.8" fill="#ffdc94" opacity="0.9"/><rect x="137.9" y="148" width="2" height="1.8" fill="#a898c4" opacity="0.9"/><rect x="141.7" y="148" width="2" height="1.8" fill="#ffdc94" opacity="0.9"/><rect x="126.5" y="151.2" width="2" height="1.8" fill="#a898c4" opacity="0.9"/><rect x="130.3" y="151.2" width="2" height="1.8" fill="#ffdc94" opacity="0.9"/><rect x="134.1" y="151.2" width="2" height="1.8" fill="#a898c4" opacity="0.9"/><rect x="137.9" y="151.2" width="2" height="1.8" fill="#ffdc94" opacity="0.9"/><rect x="141.7" y="151.2" width="2" height="1.8" fill="#a898c4" opacity="0.9"/><rect x="126.5" y="154.4" width="2" height="1.8" fill="#a898c4" opacity="0.9"/><rect x="130.3" y="154.4" width="2" height="1.8" fill="#ffdc94" opacity="0.9"/><rect x="134.1" y="154.4" width="2" height="1.8" fill="#a898c4" opacity="0.9"/><rect x="137.9" y="154.4" width="2" height="1.8" fill="#a898c4" opacity="0.9"/><rect x="141.7" y="154.4" width="2" height="1.8" fill="#ffdc94" opacity="0.9"/><rect x="126.5" y="157.6" width="2" height="1.8" fill="#a898c4" opacity="0.9"/><rect x="130.3" y="157.6" width="2" height="1.8" fill="#a898c4" opacity="0.9"/><rect x="134.1" y="157.6" width="2" height="1.8" fill="#ffdc94" opacity="0.9"/><rect x="137.9" y="157.6" width="2" height="1.8" fill="#a898c4" opacity="0.9"/><rect x="141.7" y="157.6" width="2" height="1.8" fill="#ffdc94" opacity="0.9"/><rect x="126.5" y="160.8" width="2" height="1.8" fill="#ffdc94" opacity="0.9"/><rect x="130.3" y="160.8" width="2" height="1.8" fill="#a898c4" opacity="0.9"/><rect x="134.1" y="160.8" width="2" height="1.8" fill="#ffdc94" opacity="0.9"/><rect x="137.9" y="160.8" width="2" height="1.8" fill="#a898c4" opacity="0.9"/><rect x="141.7" y="160.8" width="2" height="1.8" fill="#a898c4" opacity="0.9"/><rect x="126.5" y="164" width="2" height="1.8" fill="#ffdc94" opacity="0.9"/><rect x="130.3" y="164" width="2" height="1.8" fill="#a898c4" opacity="0.9"/><rect x="134.1" y="164" width="2" height="1.8" fill="#a898c4" opacity="0.9"/><rect x="137.9" y="164" width="2" height="1.8" fill="#ffdc94" opacity="0.9"/><rect x="141.7" y="164" width="2" height="1.8" fill="#a898c4" opacity="0.9"/><rect x="126.5" y="167.2" width="2" height="1.8" fill="#a898c4" opacity="0.9"/><rect x="130.3" y="167.2" width="2" height="1.8" fill="#a898c4" opacity="0.9"/><rect x="134.1" y="167.2" width="2" height="1.8" fill="#ffdc94" opacity="0.9"/><rect x="137.9" y="167.2" width="2" height="1.8" fill="#a898c4" opacity="0.9"/><rect x="141.7" y="167.2" width="2" height="1.8" fill="#ffdc94" opacity="0.9"/><rect x="122.5" y="93.5" width="25" height="2.4" fill="#d7cce4"/><rect x="127" y="89" width="16" height="4.6" fill="#eee6f2"/><rect x="127" y="89" width="3" height="4.6" fill="#c4b6d8"/><rect x="130" y="86" width="10" height="3" fill="#d7cce4"/><rect x="134.6" y="80" width="0.8" height="6" fill="#c4b6d8"/><circle cx="135" cy="79.5" r="0.9" fill="#ff6a5a"/><rect x="75.34" y="166.5" width="1.32" height="5.5" fill="#3c3058"/><circle cx="72.7" cy="164.3" r="3.96" fill="#40386a"/><circle cx="79.3" cy="164.3" r="3.74" fill="#40386a"/><circle cx="76" cy="161" r="5.06" fill="#51467c"/><circle cx="74.24" cy="159.24" r="1.98" fill="#7a6a9e" opacity="0.8"/><rect x="89.46" y="167.5" width="1.08" height="4.5" fill="#3c3058"/><circle cx="87.3" cy="165.7" r="3.24" fill="#40386a"/><circle cx="92.7" cy="165.7" r="3.06" fill="#40386a"/><circle cx="90" cy="163" r="4.14" fill="#51467c"/><circle cx="88.56" cy="161.56" r="1.62" fill="#7a6a9e" opacity="0.8"/><rect x="103.28" y="166" width="1.44" height="6" fill="#3c3058"/><circle cx="100.4" cy="163.6" r="4.32" fill="#40386a"/><circle cx="107.6" cy="163.6" r="4.08" fill="#40386a"/><circle cx="104" cy="160" r="5.52" fill="#51467c"/><circle cx="102.08" cy="158.08" r="2.16" fill="#7a6a9e" opacity="0.8"/><rect x="153.4" y="167" width="1.2" height="5" fill="#3c3058"/><circle cx="151" cy="165" r="3.6" fill="#40386a"/><circle cx="157" cy="165" r="3.4" fill="#40386a"/><circle cx="154" cy="162" r="4.6" fill="#51467c"/><circle cx="152.4" cy="160.4" r="1.8" fill="#7a6a9e" opacity="0.8"/><rect x="169.25" y="165.75" width="1.5" height="6.25" fill="#3c3058"/><circle cx="166.25" cy="163.25" r="4.5" fill="#40386a"/><circle cx="173.75" cy="163.25" r="4.25" fill="#40386a"/><circle cx="170" cy="159.5" r="5.75" fill="#51467c"/><circle cx="168" cy="157.5" r="2.25" fill="#7a6a9e" opacity="0.8"/><rect x="187.43" y="167.25" width="1.14" height="4.75" fill="#3c3058"/><circle cx="185.15" cy="165.35" r="3.42" fill="#40386a"/><circle cx="190.85" cy="165.35" r="3.23" fill="#40386a"/><circle cx="188" cy="162.5" r="4.37" fill="#51467c"/><circle cx="186.48" cy="160.98" r="1.71" fill="#7a6a9e" opacity="0.8"/><rect x="207.34" y="166.5" width="1.32" height="5.5" fill="#3c3058"/><circle cx="204.7" cy="164.3" r="3.96" fill="#40386a"/><circle cx="211.3" cy="164.3" r="3.74" fill="#40386a"/><circle cx="208" cy="161" r="5.06" fill="#51467c"/><circle cx="206.24" cy="159.24" r="1.98" fill="#7a6a9e" opacity="0.8"/><rect x="225.46" y="167.5" width="1.08" height="4.5" fill="#3c3058"/><circle cx="223.3" cy="165.7" r="3.24" fill="#40386a"/><circle cx="228.7" cy="165.7" r="3.06" fill="#40386a"/><circle cx="226" cy="163" r="4.14" fill="#51467c"/><circle cx="224.56" cy="161.56" r="1.62" fill="#7a6a9e" opacity="0.8"/><rect x="381.34" y="166.5" width="1.32" height="5.5" fill="#3c3058"/><circle cx="378.7" cy="164.3" r="3.96" fill="#40386a"/><circle cx="385.3" cy="164.3" r="3.74" fill="#40386a"/><circle cx="382" cy="161" r="5.06" fill="#51467c"/><circle cx="380.24" cy="159.24" r="1.98" fill="#7a6a9e" opacity="0.8"/><rect x="397.43" y="167.25" width="1.14" height="4.75" fill="#3c3058"/><circle cx="395.15" cy="165.35" r="3.42" fill="#40386a"/><circle cx="400.85" cy="165.35" r="3.23" fill="#40386a"/><circle cx="398" cy="162.5" r="4.37" fill="#51467c"/><circle cx="396.48" cy="160.98" r="1.71" fill="#7a6a9e" opacity="0.8"/><rect x="413.28" y="166" width="1.44" height="6" fill="#3c3058"/><circle cx="410.4" cy="163.6" r="4.32" fill="#40386a"/><circle cx="417.6" cy="163.6" r="4.08" fill="#40386a"/><circle cx="414" cy="160" r="5.52" fill="#51467c"/><circle cx="412.08" cy="158.08" r="2.16" fill="#7a6a9e" opacity="0.8"/><rect x="1173.4" y="167" width="1.2" height="5" fill="#3c3058"/><circle cx="1171" cy="165" r="3.6" fill="#40386a"/><circle cx="1177" cy="165" r="3.4" fill="#40386a"/><circle cx="1174" cy="162" r="4.6" fill="#51467c"/><circle cx="1172.4" cy="160.4" r="1.8" fill="#7a6a9e" opacity="0.8"/><rect x="1193.28" y="166" width="1.44" height="6" fill="#3c3058"/><circle cx="1190.4" cy="163.6" r="4.32" fill="#40386a"/><circle cx="1197.6" cy="163.6" r="4.08" fill="#40386a"/><circle cx="1194" cy="160" r="5.52" fill="#51467c"/><circle cx="1192.08" cy="158.08" r="2.16" fill="#7a6a9e" opacity="0.8"/><rect x="1253.4" y="167" width="1.2" height="5" fill="#3c3058"/><circle cx="1251" cy="165" r="3.6" fill="#40386a"/><circle cx="1257" cy="165" r="3.4" fill="#40386a"/><circle cx="1254" cy="162" r="4.6" fill="#51467c"/><circle cx="1252.4" cy="160.4" r="1.8" fill="#7a6a9e" opacity="0.8"/><rect x="254.92" y="155.48" width="122.72" height="16.52" fill="#d9cde2"/><rect x="254.92" y="155.48" width="122.72" height="1.2" fill="#fff0e0"/><rect x="259.64" y="160.2" width="4.72" height="5.9" fill="#ffd98a" opacity="0.9"/><rect x="267.9" y="160.2" width="4.72" height="5.9" fill="#ffd98a" opacity="0.9"/><rect x="276.16" y="160.2" width="4.72" height="5.9" fill="#ffd98a" opacity="0.9"/><rect x="284.42" y="160.2" width="4.72" height="5.9" fill="#ffd98a" opacity="0.9"/><rect x="292.68" y="160.2" width="4.72" height="5.9" fill="#ffd98a" opacity="0.9"/><rect x="300.94" y="160.2" width="4.72" height="5.9" fill="#ffd98a" opacity="0.9"/><rect x="309.2" y="160.2" width="4.72" height="5.9" fill="#ffd98a" opacity="0.9"/><rect x="317.46" y="160.2" width="4.72" height="5.9" fill="#ffd98a" opacity="0.9"/><rect x="325.72" y="160.2" width="4.72" height="5.9" fill="#ffd98a" opacity="0.9"/><rect x="333.98" y="160.2" width="4.72" height="5.9" fill="#ffd98a" opacity="0.9"/><rect x="342.24" y="160.2" width="4.72" height="5.9" fill="#ffd98a" opacity="0.9"/><rect x="350.5" y="160.2" width="4.72" height="5.9" fill="#ffd98a" opacity="0.9"/><rect x="358.76" y="160.2" width="4.72" height="5.9" fill="#ffd98a" opacity="0.9"/><rect x="367.02" y="160.2" width="4.72" height="5.9" fill="#ffd98a" opacity="0.9"/><path d="M257.28 156.66 Q273.8 148.4 287.96 131.88 Q302.12 146.04 321 148.4 Q339.88 141.32 375.28 105.92 Q368.2 136.6 377.64 156.66 Z" fill="#f6eef6" opacity="0.18"/><g clip-path="url(#bgmeriken4_0)"><path d="M179.4 157.84 L226.6 98.84 M179.4 98.84 L226.6 157.84 M185.3 157.84 L232.5 98.84 M185.3 98.84 L232.5 157.84 M191.2 157.84 L238.4 98.84 M191.2 98.84 L238.4 157.84 M197.10000000000002 157.84 L244.3 98.84 M197.10000000000002 98.84 L244.3 157.84 M203 157.84 L250.2 98.84 M203 98.84 L250.2 157.84 M208.9 157.84 L256.1 98.84 M208.9 98.84 L256.1 157.84 M214.8 157.84 L262 98.84 M214.8 98.84 L262 157.84 M220.7 157.84 L267.9 98.84 M220.7 98.84 L267.9 157.84 M226.6 157.84 L273.8 98.84 M226.6 98.84 L273.8 157.84 M232.5 157.84 L279.7 98.84 M232.5 98.84 L279.7 157.84 M238.4 157.84 L285.6 98.84 M238.4 98.84 L285.6 157.84 M244.3 157.84 L291.5 98.84 M244.3 98.84 L291.5 157.84 M250.2 157.84 L297.4 98.84 M250.2 98.84 L297.4 157.84 M256.1 157.84 L303.3 98.84 M256.1 98.84 L303.3 157.84 M262 157.84 L309.2 98.84 M262 98.84 L309.2 157.84 M267.9 157.84 L315.1 98.84 M267.9 98.84 L315.1 157.84 M273.8 157.84 L321 98.84 M273.8 98.84 L321 157.84 M279.7 157.84 L326.9 98.84 M279.7 98.84 L326.9 157.84 M285.6 157.84 L332.8 98.84 M285.6 98.84 L332.8 157.84 M291.5 157.84 L338.7 98.84 M291.5 98.84 L338.7 157.84 M297.4 157.84 L344.6 98.84 M297.4 98.84 L344.6 157.84 M303.3 157.84 L350.5 98.84 M303.3 98.84 L350.5 157.84 M309.2 157.84 L356.4 98.84 M309.2 98.84 L356.4 157.84 M315.1 157.84 L362.3 98.84 M315.1 98.84 L362.3 157.84 M321 157.84 L368.2 98.84 M321 98.84 L368.2 157.84 M326.9 157.84 L374.1 98.84 M326.9 98.84 L374.1 157.84 M332.8 157.84 L380 98.84 M332.8 98.84 L380 157.84 M338.7 157.84 L385.9 98.84 M338.7 98.84 L385.9 157.84 M344.6 157.84 L391.79999999999995 98.84 M344.6 98.84 L391.79999999999995 157.84 M350.5 157.84 L397.7 98.84 M350.5 98.84 L397.7 157.84 M356.4 157.84 L403.6 98.84 M356.4 98.84 L403.6 157.84 M362.3 157.84 L409.5 98.84 M362.3 98.84 L409.5 157.84 M368.2 157.84 L415.4 98.84 M368.2 98.84 L415.4 157.84 M374.1 157.84 L421.29999999999995 98.84 M374.1 98.84 L421.29999999999995 157.84 M380 157.84 L427.2 98.84 M380 98.84 L427.2 157.84 M385.9 157.84 L433.1 98.84 M385.9 98.84 L433.1 157.84 M391.79999999999995 157.84 L439 98.84 M391.79999999999995 98.84 L439 157.84 M397.7 157.84 L444.9 98.84 M397.7 98.84 L444.9 157.84" fill="none" stroke="#fbf5fb" stroke-width="0.65" opacity="0.95"/></g><path d="M257.28 156.66 Q273.8 148.4 287.96 131.88 Q302.12 146.04 321 148.4 Q339.88 141.32 375.28 105.92 Q368.2 136.6 377.64 156.66 Z" fill="none" stroke="#ffffff" stroke-width="1.3" stroke-linejoin="round"/><rect x="-4" y="170" width="440" height="4" fill="#3f3264"/><rect x="-4" y="170" width="440" height="0.9" fill="#f6b894" opacity="0.8"/><rect x="-4" y="174" width="440" height="1.2" fill="#000000" opacity="0.2"/><circle cx="-1" cy="168.8" r="1.8" fill="#ffe2a0" opacity="0.25"/><circle cx="-1" cy="168.8" r="0.6" fill="#ffe2a0"/><circle cx="6" cy="168.8" r="1.8" fill="#ffe2a0" opacity="0.25"/><circle cx="6" cy="168.8" r="0.6" fill="#ffe2a0"/><circle cx="13" cy="168.8" r="1.8" fill="#ffe2a0" opacity="0.25"/><circle cx="13" cy="168.8" r="0.6" fill="#ffe2a0"/><circle cx="20" cy="168.8" r="1.8" fill="#ffe2a0" opacity="0.25"/><circle cx="20" cy="168.8" r="0.6" fill="#ffe2a0"/><circle cx="27" cy="168.8" r="1.8" fill="#ffe2a0" opacity="0.25"/><circle cx="27" cy="168.8" r="0.6" fill="#ffe2a0"/><circle cx="34" cy="168.8" r="1.8" fill="#ffe2a0" opacity="0.25"/><circle cx="34" cy="168.8" r="0.6" fill="#ffe2a0"/><circle cx="41" cy="168.8" r="1.8" fill="#ffe2a0" opacity="0.25"/><circle cx="41" cy="168.8" r="0.6" fill="#ffe2a0"/><circle cx="48" cy="168.8" r="1.8" fill="#ffe2a0" opacity="0.25"/><circle cx="48" cy="168.8" r="0.6" fill="#ffe2a0"/><circle cx="55" cy="168.8" r="1.8" fill="#ffe2a0" opacity="0.25"/><circle cx="55" cy="168.8" r="0.6" fill="#ffe2a0"/><circle cx="62" cy="168.8" r="1.8" fill="#ffe2a0" opacity="0.25"/><circle cx="62" cy="168.8" r="0.6" fill="#ffe2a0"/><circle cx="69" cy="168.8" r="1.8" fill="#ffe2a0" opacity="0.25"/><circle cx="69" cy="168.8" r="0.6" fill="#ffe2a0"/><circle cx="76" cy="168.8" r="1.8" fill="#ffe2a0" opacity="0.25"/><circle cx="76" cy="168.8" r="0.6" fill="#ffe2a0"/><circle cx="83" cy="168.8" r="1.8" fill="#ffe2a0" opacity="0.25"/><circle cx="83" cy="168.8" r="0.6" fill="#ffe2a0"/><circle cx="90" cy="168.8" r="1.8" fill="#ffe2a0" opacity="0.25"/><circle cx="90" cy="168.8" r="0.6" fill="#ffe2a0"/><circle cx="97" cy="168.8" r="1.8" fill="#ffe2a0" opacity="0.25"/><circle cx="97" cy="168.8" r="0.6" fill="#ffe2a0"/><circle cx="104" cy="168.8" r="1.8" fill="#ffe2a0" opacity="0.25"/><circle cx="104" cy="168.8" r="0.6" fill="#ffe2a0"/><circle cx="111" cy="168.8" r="1.8" fill="#ffe2a0" opacity="0.25"/><circle cx="111" cy="168.8" r="0.6" fill="#ffe2a0"/><circle cx="118" cy="168.8" r="1.8" fill="#ffe2a0" opacity="0.25"/><circle cx="118" cy="168.8" r="0.6" fill="#ffe2a0"/><circle cx="125" cy="168.8" r="1.8" fill="#ffe2a0" opacity="0.25"/><circle cx="125" cy="168.8" r="0.6" fill="#ffe2a0"/><circle cx="132" cy="168.8" r="1.8" fill="#ffe2a0" opacity="0.25"/><circle cx="132" cy="168.8" r="0.6" fill="#ffe2a0"/><circle cx="139" cy="168.8" r="1.8" fill="#ffe2a0" opacity="0.25"/><circle cx="139" cy="168.8" r="0.6" fill="#ffe2a0"/><circle cx="146" cy="168.8" r="1.8" fill="#ffe2a0" opacity="0.25"/><circle cx="146" cy="168.8" r="0.6" fill="#ffe2a0"/><circle cx="153" cy="168.8" r="1.8" fill="#ffe2a0" opacity="0.25"/><circle cx="153" cy="168.8" r="0.6" fill="#ffe2a0"/><circle cx="160" cy="168.8" r="1.8" fill="#ffe2a0" opacity="0.25"/><circle cx="160" cy="168.8" r="0.6" fill="#ffe2a0"/><circle cx="167" cy="168.8" r="1.8" fill="#ffe2a0" opacity="0.25"/><circle cx="167" cy="168.8" r="0.6" fill="#ffe2a0"/><circle cx="174" cy="168.8" r="1.8" fill="#ffe2a0" opacity="0.25"/><circle cx="174" cy="168.8" r="0.6" fill="#ffe2a0"/><circle cx="181" cy="168.8" r="1.8" fill="#ffe2a0" opacity="0.25"/><circle cx="181" cy="168.8" r="0.6" fill="#ffe2a0"/><circle cx="188" cy="168.8" r="1.8" fill="#ffe2a0" opacity="0.25"/><circle cx="188" cy="168.8" r="0.6" fill="#ffe2a0"/><circle cx="195" cy="168.8" r="1.8" fill="#ffe2a0" opacity="0.25"/><circle cx="195" cy="168.8" r="0.6" fill="#ffe2a0"/><circle cx="202" cy="168.8" r="1.8" fill="#ffe2a0" opacity="0.25"/><circle cx="202" cy="168.8" r="0.6" fill="#ffe2a0"/><circle cx="209" cy="168.8" r="1.8" fill="#ffe2a0" opacity="0.25"/><circle cx="209" cy="168.8" r="0.6" fill="#ffe2a0"/><circle cx="216" cy="168.8" r="1.8" fill="#ffe2a0" opacity="0.25"/><circle cx="216" cy="168.8" r="0.6" fill="#ffe2a0"/><circle cx="223" cy="168.8" r="1.8" fill="#ffe2a0" opacity="0.25"/><circle cx="223" cy="168.8" r="0.6" fill="#ffe2a0"/><circle cx="230" cy="168.8" r="1.8" fill="#ffe2a0" opacity="0.25"/><circle cx="230" cy="168.8" r="0.6" fill="#ffe2a0"/><circle cx="237" cy="168.8" r="1.8" fill="#ffe2a0" opacity="0.25"/><circle cx="237" cy="168.8" r="0.6" fill="#ffe2a0"/><circle cx="244" cy="168.8" r="1.8" fill="#ffe2a0" opacity="0.25"/><circle cx="244" cy="168.8" r="0.6" fill="#ffe2a0"/><circle cx="251" cy="168.8" r="1.8" fill="#ffe2a0" opacity="0.25"/><circle cx="251" cy="168.8" r="0.6" fill="#ffe2a0"/><circle cx="258" cy="168.8" r="1.8" fill="#ffe2a0" opacity="0.25"/><circle cx="258" cy="168.8" r="0.6" fill="#ffe2a0"/><circle cx="265" cy="168.8" r="1.8" fill="#ffe2a0" opacity="0.25"/><circle cx="265" cy="168.8" r="0.6" fill="#ffe2a0"/><circle cx="272" cy="168.8" r="1.8" fill="#ffe2a0" opacity="0.25"/><circle cx="272" cy="168.8" r="0.6" fill="#ffe2a0"/><circle cx="279" cy="168.8" r="1.8" fill="#ffe2a0" opacity="0.25"/><circle cx="279" cy="168.8" r="0.6" fill="#ffe2a0"/><circle cx="286" cy="168.8" r="1.8" fill="#ffe2a0" opacity="0.25"/><circle cx="286" cy="168.8" r="0.6" fill="#ffe2a0"/><circle cx="293" cy="168.8" r="1.8" fill="#ffe2a0" opacity="0.25"/><circle cx="293" cy="168.8" r="0.6" fill="#ffe2a0"/><circle cx="300" cy="168.8" r="1.8" fill="#ffe2a0" opacity="0.25"/><circle cx="300" cy="168.8" r="0.6" fill="#ffe2a0"/><circle cx="307" cy="168.8" r="1.8" fill="#ffe2a0" opacity="0.25"/><circle cx="307" cy="168.8" r="0.6" fill="#ffe2a0"/><circle cx="314" cy="168.8" r="1.8" fill="#ffe2a0" opacity="0.25"/><circle cx="314" cy="168.8" r="0.6" fill="#ffe2a0"/><circle cx="321" cy="168.8" r="1.8" fill="#ffe2a0" opacity="0.25"/><circle cx="321" cy="168.8" r="0.6" fill="#ffe2a0"/><circle cx="328" cy="168.8" r="1.8" fill="#ffe2a0" opacity="0.25"/><circle cx="328" cy="168.8" r="0.6" fill="#ffe2a0"/><circle cx="335" cy="168.8" r="1.8" fill="#ffe2a0" opacity="0.25"/><circle cx="335" cy="168.8" r="0.6" fill="#ffe2a0"/><circle cx="342" cy="168.8" r="1.8" fill="#ffe2a0" opacity="0.25"/><circle cx="342" cy="168.8" r="0.6" fill="#ffe2a0"/><circle cx="349" cy="168.8" r="1.8" fill="#ffe2a0" opacity="0.25"/><circle cx="349" cy="168.8" r="0.6" fill="#ffe2a0"/><circle cx="356" cy="168.8" r="1.8" fill="#ffe2a0" opacity="0.25"/><circle cx="356" cy="168.8" r="0.6" fill="#ffe2a0"/><circle cx="363" cy="168.8" r="1.8" fill="#ffe2a0" opacity="0.25"/><circle cx="363" cy="168.8" r="0.6" fill="#ffe2a0"/><circle cx="370" cy="168.8" r="1.8" fill="#ffe2a0" opacity="0.25"/><circle cx="370" cy="168.8" r="0.6" fill="#ffe2a0"/><circle cx="377" cy="168.8" r="1.8" fill="#ffe2a0" opacity="0.25"/><circle cx="377" cy="168.8" r="0.6" fill="#ffe2a0"/><circle cx="384" cy="168.8" r="1.8" fill="#ffe2a0" opacity="0.25"/><circle cx="384" cy="168.8" r="0.6" fill="#ffe2a0"/><circle cx="391" cy="168.8" r="1.8" fill="#ffe2a0" opacity="0.25"/><circle cx="391" cy="168.8" r="0.6" fill="#ffe2a0"/><circle cx="398" cy="168.8" r="1.8" fill="#ffe2a0" opacity="0.25"/><circle cx="398" cy="168.8" r="0.6" fill="#ffe2a0"/><circle cx="405" cy="168.8" r="1.8" fill="#ffe2a0" opacity="0.25"/><circle cx="405" cy="168.8" r="0.6" fill="#ffe2a0"/><circle cx="412" cy="168.8" r="1.8" fill="#ffe2a0" opacity="0.25"/><circle cx="412" cy="168.8" r="0.6" fill="#ffe2a0"/><circle cx="419" cy="168.8" r="1.8" fill="#ffe2a0" opacity="0.25"/><circle cx="419" cy="168.8" r="0.6" fill="#ffe2a0"/><circle cx="426" cy="168.8" r="1.8" fill="#ffe2a0" opacity="0.25"/><circle cx="426" cy="168.8" r="0.6" fill="#ffe2a0"/><circle cx="433" cy="168.8" r="1.8" fill="#ffe2a0" opacity="0.25"/><circle cx="433" cy="168.8" r="0.6" fill="#ffe2a0"/><rect x="1150" y="170" width="154" height="4" fill="#3f3264"/><rect x="1150" y="170" width="154" height="0.9" fill="#f6b894" opacity="0.8"/><rect x="1150" y="174" width="154" height="1.2" fill="#000000" opacity="0.2"/><circle cx="1153" cy="168.8" r="1.8" fill="#ffe2a0" opacity="0.25"/><circle cx="1153" cy="168.8" r="0.6" fill="#ffe2a0"/><circle cx="1160" cy="168.8" r="1.8" fill="#ffe2a0" opacity="0.25"/><circle cx="1160" cy="168.8" r="0.6" fill="#ffe2a0"/><circle cx="1167" cy="168.8" r="1.8" fill="#ffe2a0" opacity="0.25"/><circle cx="1167" cy="168.8" r="0.6" fill="#ffe2a0"/><circle cx="1174" cy="168.8" r="1.8" fill="#ffe2a0" opacity="0.25"/><circle cx="1174" cy="168.8" r="0.6" fill="#ffe2a0"/><circle cx="1181" cy="168.8" r="1.8" fill="#ffe2a0" opacity="0.25"/><circle cx="1181" cy="168.8" r="0.6" fill="#ffe2a0"/><circle cx="1188" cy="168.8" r="1.8" fill="#ffe2a0" opacity="0.25"/><circle cx="1188" cy="168.8" r="0.6" fill="#ffe2a0"/><circle cx="1195" cy="168.8" r="1.8" fill="#ffe2a0" opacity="0.25"/><circle cx="1195" cy="168.8" r="0.6" fill="#ffe2a0"/><circle cx="1202" cy="168.8" r="1.8" fill="#ffe2a0" opacity="0.25"/><circle cx="1202" cy="168.8" r="0.6" fill="#ffe2a0"/><circle cx="1209" cy="168.8" r="1.8" fill="#ffe2a0" opacity="0.25"/><circle cx="1209" cy="168.8" r="0.6" fill="#ffe2a0"/><circle cx="1216" cy="168.8" r="1.8" fill="#ffe2a0" opacity="0.25"/><circle cx="1216" cy="168.8" r="0.6" fill="#ffe2a0"/><circle cx="1223" cy="168.8" r="1.8" fill="#ffe2a0" opacity="0.25"/><circle cx="1223" cy="168.8" r="0.6" fill="#ffe2a0"/><circle cx="1230" cy="168.8" r="1.8" fill="#ffe2a0" opacity="0.25"/><circle cx="1230" cy="168.8" r="0.6" fill="#ffe2a0"/><circle cx="1237" cy="168.8" r="1.8" fill="#ffe2a0" opacity="0.25"/><circle cx="1237" cy="168.8" r="0.6" fill="#ffe2a0"/><circle cx="1244" cy="168.8" r="1.8" fill="#ffe2a0" opacity="0.25"/><circle cx="1244" cy="168.8" r="0.6" fill="#ffe2a0"/><circle cx="1251" cy="168.8" r="1.8" fill="#ffe2a0" opacity="0.25"/><circle cx="1251" cy="168.8" r="0.6" fill="#ffe2a0"/><circle cx="1258" cy="168.8" r="1.8" fill="#ffe2a0" opacity="0.25"/><circle cx="1258" cy="168.8" r="0.6" fill="#ffe2a0"/><circle cx="1265" cy="168.8" r="1.8" fill="#ffe2a0" opacity="0.25"/><circle cx="1265" cy="168.8" r="0.6" fill="#ffe2a0"/><circle cx="1272" cy="168.8" r="1.8" fill="#ffe2a0" opacity="0.25"/><circle cx="1272" cy="168.8" r="0.6" fill="#ffe2a0"/><circle cx="1279" cy="168.8" r="1.8" fill="#ffe2a0" opacity="0.25"/><circle cx="1279" cy="168.8" r="0.6" fill="#ffe2a0"/><circle cx="1286" cy="168.8" r="1.8" fill="#ffe2a0" opacity="0.25"/><circle cx="1286" cy="168.8" r="0.6" fill="#ffe2a0"/><circle cx="1293" cy="168.8" r="1.8" fill="#ffe2a0" opacity="0.25"/><circle cx="1293" cy="168.8" r="0.6" fill="#ffe2a0"/><circle cx="1300" cy="168.8" r="1.8" fill="#ffe2a0" opacity="0.25"/><circle cx="1300" cy="168.8" r="0.6" fill="#ffe2a0"/><rect x="-4" y="175" width="440" height="4" fill="#2c2458" opacity="0.25"/></g></svg>