<svg xmlns="http://www.w3.org/2000/svg" viewBox="0 0 1400 150" width="1400" height="150" xmlns:c2pa="http://c2pa.org/manifest"><metadata><c2pa:manifest>AAAWgmp1bWIAAAAeanVtZGMycGEAEQAQgAAAqgA4m3EDYzJwYQAAABZcanVtYgAAAEdqdW1kYzJtYQARABCAAACqADibcQN1cm46YzJwYTozMWU0OTJjMS04NWRhLTQ3NDItOTIxMS0yMGI5YTM4NWE2NTEAAAADl2p1bWIAAAApanVtZGMyYXMAEQAQgAAAqgA4m3EDYzJwYS5hc3NlcnRpb25zAAAAALxqdW1iAAAARGp1bWRjYm9yABEAEIAAAKoAOJtxE2MycGEuaW5ncmVkaWVudC52MwAAAAAYYzJzaC6yBnOj0VzcoNxrSm71mywAAABwY2JvcqNpZGM6Zm9ybWF0bWltYWdlL3N2Zyt4bWxqaW5zdGFuY2VJRHgseG1wOmlpZDphNDQ2MzVkOC1hYjFlLTQ3YWYtODliZS1jZjU5OGFhYzYwNTRscmVsYXRpb25zaGlwaHBhcmVudE9mAAAB4mp1bWIAAABBanVtZGNib3IAEQAQgAAAqgA4m3ETYzJwYS5hY3Rpb25zLnYyAAAAABhjMnNopgCa5okKgfcZWcAiHGR+XQAAAZljYm9yomdhY3Rpb25zgqJmYWN0aW9ua2MycGEub3BlbmVkanBhcmFtZXRlcnOha2luZ3JlZGllbnRzgaJjdXJseC1zZWxmI2p1bWJmPWMycGEuYXNzZXJ0aW9ucy9jMnBhLmluZ3JlZGllbnQudjNkaGFzaFggAtfJ4WG/e6EkkV/Y+0OuK8ji7A1ZD6hx/ikS5zbKDbikZmFjdGlvbngdY29tLmFudGhyb3BpYy5jbGF1ZGUucHJvdmlkZWRqcGFyYW1ldGVyc6F4H2NvbS5hbnRocm9waWMub3JpZ2luLWNvbmZpZGVuY2VndW5rbm93bmtkZXNjcmlwdGlvbnhmQ2xhdWRlIHByb3ZpZGVkIHRoaXMgZmlsZSBhdCB0aGUgcmVxdWVzdCBvZiBhIHVzZXIgYW5kIG1heSBoYXZlIGNyZWF0ZWQgb3IgbW9kaWZpZWQgdGhlIGZpbGUgY29udGVudHMubXNvZnR3YXJlQWdlbnShZG5hbWVmQ2xhdWRlcmFsbEFjdGlvbnNJbmNsdWRlZPUAAADIanVtYgAAAEBqdW1kY2JvcgARABCAAACqADibcRNjMnBhLmhhc2guZGF0YQAAAAAYYzJzaKY1jeyN3zSjqbcNhYOkLkQAAACAY2JvcqVjYWxnZnNoYTI1NmNwYWRNAAAAAAAAAAAAAAAAAGRoYXNoWCBj7FrNJDYZ20iBC3anjgq+NiDTAaQXQYv2LxnlO97y1mRuYW1lbmp1bWJmIG1hbmlmZXN0amV4Y2x1c2lvbnOBomVzdGFydBiYZmxlbmd0aBkeBAAAAj5qdW1iAAAAJ2p1bWRjMmNsABEAEIAAAKoAOJtxA2MycGEuY2xhaW0udjIAAAACD2Nib3KlY2FsZ2ZzaGEyNTZpc2lnbmF0dXJleE1zZWxmI2p1bWJmPS9jMnBhL3VybjpjMnBhOjMxZTQ5MmMxLTg1ZGEtNDc0Mi05MjExLTIwYjlhMzg1YTY1MS9jMnBhLnNpZ25hdHVyZWppbnN0YW5jZUlEeCx4bXA6aWlkOjlhNWQwYjg4LTc4YzQtNDZiYy1iMDExLTRlNTFiY2FmZWNhNnJjcmVhdGVkX2Fzc2VydGlvbnODomN1cmx4LXNlbGYjanVtYmY9YzJwYS5hc3NlcnRpb25zL2MycGEuaW5ncmVkaWVudC52M2RoYXNoWCAC18nhYb97oSSRX9j7Q64ryOLsDVkPqHH+KRLnNsoNuKJjdXJseCpzZWxmI2p1bWJmPWMycGEuYXNzZXJ0aW9ucy9jMnBhLmFjdGlvbnMudjJkaGFzaFggR7acZHuhmCLOb/gkCNqAQEA8MzFWibfeXkPNSkh9EAyiY3VybHgpc2VsZiNqdW1iZj1jMnBhLmFzc2VydGlvbnMvYzJwYS5oYXNoLmRhdGFkaGFzaFggnSURD5izXUBqzgGzjHhBDFRp63VPew7MP3I40SIP3NR0Y2xhaW1fZ2VuZXJhdG9yX2luZm+jZG5hbWVvQW50aHJvcGljIEZpbGVzZ3ZlcnNpb25lMS4wLjBrc3BlY1ZlcnNpb25lMi40LjAAABA4anVtYgAAAChqdW1kYzJjcwARABCAAACqADibcQNjMnBhLnNpZ25hdHVyZQAAABAIY2JvctKEWQISogEmGCFZAgowggIGMIIBjaADAgECAhRA5aAK7sI50L64g/oGQgU9Z1UTADAKBggqhkjOPQQDAzBJMRcwFQYDVQQKEw5BbnRocm9waWMsIFBCQzEuMCwGA1UEAxMlQW50aHJvcGljIENvbnRlbnQgQ3JlZGVudGlhbHMgUm9vdCBDQTAeFw0yNjA4MDcxODQzNTZaFw0yODA4MDYxOTQzNTZaMEQxFzAVBgNVBAoTDkFudGhyb3BpYywgUEJDMSkwJwYDVQQDEyBBbnRocm9waWMgQ2xhdWRlIENvbnRlbnQgU2lnbmluZzBZMBMGByqGSM49AgEGCCqGSM49AwEHA0IABJh6CmvLUBgFFNU0vUKlOVtE6djd17L5SuwX0LemFisBM3dkd/3cyjxFA3Qo5S46fX0/ihY0VZ7mfb9KF703t5OjWDBWMA4GA1UdDwEB/wQEAwIHgDAVBgNVHSUEDjAMBgorBgEEAYPoXgIBMAwGA1UdEwEB/wQCMAAwHwYDVR0jBBgwFoAUzlHiBIFOZFsj+OPEz5o+nMHXXMIwCgYIKoZIzj0EAwMDZwAwZAIwMXMdFJ4BetLLVY7ORuE9noqbbAZOZn/aArXyTwFAZfKrPzxF2vPoJNf1+UCdg1XGAjBwX1zd9WGqYkqmL5SFqw1QySjr1zJfpJM9+1rdDwSPLMOPOjKuiXjoU/pUUeG9RwmhY3BhZFkNngAAAAAAAAAAAAAAAAAAAAAAAAAAAAAAAAAAAAAAAAAAAAAAAAAAAAAAAAAAAAAAAAAAAAAAAAAAAAAAAAAAAAAAAAAAAAAAAAAAAAAAAAAAAAAAAAAAAAAAAAAAAAAAAAAAAAAAAAAAAAAAAAAAAAAAAAAAAAAAAAAAAAAAAAAAAAAAAAAAAAAAAAAAAAAAAAAAAAAAAAAAAAAAAAAAAAAAAAAAAAAAAAAAAAAAAAAAAAAAAAAAAAAAAAAAAAAAAAAAAAAAAAAAAAAAAAAAAAAAAAAAAAAAAAAAAAAAAAAAAAAAAAAAAAAAAAAAAAAAAAAAAAAAAAAAAAAAAAAAAAAAAAAAAAAAAAAAAAAAAAAAAAAAAAAAAAAAAAAAAAAAAAAAAAAAAAAAAAAAAAAAAAAAAAAAAAAAAAAAAAAAAAAAAAAAAAAAAAAAAAAAAAAAAAAAAAAAAAAAAAAAAAAAAAAAAAAAAAAAAAAAAAAAAAAAAAAAAAAAAAAAAAAAAAAAAAAAAAAAAAAAAAAAAAAAAAAAAAAAAAAAAAAAAAAAAAAAAAAAAAAAAAAAAAAAAAAAAAAAAAAAAAAAAAAAAAAAAAAAAAAAAAAAAAAAAAAAAAAAAAAAAAAAAAAAAAAAAAAAAAAAAAAAAAAAAAAAAAAAAAAAAAAAAAAAAAAAAAAAAAAAAAAAAAAAAAAAAAAAAAAAAAAAAAAAAAAAAAAAAAAAAAAAAAAAAAAAAAAAAAAAAAAAAAAAAAAAAAAAAAAAAAAAAAAAAAAAAAAAAAAAAAAAAAAAAAAAAAAAAAAAAAAAAAAAAAAAAAAAAAAAAAAAAAAAAAAAAAAAAAAAAAAAAAAAAAAAAAAAAAAAAAAAAAAAAAAAAAAAAAAAAAAAAAAAAAAAAAAAAAAAAAAAAAAAAAAAAAAAAAAAAAAAAAAAAAAAAAAAAAAAAAAAAAAAAAAAAAAAAAAAAAAAAAAAAAAAAAAAAAAAAAAAAAAAAAAAAAAAAAAAAAAAAAAAAAAAAAAAAAAAAAAAAAAAAAAAAAAAAAAAAAAAAAAAAAAAAAAAAAAAAAAAAAAAAAAAAAAAAAAAAAAAAAAAAAAAAAAAAAAAAAAAAAAAAAAAAAAAAAAAAAAAAAAAAAAAAAAAAAAAAAAAAAAAAAAAAAAAAAAAAAAAAAAAAAAAAAAAAAAAAAAAAAAAAAAAAAAAAAAAAAAAAAAAAAAAAAAAAAAAAAAAAAAAAAAAAAAAAAAAAAAAAAAAAAAAAAAAAAAAAAAAAAAAAAAAAAAAAAAAAAAAAAAAAAAAAAAAAAAAAAAAAAAAAAAAAAAAAAAAAAAAAAAAAAAAAAAAAAAAAAAAAAAAAAAAAAAAAAAAAAAAAAAAAAAAAAAAAAAAAAAAAAAAAAAAAAAAAAAAAAAAAAAAAAAAAAAAAAAAAAAAAAAAAAAAAAAAAAAAAAAAAAAAAAAAAAAAAAAAAAAAAAAAAAAAAAAAAAAAAAAAAAAAAAAAAAAAAAAAAAAAAAAAAAAAAAAAAAAAAAAAAAAAAAAAAAAAAAAAAAAAAAAAAAAAAAAAAAAAAAAAAAAAAAAAAAAAAAAAAAAAAAAAAAAAAAAAAAAAAAAAAAAAAAAAAAAAAAAAAAAAAAAAAAAAAAAAAAAAAAAAAAAAAAAAAAAAAAAAAAAAAAAAAAAAAAAAAAAAAAAAAAAAAAAAAAAAAAAAAAAAAAAAAAAAAAAAAAAAAAAAAAAAAAAAAAAAAAAAAAAAAAAAAAAAAAAAAAAAAAAAAAAAAAAAAAAAAAAAAAAAAAAAAAAAAAAAAAAAAAAAAAAAAAAAAAAAAAAAAAAAAAAAAAAAAAAAAAAAAAAAAAAAAAAAAAAAAAAAAAAAAAAAAAAAAAAAAAAAAAAAAAAAAAAAAAAAAAAAAAAAAAAAAAAAAAAAAAAAAAAAAAAAAAAAAAAAAAAAAAAAAAAAAAAAAAAAAAAAAAAAAAAAAAAAAAAAAAAAAAAAAAAAAAAAAAAAAAAAAAAAAAAAAAAAAAAAAAAAAAAAAAAAAAAAAAAAAAAAAAAAAAAAAAAAAAAAAAAAAAAAAAAAAAAAAAAAAAAAAAAAAAAAAAAAAAAAAAAAAAAAAAAAAAAAAAAAAAAAAAAAAAAAAAAAAAAAAAAAAAAAAAAAAAAAAAAAAAAAAAAAAAAAAAAAAAAAAAAAAAAAAAAAAAAAAAAAAAAAAAAAAAAAAAAAAAAAAAAAAAAAAAAAAAAAAAAAAAAAAAAAAAAAAAAAAAAAAAAAAAAAAAAAAAAAAAAAAAAAAAAAAAAAAAAAAAAAAAAAAAAAAAAAAAAAAAAAAAAAAAAAAAAAAAAAAAAAAAAAAAAAAAAAAAAAAAAAAAAAAAAAAAAAAAAAAAAAAAAAAAAAAAAAAAAAAAAAAAAAAAAAAAAAAAAAAAAAAAAAAAAAAAAAAAAAAAAAAAAAAAAAAAAAAAAAAAAAAAAAAAAAAAAAAAAAAAAAAAAAAAAAAAAAAAAAAAAAAAAAAAAAAAAAAAAAAAAAAAAAAAAAAAAAAAAAAAAAAAAAAAAAAAAAAAAAAAAAAAAAAAAAAAAAAAAAAAAAAAAAAAAAAAAAAAAAAAAAAAAAAAAAAAAAAAAAAAAAAAAAAAAAAAAAAAAAAAAAAAAAAAAAAAAAAAAAAAAAAAAAAAAAAAAAAAAAAAAAAAAAAAAAAAAAAAAAAAAAAAAAAAAAAAAAAAAAAAAAAAAAAAAAAAAAAAAAAAAAAAAAAAAAAAAAAAAAAAAAAAAAAAAAAAAAAAAAAAAAAAAAAAAAAAAAAAAAAAAAAAAAAAAAAAAAAAAAAAAAAAAAAAAAAAAAAAAAAAAAAAAAAAAAAAAAAAAAAAAAAAAAAAAAAAAAAAAAAAAAAAAAAAAAAAAAAAAAAAAAAAAAAAAAAAAAAAAAAAAAAAAAAAAAAAAAAAAAAAAAAAAAAAAAAAAAAAAAAAAAAAAAAAAAAAAAAAAAAAAAAAAAAAAAAAAAAAAAAAAAAAAAAAAAAAAAAAAAAAAAAAAAAAAAAAAAAAAAAAAAAAAAAAAAAAAAAAAAAAAAAAAAAAAAAAAAAAAAAAAAAAAAAAAAAAAAAAAAAAAAAAAAAAAAAAAAAAAAAAAAAAAAAAAAAAAAAAAAAAAAAAAAAAAAAAAAAAAAAAAAAAAAAAAAAAAAAAAAAAAAAAAAAAAAAAAAAAAAAAAAAAAAAAAAAAAAAAAAAAAAAAAAAAAAAAAAAAAAAAAAAAAAAAAAAAAAAAAAAAAAAAAAAAAAAAAAAAAAAAAAAAAAAAAAAAAAAAAAAAAAAAAAAAAAAAAAAAAAAAAAAAAAAAAAAAAAAAAAAAAAAAAAAAAAAAAAAAAAAAAAAAAAAAAAAAAAAAAAAAAAAAAAAAAAAAAAAAAAAAAAAAAAAAAAAAAAAAAAAAAAAAAAAAAAAAAAAAAAAAAAAAAAAAAAAAAAAAAAAAAAAAAAAAAAAAAAAAAAAAAAAAAAAAAAAAAAAAAAAAAAAAAAAAAAAAAAAAAAAAAAAAAAAAAAAAAAAAAAAAAAAAAAAAAAAAAAAAAAAAAAAAAAAAAAAAAAAAAAAAAAAAAAAAAAAAAAAAAAAAAAAAAAAAAAAAAAAAAAAAAAAAAAAAAAAAAAAAAAAAAAAAAAAAAAAAAAAAAAAAAAAAAAAAAAAAAAAAAAAAAAAAAAAAAAAAAAAAAAAAAAAAAAAAAAAAAAAAAAAAAAAAAAAAAAAAAAAAAAAAAAAAAAAAAAAAAAAAAAAAAAAAAAAAAAAAAAAAAAAAAAAAAAAAAAAAAAAAAAAAAAAAAAAAAAAAAAAAAAAAAAAAAAAAAAAAAAAAAAAAAAAAAAAAAAAAAAAAAAAAAAAAAAAAAAAAAAAAAAAAAAAAAAAAAAAAAAAAAAAAAAAAAAAAAAAAAAAAAAAAAAAAAAAAAAAAAAAAAAAAAAAAAAAAAAAAAAAAAAAAAAAAAAAAAAAAAAAAAAAAAAAAAAAAAAAAAAAAAAAAAAAAAAAAAAAAAAAAAAAAAAAAAAAAAAAAAAAAAAAAAAAAAAAAAAAAAAAAAAAAAAAAAAAAAAAAAAAAAAAAAAAAAAAAAAAAAAAAAAAAAAAAAAAAAAAAAAAAAAAAAAAAAAAAAAAAAAAAAAAAAAAAAAAAAAAAAAAAAAAAAAAAAAAAAAAAAAAAAAAAAAAAAAAAAAAAAAAAAAAAAAAAAAAAAAAAAAAAAAAAAAAAAAAAAAAAAAAAAAAAAAAAAAAAAAAAAAAAAAAAAAAAAAAAAAAAAAAAAAAAAAAAAAAAAAAAAAAAAAAAAAAAAAAAAAAAAAAAAAAAAAAAAAAAAAAAAAAAAAAAAAAAAAAAAAAAAAAAAAAAAAAAAAAAAAAAAAAAAAAAAAAAAAAAAAAAAAAAAAAAAAAAAAAAAAAAAAAAAAAAAAAAAAAAAAAAAAAAAAAAAAAAAAAAAAAAAAAAAAAAAAAAAAAAAAAAAAAAAAAAAAAAAAAAAAAAAAAAAAAAAAAAAAAAAAAAAAAAAAAAAAAAAAAAAAAAAAAAAAAAAAAAAAAAAAAAAAAAAAAAAAAAAAAAAAAAAAAAAAAAAAAAAAAAAAAAAAAAAAAAAAAAAAAAAAAAAAAAAAAAAAAAAAAAAAAAAAAAAAAAAAAAAAAAAAAPZYQIZ/txRN5ZnW8IeTl5gNqAtEIVv9uVeFDCtlgotB9YIALu3YXZCkr7HpZen9E30tZDY8GavSN3IS709ZFrwSUkk=</c2pa:manifest></metadata><circle cx="224" cy="131.6" r="14.4" fill="#d6e7f2"/><circle cx="240.2" cy="122.6" r="18" fill="#d6e7f2"/><circle cx="260" cy="119" r="19.8" fill="#d6e7f2"/><circle cx="279.8" cy="124.4" r="17.1" fill="#d6e7f2"/><circle cx="297.8" cy="133.4" r="12.6" fill="#d6e7f2"/><circle cx="247.4" cy="101" r="16.2" fill="#d6e7f2"/><circle cx="269" cy="97.4" r="18" fill="#d6e7f2"/><circle cx="258.2" cy="79.4" r="15.3" fill="#d6e7f2"/><circle cx="276.2" cy="77.6" r="11.7" fill="#d6e7f2"/><circle cx="243.8" cy="83" r="10.8" fill="#d6e7f2"/><circle cx="263.6" cy="63.2" r="11.7" fill="#d6e7f2"/><ellipse cx="260" cy="140.6" rx="48.6" ry="7.2" fill="#d6e7f2"/><circle cx="224" cy="128" r="14.4" fill="#f4fafd"/><circle cx="240.2" cy="119" r="18" fill="#f4fafd"/><circle cx="260" cy="115.4" r="19.8" fill="#f4fafd"/><circle cx="279.8" cy="120.8" r="17.1" fill="#f4fafd"/><circle cx="297.8" cy="129.8" r="12.6" fill="#f4fafd"/><circle cx="247.4" cy="97.4" r="16.2" fill="#f4fafd"/><circle cx="269" cy="93.8" r="18" fill="#f4fafd"/><circle cx="258.2" cy="75.8" r="15.3" fill="#f4fafd"/><circle cx="276.2" cy="74" r="11.7" fill="#f4fafd"/><circle cx="243.8" cy="79.4" r="10.8" fill="#f4fafd"/><circle cx="263.6" cy="59.6" r="11.7" fill="#f4fafd"/><ellipse cx="260" cy="137" rx="48.6" ry="7.2" fill="#f4fafd"/><ellipse cx="260" cy="137" rx="41.4" ry="4.5" fill="#d6e7f2" opacity="0.5"/><circle cx="251" cy="74" r="6.3" fill="#ffffff" opacity="0.85"/><circle cx="236.6" cy="93.8" r="6.3" fill="#ffffff" opacity="0.85"/><circle cx="256.4" cy="52.4" r="4.5" fill="#ffffff" opacity="0.85"/><circle cx="229.4" cy="117.2" r="5.4" fill="#ffffff" opacity="0.85"/><circle cx="936" cy="130.4" r="17.6" fill="#d6e7f2"/><circle cx="955.8" cy="119.4" r="22" fill="#d6e7f2"/><circle cx="980" cy="115" r="24.2" fill="#d6e7f2"/><circle cx="1004.2" cy="121.6" r="20.9" fill="#d6e7f2"/><circle cx="1026.2" cy="132.6" r="15.4" fill="#d6e7f2"/><circle cx="964.6" cy="93" r="19.8" fill="#d6e7f2"/><circle cx="991" cy="88.6" r="22" fill="#d6e7f2"/><circle cx="977.8" cy="66.6" r="18.7" fill="#d6e7f2"/><circle cx="999.8" cy="64.4" r="14.3" fill="#d6e7f2"/><circle cx="960.2" cy="71" r="13.2" fill="#d6e7f2"/><circle cx="984.4" cy="46.8" r="14.3" fill="#d6e7f2"/><ellipse cx="980" cy="141.4" rx="59.4" ry="8.8" fill="#d6e7f2"/><circle cx="936" cy="126" r="17.6" fill="#f4fafd"/><circle cx="955.8" cy="115" r="22" fill="#f4fafd"/><circle cx="980" cy="110.6" r="24.2" fill="#f4fafd"/><circle cx="1004.2" cy="117.2" r="20.9" fill="#f4fafd"/><circle cx="1026.2" cy="128.2" r="15.4" fill="#f4fafd"/><circle cx="964.6" cy="88.6" r="19.8" fill="#f4fafd"/><circle cx="991" cy="84.2" r="22" fill="#f4fafd"/><circle cx="977.8" cy="62.2" r="18.7" fill="#f4fafd"/><circle cx="999.8" cy="60" r="14.3" fill="#f4fafd"/><circle cx="960.2" cy="66.6" r="13.2" fill="#f4fafd"/><circle cx="984.4" cy="42.4" r="14.3" fill="#f4fafd"/><ellipse cx="980" cy="137" rx="59.4" ry="8.8" fill="#f4fafd"/><ellipse cx="980" cy="137" rx="50.6" ry="5.5" fill="#d6e7f2" opacity="0.5"/><circle cx="969" cy="60" r="7.7" fill="#ffffff" opacity="0.85"/><circle cx="951.4" cy="84.2" r="7.7" fill="#ffffff" opacity="0.85"/><circle cx="975.6" cy="33.6" r="5.5" fill="#ffffff" opacity="0.85"/><circle cx="942.6" cy="112.8" r="6.6" fill="#ffffff" opacity="0.85"/><circle cx="1232" cy="134.8" r="11.2" fill="#d6e7f2"/><circle cx="1244.6" cy="127.8" r="14" fill="#d6e7f2"/><circle cx="1260" cy="125" r="15.4" fill="#d6e7f2"/><circle cx="1275.4" cy="129.2" r="13.3" fill="#d6e7f2"/><circle cx="1289.4" cy="136.2" r="9.8" fill="#d6e7f2"/><circle cx="1250.2" cy="111" r="12.6" fill="#d6e7f2"/><circle cx="1267" cy="108.2" r="14" fill="#d6e7f2"/><circle cx="1258.6" cy="94.2" r="11.9" fill="#d6e7f2"/><circle cx="1272.6" cy="92.8" r="9.1" fill="#d6e7f2"/><circle cx="1247.4" cy="97" r="8.4" fill="#d6e7f2"/><circle cx="1262.8" cy="81.6" r="9.1" fill="#d6e7f2"/><ellipse cx="1260" cy="141.8" rx="37.8" ry="5.6" fill="#d6e7f2"/><circle cx="1232" cy="132" r="11.2" fill="#f4fafd"/><circle cx="1244.6" cy="125" r="14" fill="#f4fafd"/><circle cx="1260" cy="122.2" r="15.4" fill="#f4fafd"/><circle cx="1275.4" cy="126.4" r="13.3" fill="#f4fafd"/><circle cx="1289.4" cy="133.4" r="9.8" fill="#f4fafd"/><circle cx="1250.2" cy="108.2" r="12.6" fill="#f4fafd"/><circle cx="1267" cy="105.4" r="14" fill="#f4fafd"/><circle cx="1258.6" cy="91.4" r="11.9" fill="#f4fafd"/><circle cx="1272.6" cy="90" r="9.1" fill="#f4fafd"/><circle cx="1247.4" cy="94.2" r="8.4" fill="#f4fafd"/><circle cx="1262.8" cy="78.8" r="9.1" fill="#f4fafd"/><ellipse cx="1260" cy="139" rx="37.8" ry="5.6" fill="#f4fafd"/><ellipse cx="1260" cy="139" rx="32.2" ry="3.5" fill="#d6e7f2" opacity="0.5"/><circle cx="1253" cy="90" r="4.9" fill="#ffffff" opacity="0.85"/><circle cx="1241.8" cy="105.4" r="4.9" fill="#ffffff" opacity="0.85"/><circle cx="1257.2" cy="73.2" r="3.5" fill="#ffffff" opacity="0.85"/><circle cx="1236.2" cy="123.6" r="4.2" fill="#ffffff" opacity="0.85"/><circle cx="53.4" cy="40.5" r="9" fill="#d5e5f2"/><circle cx="64.2" cy="31.5" r="12.6" fill="#d5e5f2"/><circle cx="78.6" cy="26.1" r="15.3" fill="#d5e5f2"/><circle cx="94.8" cy="30.6" r="12.6" fill="#d5e5f2"/><circle cx="107.4" cy="38.7" r="9" fill="#d5e5f2"/><circle cx="87.6" cy="18.9" r="9.9" fill="#d5e5f2"/><circle cx="69.6" cy="20.7" r="8.1" fill="#d5e5f2"/><ellipse cx="80.4" cy="44.1" rx="36" ry="6.3" fill="#d5e5f2"/><circle cx="53.4" cy="37.8" r="9" fill="#ffffff"/><circle cx="64.2" cy="28.8" r="12.6" fill="#ffffff"/><circle cx="78.6" cy="23.4" r="15.3" fill="#ffffff"/><circle cx="94.8" cy="27.9" r="12.6" fill="#ffffff"/><circle cx="107.4" cy="36" r="9" fill="#ffffff"/><circle cx="87.6" cy="16.2" r="9.9" fill="#ffffff"/><circle cx="69.6" cy="18" r="8.1" fill="#ffffff"/><ellipse cx="80.4" cy="41.4" rx="36" ry="6.3" fill="#ffffff"/><ellipse cx="82.2" cy="42.3" rx="30.6" ry="3.6" fill="#d5e5f2" opacity="0.55"/><circle cx="73.2" cy="18" r="6.3" fill="#ffffff" opacity="0.8"/><circle cx="62.4" cy="27" r="4.5" fill="#ffffff" opacity="0.7"/><circle cx="84" cy="12.6" r="4.5" fill="#ffffff" opacity="0.6"/><circle cx="424.12" cy="61.1" r="6.2" fill="#d5e5f2"/><circle cx="431.56" cy="54.9" r="8.68" fill="#d5e5f2"/><circle cx="441.48" cy="51.18" r="10.54" fill="#d5e5f2"/><circle cx="452.64" cy="54.28" r="8.68" fill="#d5e5f2"/><circle cx="461.32" cy="59.86" r="6.2" fill="#d5e5f2"/><circle cx="447.68" cy="46.22" r="6.82" fill="#d5e5f2"/><circle cx="435.28" cy="47.46" r="5.58" fill="#d5e5f2"/><ellipse cx="442.72" cy="63.58" rx="24.8" ry="4.34" fill="#d5e5f2"/><circle cx="424.12" cy="59.24" r="6.2" fill="#ffffff"/><circle cx="431.56" cy="53.04" r="8.68" fill="#ffffff"/><circle cx="441.48" cy="49.32" r="10.54" fill="#ffffff"/><circle cx="452.64" cy="52.42" r="8.68" fill="#ffffff"/><circle cx="461.32" cy="58" r="6.2" fill="#ffffff"/><circle cx="447.68" cy="44.36" r="6.82" fill="#ffffff"/><circle cx="435.28" cy="45.6" r="5.58" fill="#ffffff"/><ellipse cx="442.72" cy="61.72" rx="24.8" ry="4.34" fill="#ffffff"/><ellipse cx="443.96" cy="62.34" rx="21.08" ry="2.48" fill="#d5e5f2" opacity="0.55"/><circle cx="437.76" cy="45.6" r="4.34" fill="#ffffff" opacity="0.8"/><circle cx="430.32" cy="51.8" r="3.1" fill="#ffffff" opacity="0.7"/><circle cx="445.2" cy="41.88" r="3.1" fill="#ffffff" opacity="0.6"/><circle cx="622.3" cy="33.25" r="10.5" fill="#d5e5f2"/><circle cx="634.9" cy="22.75" r="14.7" fill="#d5e5f2"/><circle cx="651.7" cy="16.45" r="17.85" fill="#d5e5f2"/><circle cx="670.6" cy="21.7" r="14.7" fill="#d5e5f2"/><circle cx="685.3" cy="31.15" r="10.5" fill="#d5e5f2"/><circle cx="662.2" cy="8.05" r="11.55" fill="#d5e5f2"/><circle cx="641.2" cy="10.15" r="9.45" fill="#d5e5f2"/><ellipse cx="653.8" cy="37.45" rx="42" ry="7.35" fill="#d5e5f2"/><circle cx="622.3" cy="30.1" r="10.5" fill="#ffffff"/><circle cx="634.9" cy="19.6" r="14.7" fill="#ffffff"/><circle cx="651.7" cy="13.3" r="17.85" fill="#ffffff"/><circle cx="670.6" cy="18.55" r="14.7" fill="#ffffff"/><circle cx="685.3" cy="28" r="10.5" fill="#ffffff"/><circle cx="662.2" cy="4.9" r="11.55" fill="#ffffff"/><circle cx="641.2" cy="7" r="9.45" fill="#ffffff"/><ellipse cx="653.8" cy="34.3" rx="42" ry="7.35" fill="#ffffff"/><ellipse cx="655.9" cy="35.35" rx="35.7" ry="4.2" fill="#d5e5f2" opacity="0.55"/><circle cx="645.4" cy="7" r="7.35" fill="#ffffff" opacity="0.8"/><circle cx="632.8" cy="17.5" r="5.25" fill="#ffffff" opacity="0.7"/><circle cx="658" cy="0.7" r="5.25" fill="#ffffff" opacity="0.6"/><circle cx="859.3" cy="72.75" r="5.5" fill="#d5e5f2"/><circle cx="865.9" cy="67.25" r="7.7" fill="#d5e5f2"/><circle cx="874.7" cy="63.95" r="9.35" fill="#d5e5f2"/><circle cx="884.6" cy="66.7" r="7.7" fill="#d5e5f2"/><circle cx="892.3" cy="71.65" r="5.5" fill="#d5e5f2"/><circle cx="880.2" cy="59.55" r="6.05" fill="#d5e5f2"/><circle cx="869.2" cy="60.65" r="4.95" fill="#d5e5f2"/><ellipse cx="875.8" cy="74.95" rx="22" ry="3.85" fill="#d5e5f2"/><circle cx="859.3" cy="71.1" r="5.5" fill="#ffffff"/><circle cx="865.9" cy="65.6" r="7.7" fill="#ffffff"/><circle cx="874.7" cy="62.3" r="9.35" fill="#ffffff"/><circle cx="884.6" cy="65.05" r="7.7" fill="#ffffff"/><circle cx="892.3" cy="70" r="5.5" fill="#ffffff"/><circle cx="880.2" cy="57.9" r="6.05" fill="#ffffff"/><circle cx="869.2" cy="59" r="4.95" fill="#ffffff"/><ellipse cx="875.8" cy="73.3" rx="22" ry="3.85" fill="#ffffff"/><ellipse cx="876.9" cy="73.85" rx="18.7" ry="2.2" fill="#d5e5f2" opacity="0.55"/><circle cx="871.4" cy="59" r="3.85" fill="#ffffff" opacity="0.8"/><circle cx="864.8" cy="64.5" r="2.75" fill="#ffffff" opacity="0.7"/><circle cx="878" cy="55.7" r="2.75" fill="#ffffff" opacity="0.6"/><circle cx="1067.1" cy="44.25" r="8.5" fill="#d5e5f2"/><circle cx="1077.3" cy="35.75" r="11.9" fill="#d5e5f2"/><circle cx="1090.9" cy="30.65" r="14.45" fill="#d5e5f2"/><circle cx="1106.2" cy="34.9" r="11.9" fill="#d5e5f2"/><circle cx="1118.1" cy="42.55" r="8.5" fill="#d5e5f2"/><circle cx="1099.4" cy="23.85" r="9.35" fill="#d5e5f2"/><circle cx="1082.4" cy="25.55" r="7.65" fill="#d5e5f2"/><ellipse cx="1092.6" cy="47.65" rx="34" ry="5.95" fill="#d5e5f2"/><circle cx="1067.1" cy="41.7" r="8.5" fill="#ffffff"/><circle cx="1077.3" cy="33.2" r="11.9" fill="#ffffff"/><circle cx="1090.9" cy="28.1" r="14.45" fill="#ffffff"/><circle cx="1106.2" cy="32.35" r="11.9" fill="#ffffff"/><circle cx="1118.1" cy="40" r="8.5" fill="#ffffff"/><circle cx="1099.4" cy="21.3" r="9.35" fill="#ffffff"/><circle cx="1082.4" cy="23" r="7.65" fill="#ffffff"/><ellipse cx="1092.6" cy="45.1" rx="34" ry="5.95" fill="#ffffff"/><ellipse cx="1094.3" cy="45.95" rx="28.9" ry="3.4" fill="#d5e5f2" opacity="0.55"/><circle cx="1085.8" cy="23" r="5.95" fill="#ffffff" opacity="0.8"/><circle cx="1075.6" cy="31.5" r="4.25" fill="#ffffff" opacity="0.7"/><circle cx="1096" cy="17.9" r="4.25" fill="#ffffff" opacity="0.6"/><circle cx="1293" cy="90.5" r="5" fill="#d5e5f2"/><circle cx="1299" cy="85.5" r="7" fill="#d5e5f2"/><circle cx="1307" cy="82.5" r="8.5" fill="#d5e5f2"/><circle cx="1316" cy="85" r="7" fill="#d5e5f2"/><circle cx="1323" cy="89.5" r="5" fill="#d5e5f2"/><circle cx="1312" cy="78.5" r="5.5" fill="#d5e5f2"/><circle cx="1302" cy="79.5" r="4.5" fill="#d5e5f2"/><ellipse cx="1308" cy="92.5" rx="20" ry="3.5" fill="#d5e5f2"/><circle cx="1293" cy="89" r="5" fill="#ffffff"/><circle cx="1299" cy="84" r="7" fill="#ffffff"/><circle cx="1307" cy="81" r="8.5" fill="#ffffff"/><circle cx="1316" cy="83.5" r="7" fill="#ffffff"/><circle cx="1323" cy="88" r="5" fill="#ffffff"/><circle cx="1312" cy="77" r="5.5" fill="#ffffff"/><circle cx="1302" cy="78" r="4.5" fill="#ffffff"/><ellipse cx="1308" cy="91" rx="20" ry="3.5" fill="#ffffff"/><ellipse cx="1309" cy="91.5" rx="17" ry="2" fill="#d5e5f2" opacity="0.55"/><circle cx="1304" cy="78" r="3.5" fill="#ffffff" opacity="0.8"/><circle cx="1298" cy="83" r="2.5" fill="#ffffff" opacity="0.7"/><circle cx="1310" cy="75" r="2.5" fill="#ffffff" opacity="0.6"/><circle cx="666.4" cy="106.24" r="3.19" fill="#e1edf6"/><circle cx="670.23" cy="103.05" r="4.47" fill="#e1edf6"/><circle cx="675.33" cy="101.14" r="5.42" fill="#e1edf6"/><circle cx="681.08" cy="102.73" r="4.47" fill="#e1edf6"/><circle cx="685.54" cy="105.6" r="3.19" fill="#e1edf6"/><circle cx="678.52" cy="98.59" r="3.51" fill="#e1edf6"/><circle cx="672.14" cy="99.22" r="2.87" fill="#e1edf6"/><ellipse cx="675.97" cy="107.52" rx="12.76" ry="2.23" fill="#e1edf6"/><circle cx="666.4" cy="105.29" r="3.19" fill="#ffffff"/><circle cx="670.23" cy="102.09" r="4.47" fill="#ffffff"/><circle cx="675.33" cy="100.18" r="5.42" fill="#ffffff"/><circle cx="681.08" cy="101.78" r="4.47" fill="#ffffff"/><circle cx="685.54" cy="104.65" r="3.19" fill="#ffffff"/><circle cx="678.52" cy="97.63" r="3.51" fill="#ffffff"/><circle cx="672.14" cy="98.27" r="2.87" fill="#ffffff"/><ellipse cx="675.97" cy="106.56" rx="12.76" ry="2.23" fill="#ffffff"/><ellipse cx="676.61" cy="106.88" rx="10.85" ry="1.28" fill="#e1edf6" opacity="0.55"/><circle cx="673.42" cy="98.27" r="2.23" fill="#ffffff" opacity="0.8"/><circle cx="669.59" cy="101.46" r="1.6" fill="#ffffff" opacity="0.7"/><circle cx="677.25" cy="96.35" r="1.6" fill="#ffffff" opacity="0.6"/><circle cx="854.42" cy="110.67" r="3.23" fill="#e1edf6"/><circle cx="858.3" cy="107.43" r="4.52" fill="#e1edf6"/><circle cx="863.47" cy="105.5" r="5.49" fill="#e1edf6"/><circle cx="869.29" cy="107.11" r="4.52" fill="#e1edf6"/><circle cx="873.81" cy="110.02" r="3.23" fill="#e1edf6"/><circle cx="866.7" cy="102.91" r="3.55" fill="#e1edf6"/><circle cx="860.24" cy="103.56" r="2.91" fill="#e1edf6"/><ellipse cx="864.12" cy="111.96" rx="12.93" ry="2.26" fill="#e1edf6"/><circle cx="854.42" cy="109.7" r="3.23" fill="#ffffff"/><circle cx="858.3" cy="106.47" r="4.52" fill="#ffffff"/><circle cx="863.47" cy="104.53" r="5.49" fill="#ffffff"/><circle cx="869.29" cy="106.14" r="4.52" fill="#ffffff"/><circle cx="873.81" cy="109.05" r="3.23" fill="#ffffff"/><circle cx="866.7" cy="101.94" r="3.55" fill="#ffffff"/><circle cx="860.24" cy="102.59" r="2.91" fill="#ffffff"/><ellipse cx="864.12" cy="110.99" rx="12.93" ry="2.26" fill="#ffffff"/><ellipse cx="864.76" cy="111.31" rx="10.99" ry="1.29" fill="#e1edf6" opacity="0.55"/><circle cx="861.53" cy="102.59" r="2.26" fill="#ffffff" opacity="0.8"/><circle cx="857.65" cy="105.82" r="1.62" fill="#ffffff" opacity="0.7"/><circle cx="865.41" cy="100.65" r="1.62" fill="#ffffff" opacity="0.6"/><circle cx="393.55" cy="99.47" r="4.01" fill="#e1edf6"/><circle cx="398.35" cy="95.47" r="5.61" fill="#e1edf6"/><circle cx="404.77" cy="93.06" r="6.81" fill="#e1edf6"/><circle cx="411.98" cy="95.07" r="5.61" fill="#e1edf6"/><circle cx="417.59" cy="98.67" r="4.01" fill="#e1edf6"/><circle cx="408.77" cy="89.86" r="4.41" fill="#e1edf6"/><circle cx="400.76" cy="90.66" r="3.61" fill="#e1edf6"/><ellipse cx="405.57" cy="101.08" rx="16.03" ry="2.81" fill="#e1edf6"/><circle cx="393.55" cy="98.27" r="4.01" fill="#ffffff"/><circle cx="398.35" cy="94.26" r="5.61" fill="#ffffff"/><circle cx="404.77" cy="91.86" r="6.81" fill="#ffffff"/><circle cx="411.98" cy="93.86" r="5.61" fill="#ffffff"/><circle cx="417.59" cy="97.47" r="4.01" fill="#ffffff"/><circle cx="408.77" cy="88.65" r="4.41" fill="#ffffff"/><circle cx="400.76" cy="89.46" r="3.61" fill="#ffffff"/><ellipse cx="405.57" cy="99.87" rx="16.03" ry="2.81" fill="#ffffff"/><ellipse cx="406.37" cy="100.27" rx="13.62" ry="1.6" fill="#e1edf6" opacity="0.55"/><circle cx="402.36" cy="89.46" r="2.81" fill="#ffffff" opacity="0.8"/><circle cx="397.55" cy="93.46" r="2" fill="#ffffff" opacity="0.7"/><circle cx="407.17" cy="87.05" r="2" fill="#ffffff" opacity="0.6"/><circle cx="207.27" cy="111.59" r="3.61" fill="#e1edf6"/><circle cx="211.61" cy="107.98" r="5.06" fill="#e1edf6"/><circle cx="217.38" cy="105.81" r="6.14" fill="#e1edf6"/><circle cx="223.88" cy="107.62" r="5.06" fill="#e1edf6"/><circle cx="228.94" cy="110.87" r="3.61" fill="#e1edf6"/><circle cx="221" cy="102.93" r="3.97" fill="#e1edf6"/><circle cx="213.77" cy="103.65" r="3.25" fill="#e1edf6"/><ellipse cx="218.11" cy="113.04" rx="14.45" ry="2.53" fill="#e1edf6"/><circle cx="207.27" cy="110.51" r="3.61" fill="#ffffff"/><circle cx="211.61" cy="106.9" r="5.06" fill="#ffffff"/><circle cx="217.38" cy="104.73" r="6.14" fill="#ffffff"/><circle cx="223.88" cy="106.54" r="5.06" fill="#ffffff"/><circle cx="228.94" cy="109.79" r="3.61" fill="#ffffff"/><circle cx="221" cy="101.84" r="3.97" fill="#ffffff"/><circle cx="213.77" cy="102.56" r="3.25" fill="#ffffff"/><ellipse cx="218.11" cy="111.95" rx="14.45" ry="2.53" fill="#ffffff"/><ellipse cx="218.83" cy="112.32" rx="12.28" ry="1.44" fill="#e1edf6" opacity="0.55"/><circle cx="215.22" cy="102.56" r="2.53" fill="#ffffff" opacity="0.8"/><circle cx="210.88" cy="106.18" r="1.81" fill="#ffffff" opacity="0.7"/><circle cx="219.55" cy="100.4" r="1.81" fill="#ffffff" opacity="0.6"/><circle cx="327.33" cy="107.81" r="3.78" fill="#e1edf6"/><circle cx="331.87" cy="104.03" r="5.29" fill="#e1edf6"/><circle cx="337.92" cy="101.76" r="6.43" fill="#e1edf6"/><circle cx="344.72" cy="103.65" r="5.29" fill="#e1edf6"/><circle cx="350.02" cy="107.06" r="3.78" fill="#e1edf6"/><circle cx="341.7" cy="98.74" r="4.16" fill="#e1edf6"/><circle cx="334.14" cy="99.5" r="3.4" fill="#e1edf6"/><ellipse cx="338.67" cy="109.33" rx="15.12" ry="2.65" fill="#e1edf6"/><circle cx="327.33" cy="106.68" r="3.78" fill="#ffffff"/><circle cx="331.87" cy="102.9" r="5.29" fill="#ffffff"/><circle cx="337.92" cy="100.63" r="6.43" fill="#ffffff"/><circle cx="344.72" cy="102.52" r="5.29" fill="#ffffff"/><circle cx="350.02" cy="105.92" r="3.78" fill="#ffffff"/><circle cx="341.7" cy="97.61" r="4.16" fill="#ffffff"/><circle cx="334.14" cy="98.36" r="3.4" fill="#ffffff"/><ellipse cx="338.67" cy="108.19" rx="15.12" ry="2.65" fill="#ffffff"/><ellipse cx="339.43" cy="108.57" rx="12.86" ry="1.51" fill="#e1edf6" opacity="0.55"/><circle cx="335.65" cy="98.36" r="2.65" fill="#ffffff" opacity="0.8"/><circle cx="331.11" cy="102.14" r="1.89" fill="#ffffff" opacity="0.7"/><circle cx="340.19" cy="96.09" r="1.89" fill="#ffffff" opacity="0.6"/></svg>